<svg width="40" height="40" viewBox="0 0 40 40" fill="none" xmlns="http://www.w3.org/2000/svg">
<g filter="url(#filter0_d)">
<rect x="4" width="32" height="32" rx="3" fill="white"/>
</g>
<g clip-path="url(#clip0)">
<path d="M18.9447 29.999C19.3581 29.999 19.7706 29.999 20.184 29.999C20.3353 29.9393 20.4826 29.8452 20.639 29.8243C22.7315 29.5377 24.5528 28.6381 25.917 26.9906C26.824 25.8964 27.465 24.5722 28.3071 23.4142C30.7957 19.9874 31.4732 16.1621 30.6931 12.0303C29.7119 6.83367 25.595 2.6276 21.0331 2.07844C15.2981 1.38806 10.0994 5.21129 8.62454 11.251C8.33505 12.4362 8.20402 13.6632 7.99985 14.8713C7.99985 14.9425 7.99985 15.0136 7.99985 15.0847C8.05673 15.3525 8.15628 15.6182 8.16542 15.8881C8.26192 18.5492 9.11922 20.9289 10.6002 23.092C11.0543 23.7542 11.486 24.4383 11.8699 25.1454C12.714 26.7008 13.8395 27.9895 15.3997 28.7416C16.5262 29.2835 17.7593 29.5889 18.9447 29.999ZM26.2176 20.59C26.0084 24.2678 22.7701 27.4843 19.4963 27.4393C16.2519 27.3944 13.0513 24.1339 12.9212 20.6569C13.2158 20.6349 13.5155 20.5774 13.81 20.5962C15.739 20.7218 17.5775 20.568 19.1245 19.1433C19.3033 18.9791 19.9016 19.0261 20.1078 19.2102C21.5146 20.4655 23.1551 20.7343 24.9246 20.5952C25.3268 20.5628 25.7341 20.59 26.2176 20.59ZM25.5157 12.9812C25.3888 13.0628 25.3349 13.1203 25.274 13.1318C25.1399 13.1559 24.9997 13.1757 24.8646 13.1642C23.0911 13.0063 21.4638 13.3065 20.0438 14.5492C19.8264 14.7395 19.1144 14.6067 18.8178 14.3724C17.6679 13.4644 16.4266 13.0293 14.9802 13.1569C14.5302 13.1966 14.0701 13.1077 13.5734 13.0753C14.3494 10.9613 16.9823 9.42782 19.6182 9.44037C22.1972 9.45292 24.8067 11.0031 25.5157 12.9812ZM21.4263 16.8556C22.8697 15.0241 26.5447 15.0397 27.9658 16.8839C26.4695 18.6904 22.7467 18.6747 21.4263 16.8556ZM11.1701 16.841C12.713 15.0471 16.2265 15.0481 17.7085 16.8431C16.3931 18.6977 12.5048 18.6966 11.1701 16.841Z" fill="#5B56E9"/>
<path d="M19.723 25.2322C20.562 24.7803 21.3309 24.4801 21.9434 23.977C22.1781 23.7835 22.1933 23.0617 22.0379 22.7061C21.9546 22.5157 21.1755 22.4079 20.9195 22.5847C20.0358 23.1956 19.274 23.251 18.3628 22.6287C18.0896 22.4425 17.535 22.6935 17.1094 22.7448C17.1724 23.1862 17.084 23.8556 17.3268 24.0272C18.0266 24.522 18.8595 24.818 19.723 25.2322Z" fill="#5B56E9"/>
</g>
<defs>
<filter id="filter0_d" x="0" y="0" width="40" height="40" filterUnits="userSpaceOnUse" color-interpolation-filters="sRGB">
<feFlood flood-opacity="0" result="BackgroundImageFix"/>
<feColorMatrix in="SourceAlpha" type="matrix" values="0 0 0 0 0 0 0 0 0 0 0 0 0 0 0 0 0 0 127 0"/>
<feOffset dy="4"/>
<feGaussianBlur stdDeviation="2"/>
<feColorMatrix type="matrix" values="0 0 0 0 0 0 0 0 0 0 0 0 0 0 0 0 0 0 0.25 0"/>
<feBlend mode="normal" in2="BackgroundImageFix" result="effect1_dropShadow"/>
<feBlend mode="normal" in="SourceGraphic" in2="effect1_dropShadow" result="shape"/>
</filter>
<clipPath id="clip0">
<rect width="23" height="28" fill="white" transform="matrix(-1 0 0 1 31 2)"/>
</clipPath>
</defs>
</svg>
