<svg width="370" height="334" viewBox="0 0 370 334" fill="none" xmlns="http://www.w3.org/2000/svg">
<g filter="url(#filter0_dddd)">
<rect x="30" y="30" width="310" height="274" rx="39" fill="#F8F8F8"/>
</g>
<path d="M56.1426 99.0918C56.1426 98.0547 56.333 97.1055 56.7139 96.2441C57.0947 95.3828 57.6279 94.6445 58.3135 94.0293C59.0049 93.4082 59.8311 92.9277 60.792 92.5879C61.7588 92.248 62.8281 92.0781 64 92.0781C65.166 92.0781 66.2324 92.248 67.1992 92.5879C68.166 92.9277 68.9922 93.4082 69.6777 94.0293C70.3691 94.6445 70.9053 95.3828 71.2861 96.2441C71.667 97.1055 71.8574 98.0547 71.8574 99.0918C71.8574 100.135 71.667 101.093 71.2861 101.966C70.9053 102.833 70.3691 103.58 69.6777 104.207C68.9922 104.834 68.166 105.323 67.1992 105.675C66.2324 106.021 65.166 106.193 64 106.193C62.8281 106.193 61.7588 106.021 60.792 105.675C59.8311 105.323 59.0049 104.834 58.3135 104.207C57.6279 103.58 57.0947 102.833 56.7139 101.966C56.333 101.093 56.1426 100.135 56.1426 99.0918ZM58.9287 99.0918C58.9287 99.8008 59.0547 100.439 59.3066 101.008C59.5645 101.576 59.9189 102.062 60.3701 102.467C60.8271 102.865 61.3633 103.173 61.9785 103.39C62.5996 103.606 63.2734 103.715 64 103.715C64.7266 103.715 65.3975 103.606 66.0127 103.39C66.6338 103.173 67.1699 102.865 67.6211 102.467C68.0723 102.062 68.4268 101.576 68.6846 101.008C68.9424 100.439 69.0713 99.8008 69.0713 99.0918C69.0713 98.3828 68.9424 97.7471 68.6846 97.1846C68.4268 96.6221 68.0723 96.1475 67.6211 95.7607C67.1699 95.3682 66.6338 95.0693 66.0127 94.8643C65.3975 94.6592 64.7266 94.5566 64 94.5566C63.2734 94.5566 62.5996 94.6592 61.9785 94.8643C61.3633 95.0693 60.8271 95.3682 60.3701 95.7607C59.9189 96.1475 59.5645 96.6221 59.3066 97.1846C59.0547 97.7471 58.9287 98.3828 58.9287 99.0918ZM74.626 95.6289H77.2275V97.123C77.8018 96.6953 78.4082 96.3262 79.0469 96.0156C79.6855 95.7051 80.3213 95.4678 80.9541 95.3037L81.7188 97.6855C80.7168 97.7852 79.835 98.0107 79.0732 98.3623C78.3174 98.708 77.7021 99.1973 77.2275 99.8301V106H74.626V95.6289ZM87.3174 108.276C87.7217 108.03 88.0674 107.772 88.3545 107.503C88.6475 107.233 88.8877 106.935 89.0752 106.606C89.2627 106.284 89.4004 105.924 89.4883 105.525C89.5762 105.121 89.6201 104.664 89.6201 104.154V92.2627H92.4062V103.653C92.4062 104.263 92.3799 104.819 92.3271 105.323C92.2744 105.821 92.1865 106.278 92.0635 106.694C91.9463 107.116 91.7852 107.503 91.5801 107.854C91.3809 108.206 91.1318 108.54 90.833 108.856C90.54 109.173 90.1914 109.478 89.7871 109.771C89.3887 110.063 88.9258 110.359 88.3984 110.658L87.3174 108.276ZM95.6494 95.6201H98.2422V100.683C98.2422 101.163 98.2949 101.603 98.4004 102.001C98.5059 102.394 98.6846 102.73 98.9365 103.012C99.1943 103.293 99.5342 103.513 99.9561 103.671C100.384 103.823 100.914 103.899 101.547 103.899C101.846 103.899 102.147 103.867 102.452 103.803C102.763 103.738 103.059 103.65 103.34 103.539C103.621 103.422 103.882 103.284 104.122 103.126C104.368 102.968 104.579 102.795 104.755 102.607V95.6201H107.356V106H104.755V105.112C104.116 105.493 103.475 105.766 102.83 105.93C102.186 106.094 101.573 106.176 100.993 106.176C100.044 106.176 99.2295 106.062 98.5498 105.833C97.876 105.604 97.3223 105.273 96.8887 104.84C96.4609 104.4 96.1475 103.864 95.9482 103.231C95.749 102.593 95.6494 101.866 95.6494 101.052V95.6201ZM111.074 102.818C111.777 103.24 112.551 103.551 113.395 103.75C114.238 103.949 115.103 104.049 115.987 104.049C116.585 104.049 117.083 104.008 117.481 103.926C117.88 103.844 118.199 103.738 118.439 103.609C118.68 103.48 118.85 103.334 118.949 103.17C119.049 103.006 119.099 102.839 119.099 102.669C119.099 102.423 118.99 102.212 118.773 102.036C118.562 101.86 118.211 101.772 117.719 101.772C117.49 101.772 117.244 101.787 116.98 101.816C116.717 101.846 116.438 101.878 116.146 101.913C115.858 101.942 115.557 101.972 115.24 102.001C114.93 102.03 114.613 102.045 114.291 102.045C113.588 102.045 112.987 101.969 112.489 101.816C111.997 101.664 111.596 101.456 111.285 101.192C110.975 100.929 110.749 100.618 110.608 100.261C110.468 99.8975 110.397 99.5078 110.397 99.0918C110.397 98.5645 110.521 98.0781 110.767 97.6328C111.013 97.1875 111.364 96.8037 111.821 96.4814C112.278 96.1533 112.829 95.8984 113.474 95.7168C114.124 95.5352 114.848 95.4443 115.645 95.4443C116.061 95.4443 116.494 95.4707 116.945 95.5234C117.402 95.5703 117.851 95.6348 118.29 95.7168C118.729 95.7988 119.151 95.8955 119.556 96.0068C119.96 96.1123 120.317 96.2266 120.628 96.3496L119.811 98.3711C119.148 98.125 118.486 97.9316 117.824 97.791C117.168 97.6445 116.491 97.5713 115.794 97.5713C115.308 97.5713 114.895 97.6094 114.555 97.6855C114.221 97.7559 113.948 97.8525 113.737 97.9756C113.526 98.0928 113.371 98.2305 113.271 98.3887C113.178 98.541 113.131 98.7021 113.131 98.8721C113.131 98.9951 113.154 99.1064 113.201 99.2061C113.254 99.3057 113.336 99.3936 113.447 99.4697C113.564 99.54 113.714 99.5957 113.896 99.6367C114.083 99.6719 114.312 99.6895 114.581 99.6895C114.827 99.6895 115.088 99.6748 115.363 99.6455C115.639 99.6162 115.926 99.5869 116.225 99.5576C116.523 99.5225 116.831 99.4902 117.147 99.4609C117.47 99.4316 117.798 99.417 118.132 99.417C118.753 99.417 119.295 99.4902 119.758 99.6367C120.227 99.7832 120.613 99.9883 120.918 100.252C121.223 100.516 121.451 100.826 121.604 101.184C121.756 101.541 121.832 101.931 121.832 102.353C121.832 102.897 121.706 103.404 121.454 103.873C121.202 104.342 120.827 104.749 120.329 105.095C119.831 105.435 119.21 105.701 118.466 105.895C117.728 106.088 116.872 106.185 115.899 106.185C115.302 106.185 114.725 106.146 114.168 106.07C113.611 106 113.081 105.903 112.577 105.78C112.073 105.651 111.599 105.502 111.153 105.332C110.714 105.162 110.312 104.98 109.949 104.787L111.074 102.818ZM125.743 97.5801H123.238V95.6289H125.743V92.4033H128.345V95.6289H130.85V97.5801H128.345V106H125.743V97.5801ZM139.445 92.2627H142.231L150.792 96.7451V92.2627H153.578V106H150.792V99.6982L142.231 95.2422V106H139.445V92.2627ZM156.646 100.779C156.646 100.076 156.789 99.4053 157.076 98.7666C157.363 98.1221 157.776 97.5537 158.315 97.0615C158.854 96.5693 159.514 96.1768 160.293 95.8838C161.078 95.5908 161.969 95.4443 162.965 95.4443C163.955 95.4443 164.846 95.5938 165.637 95.8926C166.434 96.1855 167.107 96.5898 167.658 97.1055C168.215 97.6211 168.64 98.2275 168.933 98.9248C169.231 99.6221 169.381 100.369 169.381 101.166C169.381 101.266 169.378 101.374 169.372 101.491C169.372 101.603 169.366 101.705 169.354 101.799H159.546C159.657 102.109 159.836 102.394 160.082 102.651C160.334 102.909 160.647 103.132 161.022 103.319C161.397 103.507 161.831 103.653 162.323 103.759C162.815 103.858 163.36 103.908 163.958 103.908C164.556 103.908 165.15 103.847 165.742 103.724C166.334 103.595 166.899 103.434 167.438 103.24L168.317 105.227C167.978 105.385 167.632 105.525 167.28 105.648C166.935 105.766 166.571 105.865 166.19 105.947C165.815 106.023 165.42 106.082 165.004 106.123C164.594 106.164 164.16 106.185 163.703 106.185C162.537 106.185 161.515 106.044 160.636 105.763C159.757 105.481 159.021 105.098 158.43 104.611C157.838 104.125 157.393 103.554 157.094 102.897C156.795 102.241 156.646 101.535 156.646 100.779ZM166.621 99.7686C166.527 99.4814 166.381 99.2148 166.182 98.9688C165.988 98.7168 165.745 98.5 165.452 98.3184C165.159 98.1309 164.819 97.9844 164.433 97.8789C164.046 97.7734 163.621 97.7207 163.158 97.7207C162.666 97.7207 162.218 97.7764 161.813 97.8877C161.409 97.999 161.055 98.1484 160.75 98.3359C160.445 98.5234 160.19 98.7402 159.985 98.9863C159.786 99.2324 159.64 99.4932 159.546 99.7686H166.621ZM172.185 95.6289H174.786V97.123C175.36 96.6953 175.967 96.3262 176.605 96.0156C177.244 95.7051 177.88 95.4678 178.513 95.3037L179.277 97.6855C178.275 97.7852 177.394 98.0107 176.632 98.3623C175.876 98.708 175.261 99.1973 174.786 99.8301V106H172.185V95.6289ZM180.42 100.858C180.42 100.032 180.575 99.2881 180.886 98.626C181.196 97.958 181.624 97.3896 182.169 96.9209C182.72 96.4463 183.37 96.083 184.12 95.8311C184.876 95.5732 185.693 95.4443 186.572 95.4443C186.947 95.4443 187.316 95.4678 187.68 95.5146C188.049 95.5615 188.4 95.626 188.734 95.708C189.074 95.79 189.391 95.8896 189.684 96.0068C189.982 96.1182 190.246 96.2412 190.475 96.376V91.4189H193.076V106H190.475V105.024C190.246 105.183 189.977 105.332 189.666 105.473C189.355 105.613 189.021 105.736 188.664 105.842C188.307 105.947 187.935 106.029 187.548 106.088C187.167 106.152 186.789 106.185 186.414 106.185C185.535 106.185 184.727 106.056 183.988 105.798C183.256 105.54 182.626 105.177 182.099 104.708C181.571 104.239 181.158 103.68 180.859 103.029C180.566 102.373 180.42 101.649 180.42 100.858ZM183.153 100.858C183.153 101.274 183.235 101.667 183.399 102.036C183.569 102.405 183.81 102.73 184.12 103.012C184.437 103.287 184.814 103.507 185.254 103.671C185.699 103.829 186.197 103.908 186.748 103.908C187.1 103.908 187.451 103.876 187.803 103.812C188.154 103.741 188.491 103.645 188.813 103.521C189.142 103.398 189.446 103.249 189.728 103.073C190.015 102.897 190.264 102.701 190.475 102.484V98.8896C190.211 98.6787 189.933 98.5 189.64 98.3535C189.347 98.207 189.048 98.0869 188.743 97.9932C188.438 97.8994 188.131 97.832 187.82 97.791C187.51 97.7441 187.208 97.7207 186.915 97.7207C186.317 97.7207 185.784 97.8027 185.315 97.9668C184.853 98.125 184.46 98.3447 184.138 98.626C183.821 98.9072 183.578 99.2383 183.408 99.6191C183.238 100 183.153 100.413 183.153 100.858ZM201.76 99.0918C201.76 98.0547 201.95 97.1055 202.331 96.2441C202.712 95.3828 203.245 94.6445 203.931 94.0293C204.622 93.4082 205.448 92.9277 206.409 92.5879C207.376 92.248 208.445 92.0781 209.617 92.0781C210.783 92.0781 211.85 92.248 212.816 92.5879C213.783 92.9277 214.609 93.4082 215.295 94.0293C215.986 94.6445 216.522 95.3828 216.903 96.2441C217.284 97.1055 217.475 98.0547 217.475 99.0918C217.475 100.135 217.284 101.093 216.903 101.966C216.522 102.833 215.986 103.58 215.295 104.207C214.609 104.834 213.783 105.323 212.816 105.675C211.85 106.021 210.783 106.193 209.617 106.193C208.445 106.193 207.376 106.021 206.409 105.675C205.448 105.323 204.622 104.834 203.931 104.207C203.245 103.58 202.712 102.833 202.331 101.966C201.95 101.093 201.76 100.135 201.76 99.0918ZM204.546 99.0918C204.546 99.8008 204.672 100.439 204.924 101.008C205.182 101.576 205.536 102.062 205.987 102.467C206.444 102.865 206.98 103.173 207.596 103.39C208.217 103.606 208.891 103.715 209.617 103.715C210.344 103.715 211.015 103.606 211.63 103.39C212.251 103.173 212.787 102.865 213.238 102.467C213.689 102.062 214.044 101.576 214.302 101.008C214.56 100.439 214.688 99.8008 214.688 99.0918C214.688 98.3828 214.56 97.7471 214.302 97.1846C214.044 96.6221 213.689 96.1475 213.238 95.7607C212.787 95.3682 212.251 95.0693 211.63 94.8643C211.015 94.6592 210.344 94.5566 209.617 94.5566C208.891 94.5566 208.217 94.6592 207.596 94.8643C206.98 95.0693 206.444 95.3682 205.987 95.7607C205.536 96.1475 205.182 96.6221 204.924 97.1846C204.672 97.7471 204.546 98.3828 204.546 99.0918ZM220.243 95.6201H222.836V100.683C222.836 101.163 222.889 101.603 222.994 102.001C223.1 102.394 223.278 102.73 223.53 103.012C223.788 103.293 224.128 103.513 224.55 103.671C224.978 103.823 225.508 103.899 226.141 103.899C226.439 103.899 226.741 103.867 227.046 103.803C227.356 103.738 227.652 103.65 227.934 103.539C228.215 103.422 228.476 103.284 228.716 103.126C228.962 102.968 229.173 102.795 229.349 102.607V95.6201H231.95V106H229.349V105.112C228.71 105.493 228.068 105.766 227.424 105.93C226.779 106.094 226.167 106.176 225.587 106.176C224.638 106.176 223.823 106.062 223.144 105.833C222.47 105.604 221.916 105.273 221.482 104.84C221.055 104.4 220.741 103.864 220.542 103.231C220.343 102.593 220.243 101.866 220.243 101.052V95.6201ZM236.819 97.5801H234.314V95.6289H236.819V92.4033H239.421V95.6289H241.926V97.5801H239.421V106H236.819V97.5801Z" fill="#889DE2"/>
<path d="M62.232 69.84H54.468V71.088H57.624V78H59.076V71.088H62.232V69.84ZM71.4128 71.964L69.9368 76.284L68.3528 71.964H67.1048L65.5328 76.284L64.0568 71.964H62.5808L64.7648 78H66.1568L67.7048 73.68L69.2648 78H70.6448L72.8288 71.964H71.4128ZM77.2403 78.144C79.2923 78.144 80.6603 76.884 80.6603 74.988C80.6603 73.092 79.2923 71.82 77.2403 71.82C75.1883 71.82 73.8203 73.092 73.8203 74.988C73.8203 76.884 75.1883 78.144 77.2403 78.144ZM77.2403 76.944C76.0283 76.944 75.2363 76.164 75.2363 74.988C75.2363 73.8 76.0283 73.02 77.2403 73.02C78.4523 73.02 79.2443 73.8 79.2443 74.988C79.2443 76.164 78.4523 76.944 77.2403 76.944ZM88.593 73.308H85.917V70.632H84.693V73.308H82.017V74.532H84.693V77.208H85.917V74.532H88.593V73.308ZM98.0933 69.84H94.3733V78H98.0933C100.685 78 102.305 76.428 102.305 73.92C102.305 71.412 100.685 69.84 98.0933 69.84ZM97.9373 76.752H95.8253V71.088H97.9373C99.7493 71.088 100.829 72.144 100.829 73.92C100.829 75.696 99.7493 76.752 97.9373 76.752ZM104.917 70.896C105.421 70.896 105.769 70.56 105.769 70.08C105.769 69.612 105.421 69.276 104.917 69.276C104.413 69.276 104.065 69.612 104.065 70.08C104.065 70.56 104.413 70.896 104.917 70.896ZM104.221 78H105.613V71.964H104.221V78ZM110.562 78.144C112.506 78.144 113.574 77.472 113.574 76.236C113.574 75.012 112.854 74.544 110.754 74.364C109.35 74.244 109.002 74.1 109.002 73.656C109.002 73.2 109.518 72.948 110.478 72.948C111.378 72.948 112.146 73.164 112.734 73.548L113.226 72.552C112.518 72.072 111.558 71.82 110.466 71.82C108.69 71.82 107.598 72.528 107.598 73.716C107.598 74.94 108.306 75.396 110.43 75.588C111.834 75.708 112.17 75.84 112.17 76.296C112.17 76.764 111.618 77.028 110.574 77.028C109.482 77.028 108.606 76.74 107.838 76.248L107.322 77.268C108.138 77.82 109.242 78.144 110.562 78.144ZM118.441 78.144C119.377 78.144 120.205 77.916 120.913 77.46L120.433 76.344C119.845 76.752 119.233 76.944 118.537 76.944C117.169 76.944 116.341 76.2 116.341 75C116.341 73.788 117.169 73.02 118.441 73.02C119.077 73.02 119.725 73.2 120.253 73.548L120.685 72.456C120.049 72.024 119.257 71.82 118.381 71.82C116.305 71.82 114.913 73.056 114.913 75.012C114.913 76.92 116.257 78.144 118.441 78.144ZM127.131 71.964V75.912C126.627 76.572 125.967 76.944 125.163 76.944C124.263 76.944 123.795 76.488 123.795 75.576V71.964H122.403V75.852C122.403 77.292 123.243 78.144 124.659 78.144C125.667 78.144 126.495 77.712 127.131 76.86V78H128.523V71.964H127.131ZM133.469 78.144C135.413 78.144 136.481 77.472 136.481 76.236C136.481 75.012 135.761 74.544 133.661 74.364C132.257 74.244 131.909 74.1 131.909 73.656C131.909 73.2 132.425 72.948 133.385 72.948C134.285 72.948 135.053 73.164 135.641 73.548L136.133 72.552C135.425 72.072 134.465 71.82 133.373 71.82C131.597 71.82 130.505 72.528 130.505 73.716C130.505 74.94 131.213 75.396 133.337 75.588C134.741 75.708 135.077 75.84 135.077 76.296C135.077 76.764 134.525 77.028 133.481 77.028C132.389 77.028 131.513 76.74 130.745 76.248L130.229 77.268C131.045 77.82 132.149 78.144 133.469 78.144ZM140.953 78.144C142.897 78.144 143.965 77.472 143.965 76.236C143.965 75.012 143.245 74.544 141.145 74.364C139.741 74.244 139.393 74.1 139.393 73.656C139.393 73.2 139.909 72.948 140.869 72.948C141.769 72.948 142.537 73.164 143.125 73.548L143.617 72.552C142.909 72.072 141.949 71.82 140.857 71.82C139.081 71.82 137.989 72.528 137.989 73.716C137.989 74.94 138.697 75.396 140.821 75.588C142.225 75.708 142.561 75.84 142.561 76.296C142.561 76.764 142.009 77.028 140.965 77.028C139.873 77.028 138.997 76.74 138.229 76.248L137.713 77.268C138.529 77.82 139.633 78.144 140.953 78.144Z" fill="#889DE2"/>
<path d="M65.992 159.84L63.796 166.8L61.564 159.84H60.808L58.576 166.8L56.368 159.84H55.54L58.144 168H58.948L61.168 161.064L63.388 168H64.192L66.808 159.84H65.992ZM69.0916 160.752C69.4396 160.752 69.6676 160.524 69.6676 160.2C69.6676 159.876 69.4396 159.648 69.0916 159.648C68.7436 159.648 68.5156 159.876 68.5156 160.2C68.5156 160.524 68.7436 160.752 69.0916 160.752ZM68.7076 168H69.4756V162.024H68.7076V168ZM76.1744 167.124C75.7904 167.34 75.3704 167.448 74.9024 167.448C74.0864 167.448 73.7024 167.1 73.7024 166.308V162.66H76.2344V162.024H73.7024V159.84H72.9344V162.024H71.1824V162.66H72.9344V166.38C72.9344 167.556 73.5824 168.144 74.8424 168.144C75.4304 168.144 75.9344 168.024 76.4024 167.772L76.1744 167.124ZM81.7295 161.88C80.6495 161.88 79.7375 162.336 78.9935 163.248V159.48H78.2255V168H78.9935V163.908C79.6775 163.056 80.5295 162.576 81.5375 162.576C82.6775 162.576 83.2895 163.188 83.2895 164.328V168H84.0575V164.208C84.0575 162.732 83.1935 161.88 81.7295 161.88ZM92.891 161.88C91.811 161.88 90.947 162.12 90.203 162.612L90.527 163.224C91.163 162.78 91.931 162.576 92.831 162.576C94.379 162.576 95.063 163.2 95.063 164.628V165.18C94.271 164.712 93.239 164.436 92.255 164.436C90.695 164.436 89.795 165.12 89.795 166.284C89.795 167.436 90.671 168.144 92.087 168.144C93.263 168.144 94.319 167.664 95.063 166.764V168H95.831V164.544C95.831 162.708 94.907 161.88 92.891 161.88ZM95.063 166.116C94.403 166.956 93.335 167.46 92.207 167.46C91.175 167.46 90.575 167.028 90.575 166.272C90.575 165.504 91.199 165.096 92.399 165.096C93.359 165.096 94.331 165.348 95.063 165.804V166.116ZM98.1099 168H98.8779V159.48H98.1099V168ZM101.293 168H102.061V159.48H101.293V168ZM112.657 167.124C112.273 167.34 111.853 167.448 111.385 167.448C110.569 167.448 110.185 167.1 110.185 166.308V162.66H112.717V162.024H110.185V159.84H109.417V162.024H107.665V162.66H109.417V166.38C109.417 167.556 110.065 168.144 111.325 168.144C111.913 168.144 112.417 168.024 112.885 167.772L112.657 167.124ZM118.212 161.88C117.132 161.88 116.22 162.336 115.476 163.248V159.48H114.708V168H115.476V163.908C116.16 163.056 117.012 162.576 118.02 162.576C119.16 162.576 119.772 163.188 119.772 164.328V168H120.54V164.208C120.54 162.732 119.676 161.88 118.212 161.88ZM129.052 165.24V165.012C129.052 163.14 127.732 161.88 125.764 161.88C123.796 161.88 122.464 163.14 122.464 165.012C122.464 166.92 123.844 168.144 126.04 168.144C127.108 168.144 127.996 167.868 128.728 167.292L128.416 166.668C127.732 167.208 127 167.448 126.088 167.448C124.42 167.448 123.352 166.62 123.256 165.24H129.052ZM125.788 162.576C127.144 162.576 128.116 163.368 128.296 164.592H123.268C123.448 163.368 124.42 162.576 125.788 162.576ZM139.181 167.124C138.797 167.34 138.377 167.448 137.909 167.448C137.093 167.448 136.709 167.1 136.709 166.308V162.66H139.241V162.024H136.709V159.84H135.941V162.024H134.189V162.66H135.941V166.38C135.941 167.556 136.589 168.144 137.849 168.144C138.437 168.144 138.941 168.024 139.409 167.772L139.181 167.124ZM141.617 160.752C141.965 160.752 142.193 160.524 142.193 160.2C142.193 159.876 141.965 159.648 141.617 159.648C141.269 159.648 141.041 159.876 141.041 160.2C141.041 160.524 141.269 160.752 141.617 160.752ZM141.233 168H142.001V162.024H141.233V168ZM151.855 161.88C150.823 161.88 150.031 162.408 149.407 163.248C149.143 162.372 148.483 161.88 147.535 161.88C146.599 161.88 145.819 162.336 145.183 163.248V162.024H144.415V168H145.183V163.908C145.759 163.056 146.467 162.576 147.319 162.576C148.267 162.576 148.771 163.188 148.771 164.328V168H149.539V164.208C149.539 164.052 149.527 163.908 149.515 163.764C150.091 163.008 150.787 162.576 151.639 162.576C152.647 162.576 153.139 163.188 153.139 164.328V168H153.907V164.208C153.907 162.732 153.175 161.88 151.855 161.88ZM162.427 165.24V165.012C162.427 163.14 161.107 161.88 159.139 161.88C157.171 161.88 155.839 163.14 155.839 165.012C155.839 166.92 157.219 168.144 159.415 168.144C160.483 168.144 161.371 167.868 162.103 167.292L161.791 166.668C161.107 167.208 160.375 167.448 159.463 167.448C157.795 167.448 156.727 166.62 156.631 165.24H162.427ZM159.163 162.576C160.519 162.576 161.491 163.368 161.671 164.592H156.643C156.823 163.368 157.795 162.576 159.163 162.576ZM166.991 168.144C168.839 168.144 169.895 167.484 169.895 166.32C169.895 165.216 169.163 164.772 167.135 164.628C165.395 164.508 164.903 164.28 164.903 163.632C164.903 162.972 165.623 162.552 166.823 162.552C167.759 162.552 168.599 162.792 169.187 163.224L169.511 162.612C168.815 162.12 167.903 161.88 166.871 161.88C165.191 161.88 164.123 162.564 164.123 163.668C164.123 164.772 164.843 165.216 166.895 165.36C168.623 165.48 169.115 165.696 169.115 166.356C169.115 167.052 168.335 167.46 167.003 167.46C165.875 167.46 164.963 167.16 164.207 166.632L163.847 167.244C164.639 167.808 165.707 168.144 166.991 168.144ZM180.785 162.024L178.469 166.968L175.901 162.024H175.037L178.037 167.772L177.629 168.636C177.257 169.428 176.909 169.728 176.237 169.728C175.877 169.728 175.541 169.656 175.301 169.524L175.085 170.172C175.385 170.328 175.781 170.424 176.285 170.424C177.269 170.424 177.821 170.016 178.337 168.924L181.601 162.024H180.785ZM185.934 168.144C187.914 168.144 189.258 166.872 189.258 165.012C189.258 163.14 187.914 161.88 185.934 161.88C183.942 161.88 182.61 163.14 182.61 165.012C182.61 166.872 183.942 168.144 185.934 168.144ZM185.934 167.448C184.41 167.448 183.39 166.452 183.39 165.012C183.39 163.56 184.41 162.576 185.934 162.576C187.446 162.576 188.466 163.56 188.466 165.012C188.466 166.452 187.446 167.448 185.934 167.448ZM196.23 162.024V166.104C195.546 166.956 194.694 167.448 193.686 167.448C192.546 167.448 191.934 166.824 191.934 165.684V162.024H191.166V165.816C191.166 167.292 192.03 168.144 193.494 168.144C194.574 168.144 195.486 167.676 196.23 166.764V168H196.998V162.024H196.23ZM199.978 159.696C199.654 159.696 199.402 159.948 199.402 160.284C199.402 160.596 199.654 160.824 199.978 160.824C200.014 160.824 200.038 160.824 200.074 160.812C200.038 161.4 199.702 161.88 199.198 162.048L199.33 162.432C200.098 162.216 200.614 161.448 200.614 160.512C200.614 159.996 200.374 159.696 199.978 159.696ZM208.236 162.024L205.776 167.124L203.304 162.024H202.452L205.368 168H206.148L209.052 162.024H208.236ZM216.647 165.24V165.012C216.647 163.14 215.327 161.88 213.359 161.88C211.391 161.88 210.059 163.14 210.059 165.012C210.059 166.92 211.439 168.144 213.635 168.144C214.703 168.144 215.591 167.868 216.323 167.292L216.011 166.668C215.327 167.208 214.595 167.448 213.683 167.448C212.015 167.448 210.947 166.62 210.851 165.24H216.647ZM213.383 162.576C214.739 162.576 215.711 163.368 215.891 164.592H210.863C211.043 163.368 212.015 162.576 213.383 162.576ZM225.121 161.88C224.041 161.88 223.177 162.12 222.433 162.612L222.757 163.224C223.393 162.78 224.161 162.576 225.061 162.576C226.609 162.576 227.293 163.2 227.293 164.628V165.18C226.501 164.712 225.469 164.436 224.485 164.436C222.925 164.436 222.025 165.12 222.025 166.284C222.025 167.436 222.901 168.144 224.317 168.144C225.493 168.144 226.549 167.664 227.293 166.764V168H228.061V164.544C228.061 162.708 227.137 161.88 225.121 161.88ZM227.293 166.116C226.633 166.956 225.565 167.46 224.437 167.46C223.405 167.46 222.805 167.028 222.805 166.272C222.805 165.504 223.429 165.096 224.629 165.096C225.589 165.096 226.561 165.348 227.293 165.804V166.116ZM230.34 168H231.108V159.48H230.34V168ZM240.962 161.88C239.93 161.88 239.138 162.408 238.514 163.248C238.25 162.372 237.59 161.88 236.642 161.88C235.706 161.88 234.926 162.336 234.29 163.248V162.024H233.522V168H234.29V163.908C234.866 163.056 235.574 162.576 236.426 162.576C237.374 162.576 237.878 163.188 237.878 164.328V168H238.646V164.208C238.646 164.052 238.634 163.908 238.622 163.764C239.198 163.008 239.894 162.576 240.746 162.576C241.754 162.576 242.246 163.188 242.246 164.328V168H243.014V164.208C243.014 162.732 242.282 161.88 240.962 161.88ZM248.27 168.144C250.25 168.144 251.594 166.872 251.594 165.012C251.594 163.14 250.25 161.88 248.27 161.88C246.278 161.88 244.946 163.14 244.946 165.012C244.946 166.872 246.278 168.144 248.27 168.144ZM248.27 167.448C246.746 167.448 245.726 166.452 245.726 165.012C245.726 163.56 246.746 162.576 248.27 162.576C249.782 162.576 250.802 163.56 250.802 165.012C250.802 166.452 249.782 167.448 248.27 167.448ZM256.227 168.144C258.075 168.144 259.131 167.484 259.131 166.32C259.131 165.216 258.399 164.772 256.371 164.628C254.631 164.508 254.139 164.28 254.139 163.632C254.139 162.972 254.859 162.552 256.059 162.552C256.995 162.552 257.835 162.792 258.423 163.224L258.747 162.612C258.051 162.12 257.139 161.88 256.107 161.88C254.427 161.88 253.359 162.564 253.359 163.668C253.359 164.772 254.079 165.216 256.131 165.36C257.859 165.48 258.351 165.696 258.351 166.356C258.351 167.052 257.571 167.46 256.239 167.46C255.111 167.46 254.199 167.16 253.443 166.632L253.083 167.244C253.875 167.808 254.943 168.144 256.227 168.144ZM265.226 167.124C264.842 167.34 264.422 167.448 263.954 167.448C263.138 167.448 262.754 167.1 262.754 166.308V162.66H265.286V162.024H262.754V159.84H261.986V162.024H260.234V162.66H261.986V166.38C261.986 167.556 262.634 168.144 263.894 168.144C264.482 168.144 264.986 168.024 265.454 167.772L265.226 167.124ZM60.34 182.124C59.956 182.34 59.536 182.448 59.068 182.448C58.252 182.448 57.868 182.1 57.868 181.308V177.66H60.4V177.024H57.868V174.84H57.1V177.024H55.348V177.66H57.1V181.38C57.1 182.556 57.748 183.144 59.008 183.144C59.596 183.144 60.1 183.024 60.568 182.772L60.34 182.124ZM65.8952 176.88C64.8152 176.88 63.9032 177.336 63.1592 178.248V174.48H62.3912V183H63.1592V178.908C63.8432 178.056 64.6952 177.576 65.7032 177.576C66.8432 177.576 67.4552 178.188 67.4552 179.328V183H68.2232V179.208C68.2232 177.732 67.3592 176.88 65.8952 176.88ZM74.083 176.88C72.895 176.88 72.019 177.384 71.299 178.356V177.024H70.531V183H71.299V179.016C72.043 178.08 72.907 177.636 73.975 177.636C74.143 177.636 74.371 177.648 74.527 177.684L74.575 176.916C74.443 176.892 74.263 176.88 74.083 176.88ZM79.1499 183.144C81.1299 183.144 82.4739 181.872 82.4739 180.012C82.4739 178.14 81.1299 176.88 79.1499 176.88C77.1579 176.88 75.8259 178.14 75.8259 180.012C75.8259 181.872 77.1579 183.144 79.1499 183.144ZM79.1499 182.448C77.6259 182.448 76.6059 181.452 76.6059 180.012C76.6059 178.56 77.6259 177.576 79.1499 177.576C80.6619 177.576 81.6819 178.56 81.6819 180.012C81.6819 181.452 80.6619 182.448 79.1499 182.448ZM92.7274 177.024L90.8554 181.992L88.9474 177.024H88.2274L86.3314 181.992L84.4594 177.024H83.6434L85.9234 183H86.6914L88.5754 178.032L90.4594 183H91.2274L93.5194 177.024H92.7274ZM98.7827 176.88C97.7027 176.88 96.7907 177.336 96.0467 178.248V177.024H95.2787V183H96.0467V178.908C96.7307 178.056 97.5827 177.576 98.5907 177.576C99.7307 177.576 100.343 178.188 100.343 179.328V183H101.111V179.208C101.111 177.732 100.247 176.88 98.7827 176.88ZM112.392 177.024L110.076 181.968L107.508 177.024H106.644L109.644 182.772L109.236 183.636C108.864 184.428 108.516 184.728 107.844 184.728C107.484 184.728 107.148 184.656 106.908 184.524L106.692 185.172C106.992 185.328 107.388 185.424 107.892 185.424C108.876 185.424 109.428 185.016 109.944 183.924L113.208 177.024H112.392ZM117.541 183.144C119.521 183.144 120.865 181.872 120.865 180.012C120.865 178.14 119.521 176.88 117.541 176.88C115.549 176.88 114.217 178.14 114.217 180.012C114.217 181.872 115.549 183.144 117.541 183.144ZM117.541 182.448C116.017 182.448 114.997 181.452 114.997 180.012C114.997 178.56 116.017 177.576 117.541 177.576C119.053 177.576 120.073 178.56 120.073 180.012C120.073 181.452 119.053 182.448 117.541 182.448ZM127.837 177.024V181.104C127.153 181.956 126.301 182.448 125.293 182.448C124.153 182.448 123.541 181.824 123.541 180.684V177.024H122.773V180.816C122.773 182.292 123.637 183.144 125.101 183.144C126.181 183.144 127.093 182.676 127.837 181.764V183H128.605V177.024H127.837ZM134.573 176.88C133.385 176.88 132.509 177.384 131.789 178.356V177.024H131.021V183H131.789V179.016C132.533 178.08 133.397 177.636 134.465 177.636C134.633 177.636 134.861 177.648 135.017 177.684L135.065 176.916C134.933 176.892 134.753 176.88 134.573 176.88ZM143.727 183.144C144.639 183.144 145.431 182.916 146.139 182.412L145.815 181.776C145.179 182.232 144.543 182.448 143.775 182.448C142.143 182.448 141.099 181.5 141.099 180.012C141.099 178.536 142.131 177.576 143.679 177.576C144.387 177.576 145.047 177.756 145.611 178.152L145.911 177.516C145.275 177.084 144.519 176.88 143.667 176.88C141.651 176.88 140.307 178.116 140.307 180.024C140.307 181.908 141.627 183.144 143.727 183.144ZM150.88 183.144C152.86 183.144 154.204 181.872 154.204 180.012C154.204 178.14 152.86 176.88 150.88 176.88C148.888 176.88 147.556 178.14 147.556 180.012C147.556 181.872 148.888 183.144 150.88 183.144ZM150.88 182.448C149.356 182.448 148.336 181.452 148.336 180.012C148.336 178.56 149.356 177.576 150.88 177.576C152.392 177.576 153.412 178.56 153.412 180.012C153.412 181.452 152.392 182.448 150.88 182.448ZM163.661 176.88C162.629 176.88 161.837 177.408 161.213 178.248C160.949 177.372 160.289 176.88 159.341 176.88C158.405 176.88 157.625 177.336 156.989 178.248V177.024H156.221V183H156.989V178.908C157.565 178.056 158.273 177.576 159.125 177.576C160.073 177.576 160.577 178.188 160.577 179.328V183H161.345V179.208C161.345 179.052 161.333 178.908 161.321 178.764C161.897 178.008 162.593 177.576 163.445 177.576C164.453 177.576 164.945 178.188 164.945 179.328V183H165.713V179.208C165.713 177.732 164.981 176.88 163.661 176.88ZM171.353 176.88C170.321 176.88 169.469 177.336 168.797 178.248V177.024H168.029V185.28H168.797V181.764C169.469 182.688 170.321 183.144 171.353 183.144C173.117 183.144 174.329 181.86 174.329 180.012C174.329 178.164 173.117 176.88 171.353 176.88ZM171.245 182.448C170.297 182.448 169.433 181.968 168.797 181.092V178.932C169.433 178.044 170.297 177.576 171.245 177.576C172.625 177.576 173.549 178.548 173.549 180.012C173.549 181.464 172.625 182.448 171.245 182.448ZM181.324 177.024V181.104C180.64 181.956 179.788 182.448 178.78 182.448C177.64 182.448 177.028 181.824 177.028 180.684V177.024H176.26V180.816C176.26 182.292 177.124 183.144 178.588 183.144C179.668 183.144 180.58 182.676 181.324 181.764V183H182.092V177.024H181.324ZM188.792 182.124C188.408 182.34 187.988 182.448 187.52 182.448C186.704 182.448 186.32 182.1 186.32 181.308V177.66H188.852V177.024H186.32V174.84H185.552V177.024H183.8V177.66H185.552V181.38C185.552 182.556 186.2 183.144 187.46 183.144C188.048 183.144 188.552 183.024 189.02 182.772L188.792 182.124ZM197.047 180.24V180.012C197.047 178.14 195.727 176.88 193.759 176.88C191.791 176.88 190.459 178.14 190.459 180.012C190.459 181.92 191.839 183.144 194.035 183.144C195.103 183.144 195.991 182.868 196.723 182.292L196.411 181.668C195.727 182.208 194.995 182.448 194.083 182.448C192.415 182.448 191.347 181.62 191.251 180.24H197.047ZM193.783 177.576C195.139 177.576 196.111 178.368 196.291 179.592H191.263C191.443 178.368 192.415 177.576 193.783 177.576ZM202.546 176.88C201.358 176.88 200.482 177.384 199.762 178.356V177.024H198.994V183H199.762V179.016C200.506 178.08 201.37 177.636 202.438 177.636C202.606 177.636 202.834 177.648 202.99 177.684L203.038 176.916C202.906 176.892 202.726 176.88 202.546 176.88ZM211.605 183.144C213.585 183.144 214.929 181.872 214.929 180.012C214.929 178.14 213.585 176.88 211.605 176.88C209.613 176.88 208.281 178.14 208.281 180.012C208.281 181.872 209.613 183.144 211.605 183.144ZM211.605 182.448C210.081 182.448 209.061 181.452 209.061 180.012C209.061 178.56 210.081 177.576 211.605 177.576C213.117 177.576 214.137 178.56 214.137 180.012C214.137 181.452 213.117 182.448 211.605 182.448ZM221.901 177.024V181.104C221.217 181.956 220.365 182.448 219.357 182.448C218.217 182.448 217.605 181.824 217.605 180.684V177.024H216.837V180.816C216.837 182.292 217.701 183.144 219.165 183.144C220.245 183.144 221.157 182.676 221.901 181.764V183H222.669V177.024H221.901ZM229.369 182.124C228.985 182.34 228.565 182.448 228.097 182.448C227.281 182.448 226.897 182.1 226.897 181.308V177.66H229.429V177.024H226.897V174.84H226.129V177.024H224.377V177.66H226.129V181.38C226.129 182.556 226.777 183.144 228.037 183.144C228.625 183.144 229.129 183.024 229.597 182.772L229.369 182.124ZM239.602 182.124C239.218 182.34 238.798 182.448 238.33 182.448C237.514 182.448 237.13 182.1 237.13 181.308V177.66H239.662V177.024H237.13V174.84H236.362V177.024H234.61V177.66H236.362V181.38C236.362 182.556 237.01 183.144 238.27 183.144C238.858 183.144 239.362 183.024 239.83 182.772L239.602 182.124ZM245.157 176.88C244.077 176.88 243.165 177.336 242.421 178.248V174.48H241.653V183H242.421V178.908C243.105 178.056 243.957 177.576 244.965 177.576C246.105 177.576 246.717 178.188 246.717 179.328V183H247.485V179.208C247.485 177.732 246.621 176.88 245.157 176.88ZM255.997 180.24V180.012C255.997 178.14 254.677 176.88 252.709 176.88C250.741 176.88 249.409 178.14 249.409 180.012C249.409 181.92 250.789 183.144 252.985 183.144C254.053 183.144 254.941 182.868 255.673 182.292L255.361 181.668C254.677 182.208 253.945 182.448 253.033 182.448C251.365 182.448 250.297 181.62 250.201 180.24H255.997ZM252.733 177.576C254.089 177.576 255.061 178.368 255.241 179.592H250.213C250.393 178.368 251.365 177.576 252.733 177.576ZM270.29 177.024L268.418 181.992L266.51 177.024H265.79L263.894 181.992L262.022 177.024H261.206L263.486 183H264.254L266.138 178.032L268.022 183H268.79L271.082 177.024H270.29ZM273.225 175.752C273.573 175.752 273.801 175.524 273.801 175.2C273.801 174.876 273.573 174.648 273.225 174.648C272.877 174.648 272.649 174.876 272.649 175.2C272.649 175.524 272.877 175.752 273.225 175.752ZM272.841 183H273.609V177.024H272.841V183ZM279.528 176.88C278.448 176.88 277.536 177.336 276.792 178.248V177.024H276.024V183H276.792V178.908C277.476 178.056 278.328 177.576 279.336 177.576C280.476 177.576 281.088 178.188 281.088 179.328V183H281.856V179.208C281.856 177.732 280.992 176.88 279.528 176.88ZM289.336 174.48V178.248C288.652 177.336 287.8 176.88 286.768 176.88C285.016 176.88 283.792 178.164 283.792 180.012C283.792 181.86 285.016 183.144 286.768 183.144C287.8 183.144 288.652 182.688 289.336 181.764V183H290.104V174.48H289.336ZM289.336 181.092C288.688 181.968 287.836 182.448 286.888 182.448C285.496 182.448 284.584 181.464 284.584 180.012C284.584 178.548 285.496 177.576 286.888 177.576C287.836 177.576 288.688 178.044 289.336 178.932V181.092ZM295.443 183.144C297.423 183.144 298.767 181.872 298.767 180.012C298.767 178.14 297.423 176.88 295.443 176.88C293.451 176.88 292.119 178.14 292.119 180.012C292.119 181.872 293.451 183.144 295.443 183.144ZM295.443 182.448C293.919 182.448 292.899 181.452 292.899 180.012C292.899 178.56 293.919 177.576 295.443 177.576C296.955 177.576 297.975 178.56 297.975 180.012C297.975 181.452 296.955 182.448 295.443 182.448ZM309.02 177.024L307.148 181.992L305.24 177.024H304.52L302.624 181.992L300.752 177.024H299.936L302.216 183H302.984L304.868 178.032L306.752 183H307.52L309.812 177.024H309.02ZM311.339 181.968C311.015 181.968 310.763 182.22 310.763 182.556C310.763 182.868 311.015 183.096 311.339 183.096C311.375 183.096 311.399 183.096 311.435 183.084C311.399 183.672 311.063 184.152 310.559 184.32L310.691 184.704C311.459 184.488 311.975 183.72 311.975 182.784C311.975 182.268 311.735 181.968 311.339 181.968ZM61.132 192.024L58.816 196.968L56.248 192.024H55.384L58.384 197.772L57.976 198.636C57.604 199.428 57.256 199.728 56.584 199.728C56.224 199.728 55.888 199.656 55.648 199.524L55.432 200.172C55.732 200.328 56.128 200.424 56.632 200.424C57.616 200.424 58.168 200.016 58.684 198.924L61.948 192.024H61.132ZM66.2804 198.144C68.2604 198.144 69.6044 196.872 69.6044 195.012C69.6044 193.14 68.2604 191.88 66.2804 191.88C64.2884 191.88 62.9564 193.14 62.9564 195.012C62.9564 196.872 64.2884 198.144 66.2804 198.144ZM66.2804 197.448C64.7564 197.448 63.7364 196.452 63.7364 195.012C63.7364 193.56 64.7564 192.576 66.2804 192.576C67.7924 192.576 68.8124 193.56 68.8124 195.012C68.8124 196.452 67.7924 197.448 66.2804 197.448ZM76.5768 192.024V196.104C75.8928 196.956 75.0408 197.448 74.0328 197.448C72.8928 197.448 72.2808 196.824 72.2808 195.684V192.024H71.5128V195.816C71.5128 197.292 72.3768 198.144 73.8408 198.144C74.9208 198.144 75.8328 197.676 76.5768 196.764V198H77.3448V192.024H76.5768ZM88.8303 189.48V193.248C88.1463 192.336 87.2943 191.88 86.2623 191.88C84.5103 191.88 83.2863 193.164 83.2863 195.012C83.2863 196.86 84.5103 198.144 86.2623 198.144C87.2943 198.144 88.1463 197.688 88.8303 196.764V198H89.5983V189.48H88.8303ZM88.8303 196.092C88.1823 196.968 87.3303 197.448 86.3823 197.448C84.9903 197.448 84.0783 196.464 84.0783 195.012C84.0783 193.548 84.9903 192.576 86.3823 192.576C87.3303 192.576 88.1823 193.044 88.8303 193.932V196.092ZM98.2014 195.24V195.012C98.2014 193.14 96.8814 191.88 94.9134 191.88C92.9454 191.88 91.6134 193.14 91.6134 195.012C91.6134 196.92 92.9934 198.144 95.1894 198.144C96.2574 198.144 97.1454 197.868 97.8774 197.292L97.5654 196.668C96.8814 197.208 96.1494 197.448 95.2374 197.448C93.5694 197.448 92.5014 196.62 92.4054 195.24H98.2014ZM94.9374 192.576C96.2934 192.576 97.2654 193.368 97.4454 194.592H92.4174C92.5974 193.368 93.5694 192.576 94.9374 192.576ZM102.765 198.144C104.613 198.144 105.669 197.484 105.669 196.32C105.669 195.216 104.937 194.772 102.909 194.628C101.169 194.508 100.677 194.28 100.677 193.632C100.677 192.972 101.397 192.552 102.597 192.552C103.533 192.552 104.373 192.792 104.961 193.224L105.285 192.612C104.589 192.12 103.677 191.88 102.645 191.88C100.965 191.88 99.897 192.564 99.897 193.668C99.897 194.772 100.617 195.216 102.669 195.36C104.397 195.48 104.889 195.696 104.889 196.356C104.889 197.052 104.109 197.46 102.777 197.46C101.649 197.46 100.737 197.16 99.981 196.632L99.621 197.244C100.413 197.808 101.481 198.144 102.765 198.144ZM113.79 195.24V195.012C113.79 193.14 112.47 191.88 110.502 191.88C108.534 191.88 107.202 193.14 107.202 195.012C107.202 196.92 108.582 198.144 110.778 198.144C111.846 198.144 112.734 197.868 113.466 197.292L113.154 196.668C112.47 197.208 111.738 197.448 110.826 197.448C109.158 197.448 108.09 196.62 107.994 195.24H113.79ZM110.526 192.576C111.882 192.576 112.854 193.368 113.034 194.592H108.006C108.186 193.368 109.158 192.576 110.526 192.576ZM119.289 191.88C118.101 191.88 117.225 192.384 116.505 193.356V192.024H115.737V198H116.505V194.016C117.249 193.08 118.113 192.636 119.181 192.636C119.349 192.636 119.577 192.648 119.733 192.684L119.781 191.916C119.649 191.892 119.469 191.88 119.289 191.88ZM126.645 192.024L124.185 197.124L121.713 192.024H120.861L123.777 198H124.557L127.461 192.024H126.645ZM135.057 195.24V195.012C135.057 193.14 133.737 191.88 131.769 191.88C129.801 191.88 128.469 193.14 128.469 195.012C128.469 196.92 129.849 198.144 132.045 198.144C133.113 198.144 134.001 197.868 134.733 197.292L134.421 196.668C133.737 197.208 133.005 197.448 132.093 197.448C130.425 197.448 129.357 196.62 129.261 195.24H135.057ZM131.793 192.576C133.149 192.576 134.121 193.368 134.301 194.592H129.273C129.453 193.368 130.425 192.576 131.793 192.576ZM143.518 198.144C145.366 198.144 146.422 197.484 146.422 196.32C146.422 195.216 145.69 194.772 143.662 194.628C141.922 194.508 141.43 194.28 141.43 193.632C141.43 192.972 142.15 192.552 143.35 192.552C144.286 192.552 145.126 192.792 145.714 193.224L146.038 192.612C145.342 192.12 144.43 191.88 143.398 191.88C141.718 191.88 140.65 192.564 140.65 193.668C140.65 194.772 141.37 195.216 143.422 195.36C145.15 195.48 145.642 195.696 145.642 196.356C145.642 197.052 144.862 197.46 143.53 197.46C142.402 197.46 141.49 197.16 140.734 196.632L140.374 197.244C141.166 197.808 142.234 198.144 143.518 198.144ZM151.279 198.144C153.259 198.144 154.603 196.872 154.603 195.012C154.603 193.14 153.259 191.88 151.279 191.88C149.287 191.88 147.955 193.14 147.955 195.012C147.955 196.872 149.287 198.144 151.279 198.144ZM151.279 197.448C149.755 197.448 148.735 196.452 148.735 195.012C148.735 193.56 149.755 192.576 151.279 192.576C152.791 192.576 153.811 193.56 153.811 195.012C153.811 196.452 152.791 197.448 151.279 197.448ZM164.059 191.88C163.027 191.88 162.235 192.408 161.611 193.248C161.347 192.372 160.687 191.88 159.739 191.88C158.803 191.88 158.023 192.336 157.387 193.248V192.024H156.619V198H157.387V193.908C157.963 193.056 158.671 192.576 159.523 192.576C160.471 192.576 160.975 193.188 160.975 194.328V198H161.743V194.208C161.743 194.052 161.731 193.908 161.719 193.764C162.295 193.008 162.991 192.576 163.843 192.576C164.851 192.576 165.343 193.188 165.343 194.328V198H166.111V194.208C166.111 192.732 165.379 191.88 164.059 191.88ZM174.631 195.24V195.012C174.631 193.14 173.311 191.88 171.343 191.88C169.375 191.88 168.043 193.14 168.043 195.012C168.043 196.92 169.423 198.144 171.619 198.144C172.687 198.144 173.575 197.868 174.307 197.292L173.995 196.668C173.311 197.208 172.579 197.448 171.667 197.448C169.999 197.448 168.931 196.62 168.835 195.24H174.631ZM171.367 192.576C172.723 192.576 173.695 193.368 173.875 194.592H168.847C169.027 193.368 169.999 192.576 171.367 192.576ZM182.312 191.292C182.312 190.44 182.708 190.032 183.548 190.032C183.98 190.032 184.376 190.14 184.784 190.356L185.012 189.708C184.544 189.456 184.04 189.336 183.488 189.336C182.216 189.336 181.544 189.972 181.544 191.22V192.024H179.792V192.66H181.544V198H182.312V192.66H184.844V192.024H182.312V191.292ZM191.533 192.024V196.104C190.849 196.956 189.997 197.448 188.989 197.448C187.849 197.448 187.237 196.824 187.237 195.684V192.024H186.469V195.816C186.469 197.292 187.333 198.144 188.797 198.144C189.877 198.144 190.789 197.676 191.533 196.764V198H192.301V192.024H191.533ZM198.221 191.88C197.141 191.88 196.229 192.336 195.485 193.248V192.024H194.717V198H195.485V193.908C196.169 193.056 197.021 192.576 198.029 192.576C199.169 192.576 199.781 193.188 199.781 194.328V198H200.549V194.208C200.549 192.732 199.685 191.88 198.221 191.88ZM203.445 198.144C203.793 198.144 204.045 197.904 204.045 197.556C204.045 197.208 203.793 196.968 203.445 196.968C203.097 196.968 202.845 197.208 202.845 197.556C202.845 197.904 203.097 198.144 203.445 198.144Z" fill="black"/>
<defs>
<filter id="filter0_dddd" x="0" y="0" width="370" height="334" filterUnits="userSpaceOnUse" color-interpolation-filters="sRGB">
<feFlood flood-opacity="0" result="BackgroundImageFix"/>
<feColorMatrix in="SourceAlpha" type="matrix" values="0 0 0 0 0 0 0 0 0 0 0 0 0 0 0 0 0 0 127 0"/>
<feOffset dx="-10" dy="-10"/>
<feGaussianBlur stdDeviation="10"/>
<feColorMatrix type="matrix" values="0 0 0 0 1 0 0 0 0 1 0 0 0 0 1 0 0 0 1 0"/>
<feBlend mode="normal" in2="BackgroundImageFix" result="effect1_dropShadow"/>
<feColorMatrix in="SourceAlpha" type="matrix" values="0 0 0 0 0 0 0 0 0 0 0 0 0 0 0 0 0 0 127 0"/>
<feOffset dx="10" dy="10"/>
<feGaussianBlur stdDeviation="10"/>
<feColorMatrix type="matrix" values="0 0 0 0 0.666667 0 0 0 0 0.666667 0 0 0 0 0.8 0 0 0 0.5 0"/>
<feBlend mode="normal" in2="effect1_dropShadow" result="effect2_dropShadow"/>
<feColorMatrix in="SourceAlpha" type="matrix" values="0 0 0 0 0 0 0 0 0 0 0 0 0 0 0 0 0 0 127 0"/>
<feOffset dx="5" dy="5"/>
<feGaussianBlur stdDeviation="5"/>
<feColorMatrix type="matrix" values="0 0 0 0 0.666667 0 0 0 0 0.666667 0 0 0 0 0.8 0 0 0 0.25 0"/>
<feBlend mode="normal" in2="effect2_dropShadow" result="effect3_dropShadow"/>
<feColorMatrix in="SourceAlpha" type="matrix" values="0 0 0 0 0 0 0 0 0 0 0 0 0 0 0 0 0 0 127 0"/>
<feOffset dx="-5" dy="-5"/>
<feGaussianBlur stdDeviation="5"/>
<feColorMatrix type="matrix" values="0 0 0 0 1 0 0 0 0 1 0 0 0 0 1 0 0 0 0.5 0"/>
<feBlend mode="normal" in2="effect3_dropShadow" result="effect4_dropShadow"/>
<feBlend mode="normal" in="SourceGraphic" in2="effect4_dropShadow" result="shape"/>
</filter>
</defs>
</svg>
