<svg width="370" height="334" viewBox="0 0 370 334" fill="none" xmlns="http://www.w3.org/2000/svg">
<g filter="url(#filter0_dddd)">
<rect x="30" y="30" width="310" height="274" rx="39" fill="#F8F8F8"/>
</g>
<path d="M49.3057 108.276C49.71 108.03 50.0557 107.772 50.3428 107.503C50.6357 107.233 50.876 106.935 51.0635 106.606C51.251 106.284 51.3887 105.924 51.4766 105.525C51.5645 105.121 51.6084 104.664 51.6084 104.154V92.2627H54.3945V103.653C54.3945 104.263 54.3682 104.819 54.3154 105.323C54.2627 105.821 54.1748 106.278 54.0518 106.694C53.9346 107.116 53.7734 107.503 53.5684 107.854C53.3691 108.206 53.1201 108.54 52.8213 108.856C52.5283 109.173 52.1797 109.478 51.7754 109.771C51.377 110.063 50.9141 110.359 50.3867 110.658L49.3057 108.276ZM57.0137 100.814C57.0137 100.07 57.1631 99.373 57.4619 98.7227C57.7666 98.0723 58.1973 97.5039 58.7539 97.0176C59.3164 96.5312 59.9932 96.1475 60.7842 95.8662C61.5811 95.585 62.4746 95.4443 63.4648 95.4443C64.4551 95.4443 65.3457 95.585 66.1367 95.8662C66.9336 96.1475 67.6104 96.5312 68.167 97.0176C68.7295 97.5039 69.1602 98.0723 69.459 98.7227C69.7637 99.373 69.916 100.07 69.916 100.814C69.916 101.559 69.7637 102.256 69.459 102.906C69.1602 103.557 68.7295 104.125 68.167 104.611C67.6104 105.098 66.9336 105.481 66.1367 105.763C65.3457 106.044 64.4551 106.185 63.4648 106.185C62.4746 106.185 61.5811 106.044 60.7842 105.763C59.9932 105.481 59.3164 105.098 58.7539 104.611C58.1973 104.125 57.7666 103.557 57.4619 102.906C57.1631 102.256 57.0137 101.559 57.0137 100.814ZM59.7471 100.814C59.7471 101.23 59.8291 101.626 59.9932 102.001C60.1631 102.37 60.4062 102.698 60.7227 102.985C61.0449 103.267 61.4346 103.492 61.8916 103.662C62.3545 103.826 62.8789 103.908 63.4648 103.908C64.0508 103.908 64.5723 103.826 65.0293 103.662C65.4922 103.492 65.8818 103.267 66.1982 102.985C66.5205 102.698 66.7637 102.37 66.9277 102.001C67.0977 101.626 67.1826 101.23 67.1826 100.814C67.1826 100.398 67.0977 100.003 66.9277 99.6279C66.7637 99.2529 66.5205 98.9248 66.1982 98.6436C65.8818 98.3564 65.4922 98.1309 65.0293 97.9668C64.5723 97.7969 64.0508 97.7119 63.4648 97.7119C62.8789 97.7119 62.3545 97.7969 61.8916 97.9668C61.4346 98.1309 61.0449 98.3564 60.7227 98.6436C60.4062 98.9248 60.1631 99.2529 59.9932 99.6279C59.8291 100.003 59.7471 100.398 59.7471 100.814ZM73.915 94.2139C73.6572 94.2139 73.4229 94.1787 73.2119 94.1084C73.0068 94.0322 72.8311 93.9326 72.6846 93.8096C72.5381 93.6807 72.4238 93.5342 72.3418 93.3701C72.2656 93.2002 72.2275 93.0215 72.2275 92.834C72.2275 92.6406 72.2656 92.4619 72.3418 92.2979C72.4238 92.1279 72.5381 91.9814 72.6846 91.8584C72.8311 91.7354 73.0068 91.6387 73.2119 91.5684C73.4229 91.4922 73.6572 91.4541 73.915 91.4541C74.1787 91.4541 74.4131 91.4922 74.6182 91.5684C74.8291 91.6387 75.0078 91.7354 75.1543 91.8584C75.3008 91.9814 75.4121 92.1279 75.4883 92.2979C75.5703 92.4619 75.6113 92.6406 75.6113 92.834C75.6113 93.0215 75.5703 93.2002 75.4883 93.3701C75.4121 93.5342 75.3008 93.6807 75.1543 93.8096C75.0078 93.9326 74.8291 94.0322 74.6182 94.1084C74.4131 94.1787 74.1787 94.2139 73.915 94.2139ZM72.6143 95.6289H75.2158V106H72.6143V95.6289ZM78.5557 95.6289H81.1572V96.5078C81.8486 96.1152 82.5078 95.8398 83.1348 95.6816C83.7676 95.5234 84.3857 95.4443 84.9893 95.4443C85.7803 95.4443 86.5127 95.5615 87.1865 95.7959C87.8604 96.0244 88.4434 96.3672 88.9355 96.8242C89.4277 97.2812 89.8115 97.8525 90.0869 98.5381C90.3682 99.2178 90.5088 100.006 90.5088 100.902V106H87.916V101.324C87.916 100.756 87.834 100.249 87.6699 99.8037C87.5117 99.3525 87.2803 98.9746 86.9756 98.6699C86.6768 98.3594 86.3105 98.125 85.877 97.9668C85.4492 97.8027 84.9688 97.7207 84.4355 97.7207C84.1543 97.7207 83.8643 97.75 83.5654 97.8086C83.2725 97.8672 82.9824 97.9521 82.6953 98.0635C82.4141 98.1689 82.1416 98.3037 81.8779 98.4678C81.6143 98.626 81.374 98.8076 81.1572 99.0127V106H78.5557V95.6289ZM100.01 92.2627H102.796V103.557H110.785V106H100.01V92.2627ZM114.538 94.2139C114.28 94.2139 114.046 94.1787 113.835 94.1084C113.63 94.0322 113.454 93.9326 113.308 93.8096C113.161 93.6807 113.047 93.5342 112.965 93.3701C112.889 93.2002 112.851 93.0215 112.851 92.834C112.851 92.6406 112.889 92.4619 112.965 92.2979C113.047 92.1279 113.161 91.9814 113.308 91.8584C113.454 91.7354 113.63 91.6387 113.835 91.5684C114.046 91.4922 114.28 91.4541 114.538 91.4541C114.802 91.4541 115.036 91.4922 115.241 91.5684C115.452 91.6387 115.631 91.7354 115.777 91.8584C115.924 91.9814 116.035 92.1279 116.111 92.2979C116.193 92.4619 116.234 92.6406 116.234 92.834C116.234 93.0215 116.193 93.2002 116.111 93.3701C116.035 93.5342 115.924 93.6807 115.777 93.8096C115.631 93.9326 115.452 94.0322 115.241 94.1084C115.036 94.1787 114.802 94.2139 114.538 94.2139ZM113.237 95.6289H115.839V106H113.237V95.6289ZM117.746 95.6201H120.761L123.459 101.86L124.162 103.609L124.865 101.86L127.563 95.6201H130.578L125.665 106H122.659L117.746 95.6201ZM131.905 100.779C131.905 100.076 132.049 99.4053 132.336 98.7666C132.623 98.1221 133.036 97.5537 133.575 97.0615C134.114 96.5693 134.773 96.1768 135.553 95.8838C136.338 95.5908 137.229 95.4443 138.225 95.4443C139.215 95.4443 140.105 95.5938 140.896 95.8926C141.693 96.1855 142.367 96.5898 142.918 97.1055C143.475 97.6211 143.899 98.2275 144.192 98.9248C144.491 99.6221 144.641 100.369 144.641 101.166C144.641 101.266 144.638 101.374 144.632 101.491C144.632 101.603 144.626 101.705 144.614 101.799H134.806C134.917 102.109 135.096 102.394 135.342 102.651C135.594 102.909 135.907 103.132 136.282 103.319C136.657 103.507 137.091 103.653 137.583 103.759C138.075 103.858 138.62 103.908 139.218 103.908C139.815 103.908 140.41 103.847 141.002 103.724C141.594 103.595 142.159 103.434 142.698 103.24L143.577 105.227C143.237 105.385 142.892 105.525 142.54 105.648C142.194 105.766 141.831 105.865 141.45 105.947C141.075 106.023 140.68 106.082 140.264 106.123C139.854 106.164 139.42 106.185 138.963 106.185C137.797 106.185 136.774 106.044 135.896 105.763C135.017 105.481 134.281 105.098 133.689 104.611C133.098 104.125 132.652 103.554 132.354 102.897C132.055 102.241 131.905 101.535 131.905 100.779ZM141.881 99.7686C141.787 99.4814 141.641 99.2148 141.441 98.9688C141.248 98.7168 141.005 98.5 140.712 98.3184C140.419 98.1309 140.079 97.9844 139.692 97.8789C139.306 97.7734 138.881 97.7207 138.418 97.7207C137.926 97.7207 137.478 97.7764 137.073 97.8877C136.669 97.999 136.314 98.1484 136.01 98.3359C135.705 98.5234 135.45 98.7402 135.245 98.9863C135.046 99.2324 134.899 99.4932 134.806 99.7686H141.881ZM152.911 99.0479C152.911 98.0693 153.096 97.1582 153.465 96.3145C153.834 95.4648 154.367 94.7295 155.064 94.1084C155.768 93.4814 156.623 92.9893 157.631 92.6318C158.645 92.2744 159.79 92.0957 161.067 92.0957C162.187 92.0957 163.212 92.21 164.144 92.4385C165.081 92.6611 165.951 93.0039 166.754 93.4668L165.471 95.5762C165.23 95.418 164.952 95.2773 164.636 95.1543C164.325 95.0312 163.991 94.9287 163.634 94.8467C163.282 94.7588 162.916 94.6914 162.535 94.6445C162.16 94.5977 161.788 94.5742 161.419 94.5742C160.528 94.5742 159.734 94.6855 159.037 94.9082C158.34 95.125 157.751 95.4326 157.271 95.8311C156.796 96.2236 156.433 96.6953 156.181 97.2461C155.935 97.791 155.812 98.3916 155.812 99.0479C155.812 99.7275 155.94 100.352 156.198 100.92C156.456 101.488 156.828 101.98 157.314 102.396C157.807 102.807 158.404 103.129 159.107 103.363C159.816 103.592 160.616 103.706 161.507 103.706C161.911 103.706 162.312 103.677 162.711 103.618C163.109 103.56 163.493 103.48 163.862 103.381C164.237 103.275 164.598 103.152 164.943 103.012C165.289 102.865 165.611 102.707 165.91 102.537L167.193 104.646C166.443 105.127 165.576 105.505 164.592 105.78C163.607 106.05 162.562 106.185 161.454 106.185C160.042 106.185 158.803 106.003 157.736 105.64C156.67 105.271 155.779 104.767 155.064 104.128C154.35 103.483 153.811 102.728 153.447 101.86C153.09 100.987 152.911 100.05 152.911 99.0479ZM169.32 100.814C169.32 100.07 169.47 99.373 169.769 98.7227C170.073 98.0723 170.504 97.5039 171.061 97.0176C171.623 96.5312 172.3 96.1475 173.091 95.8662C173.888 95.585 174.781 95.4443 175.771 95.4443C176.762 95.4443 177.652 95.585 178.443 95.8662C179.24 96.1475 179.917 96.5312 180.474 97.0176C181.036 97.5039 181.467 98.0723 181.766 98.7227C182.07 99.373 182.223 100.07 182.223 100.814C182.223 101.559 182.07 102.256 181.766 102.906C181.467 103.557 181.036 104.125 180.474 104.611C179.917 105.098 179.24 105.481 178.443 105.763C177.652 106.044 176.762 106.185 175.771 106.185C174.781 106.185 173.888 106.044 173.091 105.763C172.3 105.481 171.623 105.098 171.061 104.611C170.504 104.125 170.073 103.557 169.769 102.906C169.47 102.256 169.32 101.559 169.32 100.814ZM172.054 100.814C172.054 101.23 172.136 101.626 172.3 102.001C172.47 102.37 172.713 102.698 173.029 102.985C173.352 103.267 173.741 103.492 174.198 103.662C174.661 103.826 175.186 103.908 175.771 103.908C176.357 103.908 176.879 103.826 177.336 103.662C177.799 103.492 178.188 103.267 178.505 102.985C178.827 102.698 179.07 102.37 179.234 102.001C179.404 101.626 179.489 101.23 179.489 100.814C179.489 100.398 179.404 100.003 179.234 99.6279C179.07 99.2529 178.827 98.9248 178.505 98.6436C178.188 98.3564 177.799 98.1309 177.336 97.9668C176.879 97.7969 176.357 97.7119 175.771 97.7119C175.186 97.7119 174.661 97.7969 174.198 97.9668C173.741 98.1309 173.352 98.3564 173.029 98.6436C172.713 98.9248 172.47 99.2529 172.3 99.6279C172.136 100.003 172.054 100.398 172.054 100.814ZM184.921 91.4189H187.522V106H184.921V91.4189ZM190.933 91.4189H193.534V106H190.933V91.4189ZM196.382 102.73C196.382 102.232 196.49 101.778 196.707 101.368C196.924 100.958 197.249 100.606 197.683 100.313C198.116 100.015 198.655 99.7861 199.3 99.6279C199.95 99.4639 200.706 99.3818 201.567 99.3818C202.206 99.3818 202.877 99.4287 203.58 99.5225C204.289 99.6162 205.019 99.7598 205.769 99.9531C205.739 99.625 205.64 99.3232 205.47 99.0479C205.3 98.7666 205.062 98.5264 204.758 98.3271C204.459 98.1221 204.096 97.9639 203.668 97.8525C203.246 97.7412 202.766 97.6855 202.227 97.6855C201.934 97.6855 201.611 97.7031 201.26 97.7383C200.908 97.7734 200.545 97.8262 200.17 97.8965C199.795 97.9668 199.423 98.0547 199.054 98.1602C198.69 98.2656 198.351 98.3916 198.034 98.5381L197.243 96.4023C197.636 96.2617 198.055 96.1328 198.5 96.0156C198.951 95.8984 199.411 95.7988 199.88 95.7168C200.349 95.6289 200.817 95.5615 201.286 95.5146C201.755 95.4678 202.209 95.4443 202.648 95.4443C204.588 95.4443 206.029 95.9395 206.973 96.9297C207.916 97.9199 208.388 99.4375 208.388 101.482V106H205.786V105.024C205.517 105.183 205.221 105.332 204.898 105.473C204.582 105.613 204.236 105.736 203.861 105.842C203.486 105.947 203.082 106.029 202.648 106.088C202.221 106.152 201.767 106.185 201.286 106.185C200.478 106.185 199.766 106.097 199.15 105.921C198.541 105.745 198.031 105.502 197.621 105.191C197.211 104.881 196.9 104.518 196.689 104.102C196.484 103.68 196.382 103.223 196.382 102.73ZM199.124 102.643C199.124 102.812 199.168 102.977 199.256 103.135C199.344 103.287 199.484 103.425 199.678 103.548C199.871 103.665 200.117 103.762 200.416 103.838C200.721 103.908 201.087 103.943 201.515 103.943C201.972 103.943 202.414 103.902 202.842 103.82C203.27 103.738 203.668 103.63 204.037 103.495C204.406 103.36 204.74 103.205 205.039 103.029C205.338 102.854 205.587 102.672 205.786 102.484V102.027C205.388 101.916 204.992 101.822 204.6 101.746C204.213 101.67 203.841 101.611 203.483 101.57C203.132 101.523 202.798 101.491 202.481 101.474C202.171 101.456 201.898 101.447 201.664 101.447C201.178 101.447 200.773 101.479 200.451 101.544C200.129 101.608 199.868 101.696 199.669 101.808C199.47 101.913 199.329 102.039 199.247 102.186C199.165 102.332 199.124 102.484 199.124 102.643ZM211.763 91.4189H214.364V96.6045C214.593 96.4463 214.862 96.2969 215.173 96.1562C215.483 96.0156 215.817 95.8926 216.175 95.7871C216.532 95.6816 216.901 95.5996 217.282 95.541C217.663 95.4766 218.044 95.4443 218.425 95.4443C219.304 95.4443 220.109 95.5732 220.842 95.8311C221.58 96.0889 222.213 96.4521 222.74 96.9209C223.268 97.3896 223.678 97.9521 223.971 98.6084C224.27 99.2588 224.419 99.9795 224.419 100.771C224.419 101.597 224.264 102.344 223.953 103.012C223.643 103.674 223.212 104.242 222.661 104.717C222.116 105.186 221.466 105.549 220.71 105.807C219.96 106.059 219.146 106.185 218.267 106.185C217.892 106.185 217.52 106.161 217.15 106.114C216.787 106.067 216.436 106.003 216.096 105.921C215.762 105.839 215.445 105.742 215.146 105.631C214.854 105.514 214.593 105.388 214.364 105.253V106H211.763V91.4189ZM214.364 102.739C214.628 102.95 214.906 103.129 215.199 103.275C215.492 103.422 215.791 103.542 216.096 103.636C216.4 103.729 216.708 103.8 217.019 103.847C217.329 103.888 217.631 103.908 217.924 103.908C218.521 103.908 219.052 103.829 219.515 103.671C219.983 103.507 220.376 103.284 220.692 103.003C221.015 102.722 221.261 102.391 221.431 102.01C221.601 101.629 221.686 101.216 221.686 100.771C221.686 100.354 221.601 99.9619 221.431 99.5928C221.267 99.2236 221.026 98.9014 220.71 98.626C220.399 98.3447 220.021 98.125 219.576 97.9668C219.137 97.8027 218.642 97.7207 218.091 97.7207C217.739 97.7207 217.388 97.7559 217.036 97.8262C216.685 97.8906 216.345 97.9844 216.017 98.1074C215.694 98.2305 215.39 98.3799 215.103 98.5557C214.821 98.7314 214.575 98.9277 214.364 99.1445V102.739ZM226.203 100.814C226.203 100.07 226.353 99.373 226.651 98.7227C226.956 98.0723 227.387 97.5039 227.943 97.0176C228.506 96.5312 229.183 96.1475 229.974 95.8662C230.771 95.585 231.664 95.4443 232.654 95.4443C233.645 95.4443 234.535 95.585 235.326 95.8662C236.123 96.1475 236.8 96.5312 237.356 97.0176C237.919 97.5039 238.35 98.0723 238.648 98.7227C238.953 99.373 239.105 100.07 239.105 100.814C239.105 101.559 238.953 102.256 238.648 102.906C238.35 103.557 237.919 104.125 237.356 104.611C236.8 105.098 236.123 105.481 235.326 105.763C234.535 106.044 233.645 106.185 232.654 106.185C231.664 106.185 230.771 106.044 229.974 105.763C229.183 105.481 228.506 105.098 227.943 104.611C227.387 104.125 226.956 103.557 226.651 102.906C226.353 102.256 226.203 101.559 226.203 100.814ZM228.937 100.814C228.937 101.23 229.019 101.626 229.183 102.001C229.353 102.37 229.596 102.698 229.912 102.985C230.234 103.267 230.624 103.492 231.081 103.662C231.544 103.826 232.068 103.908 232.654 103.908C233.24 103.908 233.762 103.826 234.219 103.662C234.682 103.492 235.071 103.267 235.388 102.985C235.71 102.698 235.953 102.37 236.117 102.001C236.287 101.626 236.372 101.23 236.372 100.814C236.372 100.398 236.287 100.003 236.117 99.6279C235.953 99.2529 235.71 98.9248 235.388 98.6436C235.071 98.3564 234.682 98.1309 234.219 97.9668C233.762 97.7969 233.24 97.7119 232.654 97.7119C232.068 97.7119 231.544 97.7969 231.081 97.9668C230.624 98.1309 230.234 98.3564 229.912 98.6436C229.596 98.9248 229.353 99.2529 229.183 99.6279C229.019 100.003 228.937 100.398 228.937 100.814ZM241.733 95.6289H244.335V97.123C244.909 96.6953 245.516 96.3262 246.154 96.0156C246.793 95.7051 247.429 95.4678 248.062 95.3037L248.826 97.6855C247.824 97.7852 246.942 98.0107 246.181 98.3623C245.425 98.708 244.81 99.1973 244.335 99.8301V106H241.733V95.6289ZM250.276 102.73C250.276 102.232 250.385 101.778 250.602 101.368C250.818 100.958 251.144 100.606 251.577 100.313C252.011 100.015 252.55 99.7861 253.194 99.6279C253.845 99.4639 254.601 99.3818 255.462 99.3818C256.101 99.3818 256.771 99.4287 257.475 99.5225C258.184 99.6162 258.913 99.7598 259.663 99.9531C259.634 99.625 259.534 99.3232 259.364 99.0479C259.194 98.7666 258.957 98.5264 258.652 98.3271C258.354 98.1221 257.99 97.9639 257.562 97.8525C257.141 97.7412 256.66 97.6855 256.121 97.6855C255.828 97.6855 255.506 97.7031 255.154 97.7383C254.803 97.7734 254.439 97.8262 254.064 97.8965C253.689 97.9668 253.317 98.0547 252.948 98.1602C252.585 98.2656 252.245 98.3916 251.929 98.5381L251.138 96.4023C251.53 96.2617 251.949 96.1328 252.395 96.0156C252.846 95.8984 253.306 95.7988 253.774 95.7168C254.243 95.6289 254.712 95.5615 255.181 95.5146C255.649 95.4678 256.104 95.4443 256.543 95.4443C258.482 95.4443 259.924 95.9395 260.867 96.9297C261.811 97.9199 262.282 99.4375 262.282 101.482V106H259.681V105.024C259.411 105.183 259.115 105.332 258.793 105.473C258.477 105.613 258.131 105.736 257.756 105.842C257.381 105.947 256.977 106.029 256.543 106.088C256.115 106.152 255.661 106.185 255.181 106.185C254.372 106.185 253.66 106.097 253.045 105.921C252.436 105.745 251.926 105.502 251.516 105.191C251.105 104.881 250.795 104.518 250.584 104.102C250.379 103.68 250.276 103.223 250.276 102.73ZM253.019 102.643C253.019 102.812 253.062 102.977 253.15 103.135C253.238 103.287 253.379 103.425 253.572 103.548C253.766 103.665 254.012 103.762 254.311 103.838C254.615 103.908 254.981 103.943 255.409 103.943C255.866 103.943 256.309 103.902 256.736 103.82C257.164 103.738 257.562 103.63 257.932 103.495C258.301 103.36 258.635 103.205 258.934 103.029C259.232 102.854 259.481 102.672 259.681 102.484V102.027C259.282 101.916 258.887 101.822 258.494 101.746C258.107 101.67 257.735 101.611 257.378 101.57C257.026 101.523 256.692 101.491 256.376 101.474C256.065 101.456 255.793 101.447 255.559 101.447C255.072 101.447 254.668 101.479 254.346 101.544C254.023 101.608 253.763 101.696 253.563 101.808C253.364 101.913 253.224 102.039 253.142 102.186C253.06 102.332 253.019 102.484 253.019 102.643ZM267.292 97.5801H264.787V95.6289H267.292V92.4033H269.894V95.6289H272.398V97.5801H269.894V106H267.292V97.5801ZM276.081 94.2139C275.823 94.2139 275.589 94.1787 275.378 94.1084C275.173 94.0322 274.997 93.9326 274.851 93.8096C274.704 93.6807 274.59 93.5342 274.508 93.3701C274.432 93.2002 274.394 93.0215 274.394 92.834C274.394 92.6406 274.432 92.4619 274.508 92.2979C274.59 92.1279 274.704 91.9814 274.851 91.8584C274.997 91.7354 275.173 91.6387 275.378 91.5684C275.589 91.4922 275.823 91.4541 276.081 91.4541C276.345 91.4541 276.579 91.4922 276.784 91.5684C276.995 91.6387 277.174 91.7354 277.32 91.8584C277.467 91.9814 277.578 92.1279 277.654 92.2979C277.736 92.4619 277.777 92.6406 277.777 92.834C277.777 93.0215 277.736 93.2002 277.654 93.3701C277.578 93.5342 277.467 93.6807 277.32 93.8096C277.174 93.9326 276.995 94.0322 276.784 94.1084C276.579 94.1787 276.345 94.2139 276.081 94.2139ZM274.78 95.6289H277.382V106H274.78V95.6289ZM280.098 100.814C280.098 100.07 280.247 99.373 280.546 98.7227C280.851 98.0723 281.281 97.5039 281.838 97.0176C282.4 96.5312 283.077 96.1475 283.868 95.8662C284.665 95.585 285.559 95.4443 286.549 95.4443C287.539 95.4443 288.43 95.585 289.221 95.8662C290.018 96.1475 290.694 96.5312 291.251 97.0176C291.813 97.5039 292.244 98.0723 292.543 98.7227C292.848 99.373 293 100.07 293 100.814C293 101.559 292.848 102.256 292.543 102.906C292.244 103.557 291.813 104.125 291.251 104.611C290.694 105.098 290.018 105.481 289.221 105.763C288.43 106.044 287.539 106.185 286.549 106.185C285.559 106.185 284.665 106.044 283.868 105.763C283.077 105.481 282.4 105.098 281.838 104.611C281.281 104.125 280.851 103.557 280.546 102.906C280.247 102.256 280.098 101.559 280.098 100.814ZM282.831 100.814C282.831 101.23 282.913 101.626 283.077 102.001C283.247 102.37 283.49 102.698 283.807 102.985C284.129 103.267 284.519 103.492 284.976 103.662C285.438 103.826 285.963 103.908 286.549 103.908C287.135 103.908 287.656 103.826 288.113 103.662C288.576 103.492 288.966 103.267 289.282 102.985C289.604 102.698 289.848 102.37 290.012 102.001C290.182 101.626 290.267 101.23 290.267 100.814C290.267 100.398 290.182 100.003 290.012 99.6279C289.848 99.2529 289.604 98.9248 289.282 98.6436C288.966 98.3564 288.576 98.1309 288.113 97.9668C287.656 97.7969 287.135 97.7119 286.549 97.7119C285.963 97.7119 285.438 97.7969 284.976 97.9668C284.519 98.1309 284.129 98.3564 283.807 98.6436C283.49 98.9248 283.247 99.2529 283.077 99.6279C282.913 100.003 282.831 100.398 282.831 100.814ZM295.628 95.6289H298.229V96.5078C298.921 96.1152 299.58 95.8398 300.207 95.6816C300.84 95.5234 301.458 95.4443 302.062 95.4443C302.853 95.4443 303.585 95.5615 304.259 95.7959C304.933 96.0244 305.516 96.3672 306.008 96.8242C306.5 97.2812 306.884 97.8525 307.159 98.5381C307.44 99.2178 307.581 100.006 307.581 100.902V106H304.988V101.324C304.988 100.756 304.906 100.249 304.742 99.8037C304.584 99.3525 304.353 98.9746 304.048 98.6699C303.749 98.3594 303.383 98.125 302.949 97.9668C302.521 97.8027 302.041 97.7207 301.508 97.7207C301.227 97.7207 300.937 97.75 300.638 97.8086C300.345 97.8672 300.055 97.9521 299.768 98.0635C299.486 98.1689 299.214 98.3037 298.95 98.4678C298.687 98.626 298.446 98.8076 298.229 99.0127V106H295.628V95.6289ZM52.5928 124.913C53.0908 125.194 53.5947 125.449 54.1045 125.678C54.6201 125.9 55.1533 126.091 55.7041 126.249C56.2549 126.401 56.832 126.519 57.4355 126.601C58.0449 126.683 58.6924 126.724 59.3779 126.724C60.2041 126.724 60.9072 126.671 61.4873 126.565C62.0674 126.454 62.5391 126.305 62.9023 126.117C63.2715 125.924 63.5381 125.695 63.7021 125.432C63.8721 125.168 63.957 124.881 63.957 124.57C63.957 124.072 63.749 123.68 63.333 123.393C62.917 123.1 62.2754 122.953 61.4082 122.953C61.0273 122.953 60.626 122.979 60.2041 123.032C59.7822 123.079 59.3545 123.132 58.9209 123.19C58.4932 123.249 58.0684 123.305 57.6465 123.357C57.2305 123.404 56.8379 123.428 56.4688 123.428C55.8535 123.428 55.2617 123.349 54.6934 123.19C54.1309 123.032 53.6299 122.795 53.1904 122.479C52.7568 122.162 52.4111 121.767 52.1533 121.292C51.8955 120.817 51.7666 120.264 51.7666 119.631C51.7666 119.256 51.8164 118.884 51.916 118.515C52.0215 118.146 52.1855 117.794 52.4082 117.46C52.6367 117.12 52.9297 116.807 53.2871 116.52C53.6445 116.227 54.0752 115.975 54.5791 115.764C55.0889 115.553 55.6748 115.389 56.3369 115.271C57.0049 115.148 57.7637 115.087 58.6133 115.087C59.2285 115.087 59.8467 115.122 60.4678 115.192C61.0889 115.257 61.6924 115.351 62.2783 115.474C62.8701 115.597 63.4385 115.746 63.9834 115.922C64.5283 116.092 65.0352 116.282 65.5039 116.493L64.2822 118.743C63.8955 118.573 63.4795 118.418 63.0342 118.277C62.5889 118.131 62.123 118.005 61.6367 117.899C61.1504 117.794 60.6465 117.712 60.125 117.653C59.6094 117.589 59.082 117.557 58.543 117.557C57.7754 117.557 57.1426 117.612 56.6445 117.724C56.1523 117.835 55.7598 117.979 55.4668 118.154C55.1738 118.324 54.9688 118.518 54.8516 118.734C54.7402 118.945 54.6846 119.156 54.6846 119.367C54.6846 119.777 54.8691 120.114 55.2383 120.378C55.6074 120.636 56.1699 120.765 56.9258 120.765C57.2305 120.765 57.5791 120.744 57.9717 120.703C58.3701 120.656 58.7861 120.606 59.2197 120.554C59.6592 120.501 60.1045 120.454 60.5557 120.413C61.0127 120.366 61.4551 120.343 61.8828 120.343C62.6914 120.343 63.4062 120.434 64.0273 120.615C64.6543 120.797 65.1787 121.058 65.6006 121.397C66.0225 121.731 66.3418 122.139 66.5586 122.619C66.7754 123.094 66.8838 123.627 66.8838 124.219C66.8838 125.01 66.6992 125.716 66.3301 126.337C65.9668 126.952 65.4453 127.474 64.7656 127.901C64.0918 128.323 63.2773 128.646 62.3223 128.868C61.3672 129.085 60.3037 129.193 59.1318 129.193C58.3584 129.193 57.6025 129.144 56.8643 129.044C56.126 128.95 55.417 128.815 54.7373 128.64C54.0635 128.458 53.4189 128.244 52.8037 127.998C52.1943 127.746 51.6289 127.471 51.1074 127.172L52.5928 124.913ZM69.1338 123.779C69.1338 123.076 69.2773 122.405 69.5645 121.767C69.8516 121.122 70.2646 120.554 70.8037 120.062C71.3428 119.569 72.002 119.177 72.7812 118.884C73.5664 118.591 74.457 118.444 75.4531 118.444C76.4434 118.444 77.334 118.594 78.125 118.893C78.9219 119.186 79.5957 119.59 80.1465 120.105C80.7031 120.621 81.1279 121.228 81.4209 121.925C81.7197 122.622 81.8691 123.369 81.8691 124.166C81.8691 124.266 81.8662 124.374 81.8604 124.491C81.8604 124.603 81.8545 124.705 81.8428 124.799H72.0342C72.1455 125.109 72.3242 125.394 72.5703 125.651C72.8223 125.909 73.1357 126.132 73.5107 126.319C73.8857 126.507 74.3193 126.653 74.8115 126.759C75.3037 126.858 75.8486 126.908 76.4463 126.908C77.0439 126.908 77.6387 126.847 78.2305 126.724C78.8223 126.595 79.3877 126.434 79.9268 126.24L80.8057 128.227C80.4658 128.385 80.1201 128.525 79.7686 128.648C79.4229 128.766 79.0596 128.865 78.6787 128.947C78.3037 129.023 77.9082 129.082 77.4922 129.123C77.082 129.164 76.6484 129.185 76.1914 129.185C75.0254 129.185 74.0029 129.044 73.124 128.763C72.2451 128.481 71.5098 128.098 70.918 127.611C70.3262 127.125 69.8809 126.554 69.582 125.897C69.2832 125.241 69.1338 124.535 69.1338 123.779ZM79.1094 122.769C79.0156 122.481 78.8691 122.215 78.6699 121.969C78.4766 121.717 78.2334 121.5 77.9404 121.318C77.6475 121.131 77.3076 120.984 76.9209 120.879C76.5342 120.773 76.1094 120.721 75.6465 120.721C75.1543 120.721 74.7061 120.776 74.3018 120.888C73.8975 120.999 73.543 121.148 73.2383 121.336C72.9336 121.523 72.6787 121.74 72.4736 121.986C72.2744 122.232 72.1279 122.493 72.0342 122.769H79.1094ZM85.0859 125.818C85.7891 126.24 86.5625 126.551 87.4062 126.75C88.25 126.949 89.1143 127.049 89.999 127.049C90.5967 127.049 91.0947 127.008 91.4932 126.926C91.8916 126.844 92.2109 126.738 92.4512 126.609C92.6914 126.48 92.8613 126.334 92.9609 126.17C93.0605 126.006 93.1104 125.839 93.1104 125.669C93.1104 125.423 93.002 125.212 92.7852 125.036C92.5742 124.86 92.2227 124.772 91.7305 124.772C91.502 124.772 91.2559 124.787 90.9922 124.816C90.7285 124.846 90.4502 124.878 90.1572 124.913C89.8701 124.942 89.5684 124.972 89.252 125.001C88.9414 125.03 88.625 125.045 88.3027 125.045C87.5996 125.045 86.999 124.969 86.501 124.816C86.0088 124.664 85.6074 124.456 85.2969 124.192C84.9863 123.929 84.7607 123.618 84.6201 123.261C84.4795 122.897 84.4092 122.508 84.4092 122.092C84.4092 121.564 84.5322 121.078 84.7783 120.633C85.0244 120.188 85.376 119.804 85.833 119.481C86.29 119.153 86.8408 118.898 87.4854 118.717C88.1357 118.535 88.8594 118.444 89.6562 118.444C90.0723 118.444 90.5059 118.471 90.957 118.523C91.4141 118.57 91.8623 118.635 92.3018 118.717C92.7412 118.799 93.1631 118.896 93.5674 119.007C93.9717 119.112 94.3291 119.227 94.6396 119.35L93.8223 121.371C93.1602 121.125 92.498 120.932 91.8359 120.791C91.1797 120.645 90.5029 120.571 89.8057 120.571C89.3193 120.571 88.9062 120.609 88.5664 120.686C88.2324 120.756 87.96 120.853 87.749 120.976C87.5381 121.093 87.3828 121.23 87.2832 121.389C87.1895 121.541 87.1426 121.702 87.1426 121.872C87.1426 121.995 87.166 122.106 87.2129 122.206C87.2656 122.306 87.3477 122.394 87.459 122.47C87.5762 122.54 87.7256 122.596 87.9072 122.637C88.0947 122.672 88.3232 122.689 88.5928 122.689C88.8389 122.689 89.0996 122.675 89.375 122.646C89.6504 122.616 89.9375 122.587 90.2363 122.558C90.5352 122.522 90.8428 122.49 91.1592 122.461C91.4814 122.432 91.8096 122.417 92.1436 122.417C92.7646 122.417 93.3066 122.49 93.7695 122.637C94.2383 122.783 94.625 122.988 94.9297 123.252C95.2344 123.516 95.4629 123.826 95.6152 124.184C95.7676 124.541 95.8438 124.931 95.8438 125.353C95.8438 125.897 95.7178 126.404 95.4658 126.873C95.2139 127.342 94.8389 127.749 94.3408 128.095C93.8428 128.435 93.2217 128.701 92.4775 128.895C91.7393 129.088 90.8838 129.185 89.9111 129.185C89.3135 129.185 88.7363 129.146 88.1797 129.07C87.623 129 87.0928 128.903 86.5889 128.78C86.085 128.651 85.6104 128.502 85.165 128.332C84.7256 128.162 84.3242 127.98 83.9609 127.787L85.0859 125.818ZM98.6035 125.818C99.3066 126.24 100.08 126.551 100.924 126.75C101.768 126.949 102.632 127.049 103.517 127.049C104.114 127.049 104.612 127.008 105.011 126.926C105.409 126.844 105.729 126.738 105.969 126.609C106.209 126.48 106.379 126.334 106.479 126.17C106.578 126.006 106.628 125.839 106.628 125.669C106.628 125.423 106.52 125.212 106.303 125.036C106.092 124.86 105.74 124.772 105.248 124.772C105.02 124.772 104.773 124.787 104.51 124.816C104.246 124.846 103.968 124.878 103.675 124.913C103.388 124.942 103.086 124.972 102.77 125.001C102.459 125.03 102.143 125.045 101.82 125.045C101.117 125.045 100.517 124.969 100.019 124.816C99.5264 124.664 99.125 124.456 98.8145 124.192C98.5039 123.929 98.2783 123.618 98.1377 123.261C97.9971 122.897 97.9268 122.508 97.9268 122.092C97.9268 121.564 98.0498 121.078 98.2959 120.633C98.542 120.188 98.8936 119.804 99.3506 119.481C99.8076 119.153 100.358 118.898 101.003 118.717C101.653 118.535 102.377 118.444 103.174 118.444C103.59 118.444 104.023 118.471 104.475 118.523C104.932 118.57 105.38 118.635 105.819 118.717C106.259 118.799 106.681 118.896 107.085 119.007C107.489 119.112 107.847 119.227 108.157 119.35L107.34 121.371C106.678 121.125 106.016 120.932 105.354 120.791C104.697 120.645 104.021 120.571 103.323 120.571C102.837 120.571 102.424 120.609 102.084 120.686C101.75 120.756 101.478 120.853 101.267 120.976C101.056 121.093 100.9 121.23 100.801 121.389C100.707 121.541 100.66 121.702 100.66 121.872C100.66 121.995 100.684 122.106 100.73 122.206C100.783 122.306 100.865 122.394 100.977 122.47C101.094 122.54 101.243 122.596 101.425 122.637C101.612 122.672 101.841 122.689 102.11 122.689C102.356 122.689 102.617 122.675 102.893 122.646C103.168 122.616 103.455 122.587 103.754 122.558C104.053 122.522 104.36 122.49 104.677 122.461C104.999 122.432 105.327 122.417 105.661 122.417C106.282 122.417 106.824 122.49 107.287 122.637C107.756 122.783 108.143 122.988 108.447 123.252C108.752 123.516 108.98 123.826 109.133 124.184C109.285 124.541 109.361 124.931 109.361 125.353C109.361 125.897 109.235 126.404 108.983 126.873C108.731 127.342 108.356 127.749 107.858 128.095C107.36 128.435 106.739 128.701 105.995 128.895C105.257 129.088 104.401 129.185 103.429 129.185C102.831 129.185 102.254 129.146 101.697 129.07C101.141 129 100.61 128.903 100.106 128.78C99.6025 128.651 99.1279 128.502 98.6826 128.332C98.2432 128.162 97.8418 127.98 97.4785 127.787L98.6035 125.818ZM113.079 117.214C112.821 117.214 112.587 117.179 112.376 117.108C112.171 117.032 111.995 116.933 111.849 116.81C111.702 116.681 111.588 116.534 111.506 116.37C111.43 116.2 111.392 116.021 111.392 115.834C111.392 115.641 111.43 115.462 111.506 115.298C111.588 115.128 111.702 114.981 111.849 114.858C111.995 114.735 112.171 114.639 112.376 114.568C112.587 114.492 112.821 114.454 113.079 114.454C113.343 114.454 113.577 114.492 113.782 114.568C113.993 114.639 114.172 114.735 114.318 114.858C114.465 114.981 114.576 115.128 114.652 115.298C114.734 115.462 114.775 115.641 114.775 115.834C114.775 116.021 114.734 116.2 114.652 116.37C114.576 116.534 114.465 116.681 114.318 116.81C114.172 116.933 113.993 117.032 113.782 117.108C113.577 117.179 113.343 117.214 113.079 117.214ZM111.778 118.629H114.38V129H111.778V118.629ZM117.096 123.814C117.096 123.07 117.245 122.373 117.544 121.723C117.849 121.072 118.279 120.504 118.836 120.018C119.398 119.531 120.075 119.147 120.866 118.866C121.663 118.585 122.557 118.444 123.547 118.444C124.537 118.444 125.428 118.585 126.219 118.866C127.016 119.147 127.692 119.531 128.249 120.018C128.812 120.504 129.242 121.072 129.541 121.723C129.846 122.373 129.998 123.07 129.998 123.814C129.998 124.559 129.846 125.256 129.541 125.906C129.242 126.557 128.812 127.125 128.249 127.611C127.692 128.098 127.016 128.481 126.219 128.763C125.428 129.044 124.537 129.185 123.547 129.185C122.557 129.185 121.663 129.044 120.866 128.763C120.075 128.481 119.398 128.098 118.836 127.611C118.279 127.125 117.849 126.557 117.544 125.906C117.245 125.256 117.096 124.559 117.096 123.814ZM119.829 123.814C119.829 124.23 119.911 124.626 120.075 125.001C120.245 125.37 120.488 125.698 120.805 125.985C121.127 126.267 121.517 126.492 121.974 126.662C122.437 126.826 122.961 126.908 123.547 126.908C124.133 126.908 124.654 126.826 125.111 126.662C125.574 126.492 125.964 126.267 126.28 125.985C126.603 125.698 126.846 125.37 127.01 125.001C127.18 124.626 127.265 124.23 127.265 123.814C127.265 123.398 127.18 123.003 127.01 122.628C126.846 122.253 126.603 121.925 126.28 121.644C125.964 121.356 125.574 121.131 125.111 120.967C124.654 120.797 124.133 120.712 123.547 120.712C122.961 120.712 122.437 120.797 121.974 120.967C121.517 121.131 121.127 121.356 120.805 121.644C120.488 121.925 120.245 122.253 120.075 122.628C119.911 123.003 119.829 123.398 119.829 123.814ZM132.626 118.629H135.228V119.508C135.919 119.115 136.578 118.84 137.205 118.682C137.838 118.523 138.456 118.444 139.06 118.444C139.851 118.444 140.583 118.562 141.257 118.796C141.931 119.024 142.514 119.367 143.006 119.824C143.498 120.281 143.882 120.853 144.157 121.538C144.438 122.218 144.579 123.006 144.579 123.902V129H141.986V124.324C141.986 123.756 141.904 123.249 141.74 122.804C141.582 122.353 141.351 121.975 141.046 121.67C140.747 121.359 140.381 121.125 139.947 120.967C139.52 120.803 139.039 120.721 138.506 120.721C138.225 120.721 137.935 120.75 137.636 120.809C137.343 120.867 137.053 120.952 136.766 121.063C136.484 121.169 136.212 121.304 135.948 121.468C135.685 121.626 135.444 121.808 135.228 122.013V129H132.626V118.629ZM148.191 125.818C148.895 126.24 149.668 126.551 150.512 126.75C151.355 126.949 152.22 127.049 153.104 127.049C153.702 127.049 154.2 127.008 154.599 126.926C154.997 126.844 155.316 126.738 155.557 126.609C155.797 126.48 155.967 126.334 156.066 126.17C156.166 126.006 156.216 125.839 156.216 125.669C156.216 125.423 156.107 125.212 155.891 125.036C155.68 124.86 155.328 124.772 154.836 124.772C154.607 124.772 154.361 124.787 154.098 124.816C153.834 124.846 153.556 124.878 153.263 124.913C152.976 124.942 152.674 124.972 152.357 125.001C152.047 125.03 151.73 125.045 151.408 125.045C150.705 125.045 150.104 124.969 149.606 124.816C149.114 124.664 148.713 124.456 148.402 124.192C148.092 123.929 147.866 123.618 147.726 123.261C147.585 122.897 147.515 122.508 147.515 122.092C147.515 121.564 147.638 121.078 147.884 120.633C148.13 120.188 148.481 119.804 148.938 119.481C149.396 119.153 149.946 118.898 150.591 118.717C151.241 118.535 151.965 118.444 152.762 118.444C153.178 118.444 153.611 118.471 154.062 118.523C154.52 118.57 154.968 118.635 155.407 118.717C155.847 118.799 156.269 118.896 156.673 119.007C157.077 119.112 157.435 119.227 157.745 119.35L156.928 121.371C156.266 121.125 155.604 120.932 154.941 120.791C154.285 120.645 153.608 120.571 152.911 120.571C152.425 120.571 152.012 120.609 151.672 120.686C151.338 120.756 151.065 120.853 150.854 120.976C150.644 121.093 150.488 121.23 150.389 121.389C150.295 121.541 150.248 121.702 150.248 121.872C150.248 121.995 150.271 122.106 150.318 122.206C150.371 122.306 150.453 122.394 150.564 122.47C150.682 122.54 150.831 122.596 151.013 122.637C151.2 122.672 151.429 122.689 151.698 122.689C151.944 122.689 152.205 122.675 152.48 122.646C152.756 122.616 153.043 122.587 153.342 122.558C153.641 122.522 153.948 122.49 154.265 122.461C154.587 122.432 154.915 122.417 155.249 122.417C155.87 122.417 156.412 122.49 156.875 122.637C157.344 122.783 157.73 122.988 158.035 123.252C158.34 123.516 158.568 123.826 158.721 124.184C158.873 124.541 158.949 124.931 158.949 125.353C158.949 125.897 158.823 126.404 158.571 126.873C158.319 127.342 157.944 127.749 157.446 128.095C156.948 128.435 156.327 128.701 155.583 128.895C154.845 129.088 153.989 129.185 153.017 129.185C152.419 129.185 151.842 129.146 151.285 129.07C150.729 129 150.198 128.903 149.694 128.78C149.19 128.651 148.716 128.502 148.271 128.332C147.831 128.162 147.43 127.98 147.066 127.787L148.191 125.818Z" fill="#889DE2"/>
<path d="M56.208 160.548V159.84H49.2V168H56.208V167.292H50.004V164.22H55.428V163.512H50.004V160.548H56.208ZM63.2805 162.024L60.8205 167.124L58.3485 162.024H57.4965L60.4125 168H61.1925L64.0965 162.024H63.2805ZM71.692 165.24V165.012C71.692 163.14 70.372 161.88 68.404 161.88C66.436 161.88 65.104 163.14 65.104 165.012C65.104 166.92 66.484 168.144 68.68 168.144C69.748 168.144 70.636 167.868 71.368 167.292L71.056 166.668C70.372 167.208 69.64 167.448 68.728 167.448C67.06 167.448 65.992 166.62 65.896 165.24H71.692ZM68.428 162.576C69.784 162.576 70.756 163.368 70.936 164.592H65.908C66.088 163.368 67.06 162.576 68.428 162.576ZM77.1916 161.88C76.0036 161.88 75.1276 162.384 74.4076 163.356V162.024H73.6396V168H74.4076V164.016C75.1516 163.08 76.0156 162.636 77.0836 162.636C77.2516 162.636 77.4796 162.648 77.6356 162.684L77.6836 161.916C77.5516 161.892 77.3716 161.88 77.1916 161.88ZM86.8139 161.88C85.7339 161.88 84.8219 162.336 84.0779 163.248V159.48H83.3099V168H84.0779V163.908C84.7619 163.056 85.6139 162.576 86.6219 162.576C87.7619 162.576 88.3739 163.188 88.3739 164.328V168H89.1419V164.208C89.1419 162.732 88.2779 161.88 86.8139 161.88ZM94.0777 161.88C92.9977 161.88 92.1337 162.12 91.3897 162.612L91.7137 163.224C92.3497 162.78 93.1177 162.576 94.0177 162.576C95.5657 162.576 96.2497 163.2 96.2497 164.628V165.18C95.4577 164.712 94.4257 164.436 93.4417 164.436C91.8817 164.436 90.9817 165.12 90.9817 166.284C90.9817 167.436 91.8577 168.144 93.2737 168.144C94.4497 168.144 95.5057 167.664 96.2497 166.764V168H97.0177V164.544C97.0177 162.708 96.0937 161.88 94.0777 161.88ZM96.2497 166.116C95.5897 166.956 94.5217 167.46 93.3937 167.46C92.3617 167.46 91.7617 167.028 91.7617 166.272C91.7617 165.504 92.3857 165.096 93.5857 165.096C94.5457 165.096 95.5177 165.348 96.2497 165.804V166.116ZM104.469 159.48V163.248C103.785 162.336 102.933 161.88 101.901 161.88C100.149 161.88 98.9246 163.164 98.9246 165.012C98.9246 166.86 100.149 168.144 101.901 168.144C102.933 168.144 103.785 167.688 104.469 166.764V168H105.237V159.48H104.469ZM104.469 166.092C103.821 166.968 102.969 167.448 102.021 167.448C100.629 167.448 99.7166 166.464 99.7166 165.012C99.7166 163.548 100.629 162.576 102.021 162.576C102.969 162.576 103.821 163.044 104.469 163.932V166.092ZM114.161 161.88C113.081 161.88 112.217 162.12 111.473 162.612L111.797 163.224C112.433 162.78 113.201 162.576 114.101 162.576C115.649 162.576 116.333 163.2 116.333 164.628V165.18C115.541 164.712 114.509 164.436 113.525 164.436C111.965 164.436 111.065 165.12 111.065 166.284C111.065 167.436 111.941 168.144 113.357 168.144C114.533 168.144 115.589 167.664 116.333 166.764V168H117.101V164.544C117.101 162.708 116.177 161.88 114.161 161.88ZM116.333 166.116C115.673 166.956 114.605 167.46 113.477 167.46C112.445 167.46 111.845 167.028 111.845 166.272C111.845 165.504 112.469 165.096 113.669 165.096C114.629 165.096 115.601 165.348 116.333 165.804V166.116ZM125.894 168.144C127.742 168.144 128.798 167.484 128.798 166.32C128.798 165.216 128.066 164.772 126.038 164.628C124.298 164.508 123.806 164.28 123.806 163.632C123.806 162.972 124.526 162.552 125.726 162.552C126.662 162.552 127.502 162.792 128.09 163.224L128.414 162.612C127.718 162.12 126.806 161.88 125.774 161.88C124.094 161.88 123.026 162.564 123.026 163.668C123.026 164.772 123.746 165.216 125.798 165.36C127.526 165.48 128.018 165.696 128.018 166.356C128.018 167.052 127.238 167.46 125.906 167.46C124.778 167.46 123.866 167.16 123.11 166.632L122.75 167.244C123.542 167.808 124.61 168.144 125.894 168.144ZM134.039 161.88C133.007 161.88 132.155 162.336 131.483 163.248V162.024H130.715V170.28H131.483V166.764C132.155 167.688 133.007 168.144 134.039 168.144C135.803 168.144 137.015 166.86 137.015 165.012C137.015 163.164 135.803 161.88 134.039 161.88ZM133.931 167.448C132.983 167.448 132.119 166.968 131.483 166.092V163.932C132.119 163.044 132.983 162.576 133.931 162.576C135.311 162.576 136.235 163.548 136.235 165.012C136.235 166.464 135.311 167.448 133.931 167.448ZM145.258 165.24V165.012C145.258 163.14 143.938 161.88 141.97 161.88C140.002 161.88 138.67 163.14 138.67 165.012C138.67 166.92 140.05 168.144 142.246 168.144C143.314 168.144 144.202 167.868 144.934 167.292L144.622 166.668C143.938 167.208 143.206 167.448 142.294 167.448C140.626 167.448 139.558 166.62 139.462 165.24H145.258ZM141.994 162.576C143.35 162.576 144.322 163.368 144.502 164.592H139.474C139.654 163.368 140.626 162.576 141.994 162.576ZM150.276 168.144C151.188 168.144 151.98 167.916 152.688 167.412L152.364 166.776C151.728 167.232 151.092 167.448 150.324 167.448C148.692 167.448 147.648 166.5 147.648 165.012C147.648 163.536 148.68 162.576 150.228 162.576C150.936 162.576 151.596 162.756 152.16 163.152L152.46 162.516C151.824 162.084 151.068 161.88 150.216 161.88C148.2 161.88 146.856 163.116 146.856 165.024C146.856 166.908 148.176 168.144 150.276 168.144ZM154.862 160.752C155.21 160.752 155.438 160.524 155.438 160.2C155.438 159.876 155.21 159.648 154.862 159.648C154.514 159.648 154.286 159.876 154.286 160.2C154.286 160.524 154.514 160.752 154.862 160.752ZM154.478 168H155.246V162.024H154.478V168ZM160.733 160.032C161.165 160.032 161.561 160.14 161.969 160.356L162.197 159.708C161.729 159.456 161.225 159.336 160.673 159.336C159.401 159.336 158.729 159.972 158.729 161.22V162.024H156.977V162.66H158.729V168H159.497V162.66H162.029V162.024H159.497V161.292C159.497 160.44 159.893 160.032 160.733 160.032ZM163.841 159.648C163.493 159.648 163.265 159.876 163.265 160.2C163.265 160.524 163.493 160.752 163.841 160.752C164.189 160.752 164.417 160.524 164.417 160.2C164.417 159.876 164.189 159.648 163.841 159.648ZM163.457 168H164.225V162.024H163.457V168ZM169.669 168.144C170.581 168.144 171.373 167.916 172.081 167.412L171.757 166.776C171.121 167.232 170.485 167.448 169.717 167.448C168.085 167.448 167.041 166.5 167.041 165.012C167.041 163.536 168.073 162.576 169.621 162.576C170.329 162.576 170.989 162.756 171.553 163.152L171.853 162.516C171.217 162.084 170.461 161.88 169.609 161.88C167.593 161.88 166.249 163.116 166.249 165.024C166.249 166.908 167.569 168.144 169.669 168.144ZM182.94 162.024V163.248C182.256 162.336 181.404 161.88 180.372 161.88C178.62 161.88 177.396 163.164 177.396 165.012C177.396 166.86 178.62 168.144 180.372 168.144C181.404 168.144 182.256 167.688 182.94 166.764V170.28H183.708V162.024H182.94ZM182.94 166.092C182.292 166.968 181.44 167.448 180.492 167.448C179.1 167.448 178.188 166.464 178.188 165.012C178.188 163.548 179.1 162.576 180.492 162.576C181.44 162.576 182.292 163.044 182.94 163.932V166.092ZM191.063 162.024V166.104C190.379 166.956 189.527 167.448 188.519 167.448C187.379 167.448 186.767 166.824 186.767 165.684V162.024H185.999V165.816C185.999 167.292 186.863 168.144 188.327 168.144C189.407 168.144 190.319 167.676 191.063 166.764V168H191.831V162.024H191.063ZM200.451 165.24V165.012C200.451 163.14 199.131 161.88 197.163 161.88C195.195 161.88 193.863 163.14 193.863 165.012C193.863 166.92 195.243 168.144 197.439 168.144C198.507 168.144 199.395 167.868 200.127 167.292L199.815 166.668C199.131 167.208 198.399 167.448 197.487 167.448C195.819 167.448 194.751 166.62 194.655 165.24H200.451ZM197.187 162.576C198.543 162.576 199.515 163.368 199.695 164.592H194.667C194.847 163.368 195.819 162.576 197.187 162.576ZM205.014 168.144C206.862 168.144 207.918 167.484 207.918 166.32C207.918 165.216 207.186 164.772 205.158 164.628C203.418 164.508 202.926 164.28 202.926 163.632C202.926 162.972 203.646 162.552 204.846 162.552C205.782 162.552 206.622 162.792 207.21 163.224L207.534 162.612C206.838 162.12 205.926 161.88 204.894 161.88C203.214 161.88 202.146 162.564 202.146 163.668C202.146 164.772 202.866 165.216 204.918 165.36C206.646 165.48 207.138 165.696 207.138 166.356C207.138 167.052 206.358 167.46 205.026 167.46C203.898 167.46 202.986 167.16 202.23 166.632L201.87 167.244C202.662 167.808 203.73 168.144 205.014 168.144ZM214.013 167.124C213.629 167.34 213.209 167.448 212.741 167.448C211.925 167.448 211.541 167.1 211.541 166.308V162.66H214.073V162.024H211.541V159.84H210.773V162.024H209.021V162.66H210.773V166.38C210.773 167.556 211.421 168.144 212.681 168.144C213.269 168.144 213.773 168.024 214.241 167.772L214.013 167.124ZM216.449 160.752C216.797 160.752 217.025 160.524 217.025 160.2C217.025 159.876 216.797 159.648 216.449 159.648C216.101 159.648 215.873 159.876 215.873 160.2C215.873 160.524 216.101 160.752 216.449 160.752ZM216.065 168H216.833V162.024H216.065V168ZM222.187 168.144C224.167 168.144 225.511 166.872 225.511 165.012C225.511 163.14 224.167 161.88 222.187 161.88C220.195 161.88 218.863 163.14 218.863 165.012C218.863 166.872 220.195 168.144 222.187 168.144ZM222.187 167.448C220.663 167.448 219.643 166.452 219.643 165.012C219.643 163.56 220.663 162.576 222.187 162.576C223.699 162.576 224.719 163.56 224.719 165.012C224.719 166.452 223.699 167.448 222.187 167.448ZM231.032 161.88C229.952 161.88 229.04 162.336 228.296 163.248V162.024H227.528V168H228.296V163.908C228.98 163.056 229.832 162.576 230.84 162.576C231.98 162.576 232.592 163.188 232.592 164.328V168H233.36V164.208C233.36 162.732 232.496 161.88 231.032 161.88ZM243.849 167.124C243.465 167.34 243.045 167.448 242.577 167.448C241.761 167.448 241.377 167.1 241.377 166.308V162.66H243.909V162.024H241.377V159.84H240.609V162.024H238.857V162.66H240.609V166.38C240.609 167.556 241.257 168.144 242.517 168.144C243.105 168.144 243.609 168.024 244.077 167.772L243.849 167.124ZM249.405 161.88C248.325 161.88 247.413 162.336 246.669 163.248V159.48H245.901V168H246.669V163.908C247.353 163.056 248.205 162.576 249.213 162.576C250.353 162.576 250.965 163.188 250.965 164.328V168H251.733V164.208C251.733 162.732 250.869 161.88 249.405 161.88ZM256.668 161.88C255.588 161.88 254.724 162.12 253.98 162.612L254.304 163.224C254.94 162.78 255.708 162.576 256.608 162.576C258.156 162.576 258.84 163.2 258.84 164.628V165.18C258.048 164.712 257.016 164.436 256.032 164.436C254.472 164.436 253.572 165.12 253.572 166.284C253.572 167.436 254.448 168.144 255.864 168.144C257.04 168.144 258.096 167.664 258.84 166.764V168H259.608V164.544C259.608 162.708 258.684 161.88 256.668 161.88ZM258.84 166.116C258.18 166.956 257.112 167.46 255.984 167.46C254.952 167.46 254.352 167.028 254.352 166.272C254.352 165.504 254.976 165.096 256.176 165.096C257.136 165.096 258.108 165.348 258.84 165.804V166.116ZM266.16 167.124C265.776 167.34 265.356 167.448 264.888 167.448C264.072 167.448 263.688 167.1 263.688 166.308V162.66H266.22V162.024H263.688V159.84H262.92V162.024H261.168V162.66H262.92V166.38C262.92 167.556 263.568 168.144 264.828 168.144C265.416 168.144 265.92 168.024 266.388 167.772L266.16 167.124ZM277.184 162.024L274.868 166.968L272.3 162.024H271.436L274.436 167.772L274.028 168.636C273.656 169.428 273.308 169.728 272.636 169.728C272.276 169.728 271.94 169.656 271.7 169.524L271.484 170.172C271.784 170.328 272.18 170.424 272.684 170.424C273.668 170.424 274.22 170.016 274.736 168.924L278 162.024H277.184ZM282.333 168.144C284.313 168.144 285.657 166.872 285.657 165.012C285.657 163.14 284.313 161.88 282.333 161.88C280.341 161.88 279.009 163.14 279.009 165.012C279.009 166.872 280.341 168.144 282.333 168.144ZM282.333 167.448C280.809 167.448 279.789 166.452 279.789 165.012C279.789 163.56 280.809 162.576 282.333 162.576C283.845 162.576 284.865 163.56 284.865 165.012C284.865 166.452 283.845 167.448 282.333 167.448ZM292.629 162.024V166.104C291.945 166.956 291.093 167.448 290.085 167.448C288.945 167.448 288.333 166.824 288.333 165.684V162.024H287.565V165.816C287.565 167.292 288.429 168.144 289.893 168.144C290.973 168.144 291.885 167.676 292.629 166.764V168H293.397V162.024H292.629ZM300.095 160.752C300.443 160.752 300.671 160.524 300.671 160.2C300.671 159.876 300.443 159.648 300.095 159.648C299.747 159.648 299.519 159.876 299.519 160.2C299.519 160.524 299.747 160.752 300.095 160.752ZM298.991 170.424C300.011 170.424 300.479 169.932 300.479 168.888V162.024H299.711V168.756C299.711 169.452 299.471 169.728 298.871 169.728C298.727 169.728 298.583 169.716 298.427 169.668L298.355 170.328C298.559 170.4 298.763 170.424 298.991 170.424ZM307.849 162.024V166.104C307.165 166.956 306.313 167.448 305.305 167.448C304.165 167.448 303.553 166.824 303.553 165.684V162.024H302.785V165.816C302.785 167.292 303.649 168.144 305.113 168.144C306.193 168.144 307.105 167.676 307.849 166.764V168H308.617V162.024H307.849ZM313.649 168.144C315.497 168.144 316.553 167.484 316.553 166.32C316.553 165.216 315.821 164.772 313.793 164.628C312.053 164.508 311.561 164.28 311.561 163.632C311.561 162.972 312.281 162.552 313.481 162.552C314.417 162.552 315.257 162.792 315.845 163.224L316.169 162.612C315.473 162.12 314.561 161.88 313.529 161.88C311.849 161.88 310.781 162.564 310.781 163.668C310.781 164.772 311.501 165.216 313.553 165.36C315.281 165.48 315.773 165.696 315.773 166.356C315.773 167.052 314.993 167.46 313.661 167.46C312.533 167.46 311.621 167.16 310.865 166.632L310.505 167.244C311.297 167.808 312.365 168.144 313.649 168.144ZM322.649 167.124C322.265 167.34 321.845 167.448 321.377 167.448C320.561 167.448 320.177 167.1 320.177 166.308V162.66H322.709V162.024H320.177V159.84H319.409V162.024H317.657V162.66H319.409V166.38C319.409 167.556 320.057 168.144 321.317 168.144C321.905 168.144 322.409 168.024 322.877 167.772L322.649 167.124ZM57.504 177.024L55.632 181.992L53.724 177.024H53.004L51.108 181.992L49.236 177.024H48.42L50.7 183H51.468L53.352 178.032L55.236 183H56.004L58.296 177.024H57.504ZM60.4392 175.752C60.7872 175.752 61.0152 175.524 61.0152 175.2C61.0152 174.876 60.7872 174.648 60.4392 174.648C60.0912 174.648 59.8632 174.876 59.8632 175.2C59.8632 175.524 60.0912 175.752 60.4392 175.752ZM60.0552 183H60.8232V177.024H60.0552V183ZM65.854 183.144C67.702 183.144 68.758 182.484 68.758 181.32C68.758 180.216 68.026 179.772 65.998 179.628C64.258 179.508 63.766 179.28 63.766 178.632C63.766 177.972 64.486 177.552 65.686 177.552C66.622 177.552 67.462 177.792 68.05 178.224L68.374 177.612C67.678 177.12 66.766 176.88 65.734 176.88C64.054 176.88 62.986 177.564 62.986 178.668C62.986 179.772 63.706 180.216 65.758 180.36C67.486 180.48 67.978 180.696 67.978 181.356C67.978 182.052 67.198 182.46 65.866 182.46C64.738 182.46 63.826 182.16 63.07 181.632L62.71 182.244C63.502 182.808 64.57 183.144 65.854 183.144ZM74.1787 176.88C73.0987 176.88 72.1867 177.336 71.4427 178.248V174.48H70.6747V183H71.4427V178.908C72.1267 178.056 72.9787 177.576 73.9867 177.576C75.1267 177.576 75.7388 178.188 75.7388 179.328V183H76.5067V179.208C76.5067 177.732 75.6428 176.88 74.1787 176.88ZM87.7883 177.024L85.4723 181.968L82.9043 177.024H82.0403L85.0403 182.772L84.6323 183.636C84.2603 184.428 83.9123 184.728 83.2402 184.728C82.8803 184.728 82.5443 184.656 82.3043 184.524L82.0883 185.172C82.3883 185.328 82.7843 185.424 83.2883 185.424C84.2723 185.424 84.8242 185.016 85.3403 183.924L88.6043 177.024H87.7883ZM92.9366 183.144C94.9166 183.144 96.2606 181.872 96.2606 180.012C96.2606 178.14 94.9166 176.88 92.9366 176.88C90.9446 176.88 89.6126 178.14 89.6126 180.012C89.6126 181.872 90.9446 183.144 92.9366 183.144ZM92.9366 182.448C91.4126 182.448 90.3926 181.452 90.3926 180.012C90.3926 178.56 91.4126 177.576 92.9366 177.576C94.4486 177.576 95.4686 178.56 95.4686 180.012C95.4686 181.452 94.4486 182.448 92.9366 182.448ZM103.233 177.024V181.104C102.549 181.956 101.697 182.448 100.689 182.448C99.5491 182.448 98.9371 181.824 98.9371 180.684V177.024H98.1691V180.816C98.1691 182.292 99.0331 183.144 100.497 183.144C101.577 183.144 102.489 182.676 103.233 181.764V183H104.001V177.024H103.233ZM113.351 183.144C114.263 183.144 115.055 182.916 115.763 182.412L115.439 181.776C114.803 182.232 114.167 182.448 113.399 182.448C111.767 182.448 110.723 181.5 110.723 180.012C110.723 178.536 111.755 177.576 113.303 177.576C114.011 177.576 114.671 177.756 115.235 178.152L115.535 177.516C114.899 177.084 114.143 176.88 113.291 176.88C111.275 176.88 109.931 178.116 109.931 180.024C109.931 181.908 111.251 183.144 113.351 183.144ZM120.504 183.144C122.484 183.144 123.828 181.872 123.828 180.012C123.828 178.14 122.484 176.88 120.504 176.88C118.512 176.88 117.18 178.14 117.18 180.012C117.18 181.872 118.512 183.144 120.504 183.144ZM120.504 182.448C118.98 182.448 117.96 181.452 117.96 180.012C117.96 178.56 118.98 177.576 120.504 177.576C122.016 177.576 123.036 178.56 123.036 180.012C123.036 181.452 122.016 182.448 120.504 182.448ZM130.8 177.024V181.104C130.116 181.956 129.264 182.448 128.256 182.448C127.116 182.448 126.504 181.824 126.504 180.684V177.024H125.736V180.816C125.736 182.292 126.6 183.144 128.064 183.144C129.144 183.144 130.056 182.676 130.8 181.764V183H131.568V177.024H130.8ZM133.984 183H134.752V174.48H133.984V183ZM142.339 174.48V178.248C141.655 177.336 140.803 176.88 139.771 176.88C138.019 176.88 136.795 178.164 136.795 180.012C136.795 181.86 138.019 183.144 139.771 183.144C140.803 183.144 141.655 182.688 142.339 181.764V183H143.107V174.48H142.339ZM142.339 181.092C141.691 181.968 140.839 182.448 139.891 182.448C138.499 182.448 137.587 181.464 137.587 180.012C137.587 178.548 138.499 177.576 139.891 177.576C140.839 177.576 141.691 178.044 142.339 178.932V181.092ZM152.032 176.88C150.952 176.88 150.088 177.12 149.344 177.612L149.668 178.224C150.304 177.78 151.072 177.576 151.972 177.576C153.52 177.576 154.204 178.2 154.204 179.628V180.18C153.412 179.712 152.38 179.436 151.396 179.436C149.836 179.436 148.936 180.12 148.936 181.284C148.936 182.436 149.812 183.144 151.228 183.144C152.404 183.144 153.46 182.664 154.204 181.764V183H154.972V179.544C154.972 177.708 154.048 176.88 152.032 176.88ZM154.204 181.116C153.544 181.956 152.476 182.46 151.348 182.46C150.316 182.46 149.716 182.028 149.716 181.272C149.716 180.504 150.34 180.096 151.54 180.096C152.5 180.096 153.472 180.348 154.204 180.804V181.116ZM159.867 183.144C161.715 183.144 162.771 182.484 162.771 181.32C162.771 180.216 162.039 179.772 160.011 179.628C158.271 179.508 157.779 179.28 157.779 178.632C157.779 177.972 158.499 177.552 159.699 177.552C160.635 177.552 161.475 177.792 162.063 178.224L162.387 177.612C161.691 177.12 160.779 176.88 159.747 176.88C158.067 176.88 156.999 177.564 156.999 178.668C156.999 179.772 157.719 180.216 159.771 180.36C161.499 180.48 161.991 180.696 161.991 181.356C161.991 182.052 161.211 182.46 159.879 182.46C158.751 182.46 157.839 182.16 157.083 181.632L156.723 182.244C157.515 182.808 158.583 183.144 159.867 183.144ZM170.003 183H170.939L168.071 179.208L170.819 177.024H169.703L165.455 180.396V174.48H164.687V183H165.455V181.272L167.483 179.664L170.003 183ZM179.189 176.88C178.109 176.88 177.245 177.12 176.501 177.612L176.825 178.224C177.461 177.78 178.229 177.576 179.129 177.576C180.677 177.576 181.361 178.2 181.361 179.628V180.18C180.569 179.712 179.537 179.436 178.553 179.436C176.993 179.436 176.093 180.12 176.093 181.284C176.093 182.436 176.969 183.144 178.385 183.144C179.561 183.144 180.617 182.664 181.361 181.764V183H182.129V179.544C182.129 177.708 181.205 176.88 179.189 176.88ZM181.361 181.116C180.701 181.956 179.633 182.46 178.505 182.46C177.473 182.46 176.873 182.028 176.873 181.272C176.873 180.504 177.497 180.096 178.697 180.096C179.657 180.096 180.629 180.348 181.361 180.804V181.116ZM191.857 176.88C190.669 176.88 189.793 177.384 189.073 178.356V177.024H188.305V183H189.073V179.016C189.817 178.08 190.681 177.636 191.749 177.636C191.917 177.636 192.145 177.648 192.301 177.684L192.349 176.916C192.217 176.892 192.037 176.88 191.857 176.88ZM200.188 180.24V180.012C200.188 178.14 198.868 176.88 196.9 176.88C194.932 176.88 193.6 178.14 193.6 180.012C193.6 181.92 194.98 183.144 197.176 183.144C198.244 183.144 199.132 182.868 199.864 182.292L199.552 181.668C198.868 182.208 198.136 182.448 197.224 182.448C195.556 182.448 194.488 181.62 194.392 180.24H200.188ZM196.924 177.576C198.28 177.576 199.252 178.368 199.432 179.592H194.404C194.584 178.368 195.556 177.576 196.924 177.576ZM204.787 176.88C203.707 176.88 202.843 177.12 202.099 177.612L202.423 178.224C203.059 177.78 203.827 177.576 204.727 177.576C206.275 177.576 206.959 178.2 206.959 179.628V180.18C206.167 179.712 205.135 179.436 204.151 179.436C202.591 179.436 201.691 180.12 201.691 181.284C201.691 182.436 202.567 183.144 203.983 183.144C205.159 183.144 206.215 182.664 206.959 181.764V183H207.727V179.544C207.727 177.708 206.803 176.88 204.787 176.88ZM206.959 181.116C206.299 181.956 205.231 182.46 204.103 182.46C203.071 182.46 202.471 182.028 202.471 181.272C202.471 180.504 203.095 180.096 204.295 180.096C205.255 180.096 206.227 180.348 206.959 180.804V181.116ZM210.006 183H210.774V174.48H210.006V183ZM220.41 176.88C219.378 176.88 218.526 177.336 217.854 178.248V177.024H217.086V185.28H217.854V181.764C218.526 182.688 219.378 183.144 220.41 183.144C222.174 183.144 223.386 181.86 223.386 180.012C223.386 178.164 222.174 176.88 220.41 176.88ZM220.302 182.448C219.354 182.448 218.49 181.968 217.854 181.092V178.932C218.49 178.044 219.354 177.576 220.302 177.576C221.682 177.576 222.606 178.548 222.606 180.012C222.606 181.464 221.682 182.448 220.302 182.448ZM231.63 180.24V180.012C231.63 178.14 230.31 176.88 228.342 176.88C226.374 176.88 225.042 178.14 225.042 180.012C225.042 181.92 226.422 183.144 228.618 183.144C229.686 183.144 230.574 182.868 231.306 182.292L230.994 181.668C230.31 182.208 229.578 182.448 228.666 182.448C226.998 182.448 225.93 181.62 225.834 180.24H231.63ZM228.366 177.576C229.722 177.576 230.694 178.368 230.874 179.592H225.846C226.026 178.368 226.998 177.576 228.366 177.576ZM237.129 176.88C235.941 176.88 235.065 177.384 234.345 178.356V177.024H233.577V183H234.345V179.016C235.089 178.08 235.953 177.636 237.021 177.636C237.189 177.636 237.417 177.648 237.573 177.684L237.621 176.916C237.489 176.892 237.309 176.88 237.129 176.88ZM241.919 183.144C243.767 183.144 244.823 182.484 244.823 181.32C244.823 180.216 244.091 179.772 242.063 179.628C240.323 179.508 239.831 179.28 239.831 178.632C239.831 177.972 240.551 177.552 241.751 177.552C242.687 177.552 243.527 177.792 244.115 178.224L244.439 177.612C243.743 177.12 242.831 176.88 241.799 176.88C240.119 176.88 239.051 177.564 239.051 178.668C239.051 179.772 239.771 180.216 241.823 180.36C243.551 180.48 244.043 180.696 244.043 181.356C244.043 182.052 243.263 182.46 241.931 182.46C240.803 182.46 239.891 182.16 239.135 181.632L238.775 182.244C239.567 182.808 240.635 183.144 241.919 183.144ZM249.68 183.144C251.66 183.144 253.004 181.872 253.004 180.012C253.004 178.14 251.66 176.88 249.68 176.88C247.688 176.88 246.356 178.14 246.356 180.012C246.356 181.872 247.688 183.144 249.68 183.144ZM249.68 182.448C248.156 182.448 247.136 181.452 247.136 180.012C247.136 178.56 248.156 177.576 249.68 177.576C251.192 177.576 252.212 178.56 252.212 180.012C252.212 181.452 251.192 182.448 249.68 182.448ZM258.524 176.88C257.444 176.88 256.532 177.336 255.788 178.248V177.024H255.02V183H255.788V178.908C256.472 178.056 257.324 177.576 258.332 177.576C259.472 177.576 260.084 178.188 260.084 179.328V183H260.852V179.208C260.852 177.732 259.988 176.88 258.524 176.88ZM265.755 174.696C264.579 174.696 263.367 174.984 262.455 175.728L262.827 176.364C263.619 175.68 264.699 175.392 265.755 175.392C267.399 175.392 268.251 176.076 268.251 177.144C268.251 178.38 267.087 178.992 264.807 178.992V180.708H265.431V179.628C267.771 179.544 269.055 178.728 269.055 177.144C269.055 175.656 267.915 174.696 265.755 174.696ZM265.119 181.968C264.759 181.968 264.519 182.208 264.519 182.556C264.519 182.904 264.759 183.144 265.119 183.144C265.467 183.144 265.719 182.904 265.719 182.556C265.719 182.208 265.467 181.968 265.119 181.968ZM281.78 174.84V178.512H275.864V174.84H275.06V183H275.864V179.22H281.78V183H282.584V174.84H281.78ZM291.334 180.24V180.012C291.334 178.14 290.014 176.88 288.046 176.88C286.078 176.88 284.746 178.14 284.746 180.012C284.746 181.92 286.126 183.144 288.322 183.144C289.39 183.144 290.278 182.868 291.01 182.292L290.698 181.668C290.014 182.208 289.282 182.448 288.37 182.448C286.702 182.448 285.634 181.62 285.538 180.24H291.334ZM288.07 177.576C289.426 177.576 290.398 178.368 290.578 179.592H285.55C285.73 178.368 286.702 177.576 288.07 177.576ZM295.933 176.88C294.853 176.88 293.989 177.12 293.245 177.612L293.569 178.224C294.205 177.78 294.973 177.576 295.873 177.576C297.421 177.576 298.105 178.2 298.105 179.628V180.18C297.313 179.712 296.281 179.436 295.297 179.436C293.737 179.436 292.837 180.12 292.837 181.284C292.837 182.436 293.713 183.144 295.129 183.144C296.305 183.144 297.361 182.664 298.105 181.764V183H298.873V179.544C298.873 177.708 297.949 176.88 295.933 176.88ZM298.105 181.116C297.445 181.956 296.377 182.46 295.249 182.46C294.217 182.46 293.617 182.028 293.617 181.272C293.617 180.504 294.241 180.096 295.441 180.096C296.401 180.096 297.373 180.348 298.105 180.804V181.116ZM306.324 174.48V178.248C305.64 177.336 304.788 176.88 303.756 176.88C302.004 176.88 300.78 178.164 300.78 180.012C300.78 181.86 302.004 183.144 303.756 183.144C304.788 183.144 305.64 182.688 306.324 181.764V183H307.092V174.48H306.324ZM306.324 181.092C305.676 181.968 304.824 182.448 303.876 182.448C302.484 182.448 301.572 181.464 301.572 180.012C301.572 178.548 302.484 177.576 303.876 177.576C304.824 177.576 305.676 178.044 306.324 178.932V181.092ZM51.996 198.144C53.976 198.144 55.32 196.872 55.32 195.012C55.32 193.14 53.976 191.88 51.996 191.88C50.004 191.88 48.672 193.14 48.672 195.012C48.672 196.872 50.004 198.144 51.996 198.144ZM51.996 197.448C50.472 197.448 49.452 196.452 49.452 195.012C49.452 193.56 50.472 192.576 51.996 192.576C53.508 192.576 54.528 193.56 54.528 195.012C54.528 196.452 53.508 197.448 51.996 197.448ZM60.8405 191.88C59.7605 191.88 58.8485 192.336 58.1045 193.248V192.024H57.3365V198H58.1045V193.908C58.7885 193.056 59.6405 192.576 60.6485 192.576C61.7885 192.576 62.4005 193.188 62.4005 194.328V198H63.1685V194.208C63.1685 192.732 62.3045 191.88 60.8405 191.88ZM72.314 198.144C74.294 198.144 75.638 196.872 75.638 195.012C75.638 193.14 74.294 191.88 72.314 191.88C70.322 191.88 68.99 193.14 68.99 195.012C68.99 196.872 70.322 198.144 72.314 198.144ZM72.314 197.448C70.79 197.448 69.77 196.452 69.77 195.012C69.77 193.56 70.79 192.576 72.314 192.576C73.826 192.576 74.846 193.56 74.846 195.012C74.846 196.452 73.826 197.448 72.314 197.448ZM82.4149 192.024L79.9549 197.124L77.4829 192.024H76.6309L79.5469 198H80.3269L83.2309 192.024H82.4149ZM90.8264 195.24V195.012C90.8264 193.14 89.5064 191.88 87.5384 191.88C85.5704 191.88 84.2384 193.14 84.2384 195.012C84.2384 196.92 85.6184 198.144 87.8144 198.144C88.8824 198.144 89.7704 197.868 90.5024 197.292L90.1904 196.668C89.5064 197.208 88.7744 197.448 87.8624 197.448C86.1944 197.448 85.1264 196.62 85.0304 195.24H90.8264ZM87.5624 192.576C88.9184 192.576 89.8904 193.368 90.0704 194.592H85.0424C85.2224 193.368 86.1944 192.576 87.5624 192.576ZM96.326 191.88C95.138 191.88 94.262 192.384 93.542 193.356V192.024H92.774V198H93.542V194.016C94.286 193.08 95.15 192.636 96.218 192.636C96.386 192.636 96.614 192.648 96.77 192.684L96.818 191.916C96.686 191.892 96.506 191.88 96.326 191.88ZM106.728 197.124C106.344 197.34 105.924 197.448 105.456 197.448C104.64 197.448 104.256 197.1 104.256 196.308V192.66H106.788V192.024H104.256V189.84H103.488V192.024H101.736V192.66H103.488V196.38C103.488 197.556 104.136 198.144 105.396 198.144C105.984 198.144 106.488 198.024 106.956 197.772L106.728 197.124ZM111.719 198.144C113.699 198.144 115.043 196.872 115.043 195.012C115.043 193.14 113.699 191.88 111.719 191.88C109.727 191.88 108.395 193.14 108.395 195.012C108.395 196.872 109.727 198.144 111.719 198.144ZM111.719 197.448C110.195 197.448 109.175 196.452 109.175 195.012C109.175 193.56 110.195 192.576 111.719 192.576C113.231 192.576 114.251 193.56 114.251 195.012C114.251 196.452 113.231 197.448 111.719 197.448ZM125.242 197.124C124.858 197.34 124.438 197.448 123.97 197.448C123.154 197.448 122.77 197.1 122.77 196.308V192.66H125.302V192.024H122.77V189.84H122.002V192.024H120.25V192.66H122.002V196.38C122.002 197.556 122.65 198.144 123.91 198.144C124.498 198.144 125.002 198.024 125.47 197.772L125.242 197.124ZM130.797 191.88C129.717 191.88 128.805 192.336 128.061 193.248V189.48H127.293V198H128.061V193.908C128.745 193.056 129.597 192.576 130.605 192.576C131.745 192.576 132.357 193.188 132.357 194.328V198H133.125V194.208C133.125 192.732 132.261 191.88 130.797 191.88ZM141.637 195.24V195.012C141.637 193.14 140.317 191.88 138.349 191.88C136.381 191.88 135.049 193.14 135.049 195.012C135.049 196.92 136.429 198.144 138.625 198.144C139.693 198.144 140.581 197.868 141.313 197.292L141.001 196.668C140.317 197.208 139.585 197.448 138.673 197.448C137.005 197.448 135.937 196.62 135.841 195.24H141.637ZM138.373 192.576C139.729 192.576 140.701 193.368 140.881 194.592H135.853C136.033 193.368 137.005 192.576 138.373 192.576ZM154.466 189.84H146.93V190.548H150.29V198H151.094V190.548H154.466V189.84ZM163.8 192.024L161.928 196.992L160.02 192.024H159.3L157.404 196.992L155.532 192.024H154.716L156.996 198H157.764L159.648 193.032L161.532 198H162.3L164.592 192.024H163.8ZM169.08 198.144C171.06 198.144 172.404 196.872 172.404 195.012C172.404 193.14 171.06 191.88 169.08 191.88C167.088 191.88 165.756 193.14 165.756 195.012C165.756 196.872 167.088 198.144 169.08 198.144ZM169.08 197.448C167.556 197.448 166.536 196.452 166.536 195.012C166.536 193.56 167.556 192.576 169.08 192.576C170.592 192.576 171.612 193.56 171.612 195.012C171.612 196.452 170.592 197.448 169.08 197.448ZM180.409 193.56H177.505V190.656H176.785V193.56H173.881V194.28H176.785V197.184H177.505V194.28H180.409V193.56ZM186.177 198H186.945V189.48H186.177V198ZM189.744 190.752C190.092 190.752 190.32 190.524 190.32 190.2C190.32 189.876 190.092 189.648 189.744 189.648C189.396 189.648 189.168 189.876 189.168 190.2C189.168 190.524 189.396 190.752 189.744 190.752ZM189.36 198H190.128V192.024H189.36V198ZM197.655 192.024L195.195 197.124L192.723 192.024H191.871L194.787 198H195.567L198.471 192.024H197.655ZM206.066 195.24V195.012C206.066 193.14 204.746 191.88 202.778 191.88C200.81 191.88 199.478 193.14 199.478 195.012C199.478 196.92 200.858 198.144 203.054 198.144C204.122 198.144 205.01 197.868 205.742 197.292L205.43 196.668C204.746 197.208 204.014 197.448 203.102 197.448C201.434 197.448 200.366 196.62 200.27 195.24H206.066ZM202.802 192.576C204.158 192.576 205.13 193.368 205.31 194.592H200.282C200.462 193.368 201.434 192.576 202.802 192.576ZM214.947 198.144C215.859 198.144 216.651 197.916 217.359 197.412L217.035 196.776C216.399 197.232 215.763 197.448 214.995 197.448C213.363 197.448 212.319 196.5 212.319 195.012C212.319 193.536 213.351 192.576 214.899 192.576C215.607 192.576 216.267 192.756 216.831 193.152L217.131 192.516C216.495 192.084 215.739 191.88 214.887 191.88C212.871 191.88 211.527 193.116 211.527 195.024C211.527 196.908 212.847 198.144 214.947 198.144ZM222.101 198.144C224.081 198.144 225.425 196.872 225.425 195.012C225.425 193.14 224.081 191.88 222.101 191.88C220.109 191.88 218.777 193.14 218.777 195.012C218.777 196.872 220.109 198.144 222.101 198.144ZM222.101 197.448C220.577 197.448 219.557 196.452 219.557 195.012C219.557 193.56 220.577 192.576 222.101 192.576C223.613 192.576 224.633 193.56 224.633 195.012C224.633 196.452 223.613 197.448 222.101 197.448ZM227.441 198H228.209V189.48H227.441V198ZM230.624 198H231.392V189.48H230.624V198ZM236.435 191.88C235.355 191.88 234.491 192.12 233.747 192.612L234.071 193.224C234.707 192.78 235.475 192.576 236.375 192.576C237.923 192.576 238.607 193.2 238.607 194.628V195.18C237.815 194.712 236.783 194.436 235.799 194.436C234.239 194.436 233.339 195.12 233.339 196.284C233.339 197.436 234.215 198.144 235.631 198.144C236.807 198.144 237.863 197.664 238.607 196.764V198H239.375V194.544C239.375 192.708 238.451 191.88 236.435 191.88ZM238.607 196.116C237.947 196.956 236.879 197.46 235.751 197.46C234.719 197.46 234.119 197.028 234.119 196.272C234.119 195.504 234.743 195.096 235.943 195.096C236.903 195.096 237.875 195.348 238.607 195.804V196.116ZM244.978 191.88C243.946 191.88 243.094 192.336 242.422 193.248V189.48H241.654V198H242.422V196.764C243.094 197.688 243.946 198.144 244.978 198.144C246.742 198.144 247.954 196.86 247.954 195.012C247.954 193.164 246.742 191.88 244.978 191.88ZM244.87 197.448C243.922 197.448 243.058 196.968 242.422 196.092V193.932C243.058 193.044 243.922 192.576 244.87 192.576C246.25 192.576 247.174 193.548 247.174 195.012C247.174 196.464 246.25 197.448 244.87 197.448ZM256.506 198.144C258.354 198.144 259.41 197.484 259.41 196.32C259.41 195.216 258.678 194.772 256.65 194.628C254.91 194.508 254.418 194.28 254.418 193.632C254.418 192.972 255.138 192.552 256.338 192.552C257.274 192.552 258.114 192.792 258.702 193.224L259.026 192.612C258.33 192.12 257.418 191.88 256.386 191.88C254.706 191.88 253.638 192.564 253.638 193.668C253.638 194.772 254.358 195.216 256.41 195.36C258.138 195.48 258.63 195.696 258.63 196.356C258.63 197.052 257.85 197.46 256.518 197.46C255.39 197.46 254.478 197.16 253.722 196.632L253.362 197.244C254.154 197.808 255.222 198.144 256.506 198.144ZM267.531 195.24V195.012C267.531 193.14 266.211 191.88 264.243 191.88C262.275 191.88 260.943 193.14 260.943 195.012C260.943 196.92 262.323 198.144 264.519 198.144C265.587 198.144 266.475 197.868 267.207 197.292L266.895 196.668C266.211 197.208 265.479 197.448 264.567 197.448C262.899 197.448 261.831 196.62 261.735 195.24H267.531ZM264.267 192.576C265.623 192.576 266.595 193.368 266.775 194.592H261.747C261.927 193.368 262.899 192.576 264.267 192.576ZM272.095 198.144C273.943 198.144 274.999 197.484 274.999 196.32C274.999 195.216 274.267 194.772 272.239 194.628C270.499 194.508 270.007 194.28 270.007 193.632C270.007 192.972 270.727 192.552 271.927 192.552C272.863 192.552 273.703 192.792 274.291 193.224L274.615 192.612C273.919 192.12 273.007 191.88 271.975 191.88C270.295 191.88 269.227 192.564 269.227 193.668C269.227 194.772 269.947 195.216 271.999 195.36C273.727 195.48 274.219 195.696 274.219 196.356C274.219 197.052 273.439 197.46 272.107 197.46C270.979 197.46 270.067 197.16 269.311 196.632L268.951 197.244C269.743 197.808 270.811 198.144 272.095 198.144ZM279.531 198.144C281.379 198.144 282.435 197.484 282.435 196.32C282.435 195.216 281.703 194.772 279.675 194.628C277.935 194.508 277.443 194.28 277.443 193.632C277.443 192.972 278.163 192.552 279.363 192.552C280.299 192.552 281.139 192.792 281.727 193.224L282.051 192.612C281.355 192.12 280.443 191.88 279.411 191.88C277.731 191.88 276.663 192.564 276.663 193.668C276.663 194.772 277.383 195.216 279.435 195.36C281.163 195.48 281.655 195.696 281.655 196.356C281.655 197.052 280.875 197.46 279.543 197.46C278.415 197.46 277.503 197.16 276.747 196.632L276.387 197.244C277.179 197.808 278.247 198.144 279.531 198.144ZM284.736 190.752C285.084 190.752 285.312 190.524 285.312 190.2C285.312 189.876 285.084 189.648 284.736 189.648C284.388 189.648 284.16 189.876 284.16 190.2C284.16 190.524 284.388 190.752 284.736 190.752ZM284.352 198H285.12V192.024H284.352V198ZM290.475 198.144C292.455 198.144 293.799 196.872 293.799 195.012C293.799 193.14 292.455 191.88 290.475 191.88C288.483 191.88 287.151 193.14 287.151 195.012C287.151 196.872 288.483 198.144 290.475 198.144ZM290.475 197.448C288.951 197.448 287.931 196.452 287.931 195.012C287.931 193.56 288.951 192.576 290.475 192.576C291.987 192.576 293.007 193.56 293.007 195.012C293.007 196.452 291.987 197.448 290.475 197.448ZM299.319 191.88C298.239 191.88 297.327 192.336 296.583 193.248V192.024H295.815V198H296.583V193.908C297.267 193.056 298.119 192.576 299.127 192.576C300.267 192.576 300.879 193.188 300.879 194.328V198H301.647V194.208C301.647 192.732 300.783 191.88 299.319 191.88ZM306.571 198.144C308.419 198.144 309.475 197.484 309.475 196.32C309.475 195.216 308.743 194.772 306.715 194.628C304.975 194.508 304.483 194.28 304.483 193.632C304.483 192.972 305.203 192.552 306.403 192.552C307.339 192.552 308.179 192.792 308.767 193.224L309.091 192.612C308.395 192.12 307.483 191.88 306.451 191.88C304.771 191.88 303.703 192.564 303.703 193.668C303.703 194.772 304.423 195.216 306.475 195.36C308.203 195.48 308.695 195.696 308.695 196.356C308.695 197.052 307.915 197.46 306.583 197.46C305.455 197.46 304.543 197.16 303.787 196.632L303.427 197.244C304.219 197.808 305.287 198.144 306.571 198.144ZM53.34 212.124C52.956 212.34 52.536 212.448 52.068 212.448C51.252 212.448 50.868 212.1 50.868 211.308V207.66H53.4V207.024H50.868V204.84H50.1V207.024H48.348V207.66H50.1V211.38C50.1 212.556 50.748 213.144 52.008 213.144C52.596 213.144 53.1 213.024 53.568 212.772L53.34 212.124ZM58.3312 213.144C60.3112 213.144 61.6552 211.872 61.6552 210.012C61.6552 208.14 60.3112 206.88 58.3312 206.88C56.3392 206.88 55.0072 208.14 55.0072 210.012C55.0072 211.872 56.3392 213.144 58.3312 213.144ZM58.3312 212.448C56.8072 212.448 55.7872 211.452 55.7872 210.012C55.7872 208.56 56.8072 207.576 58.3312 207.576C59.8432 207.576 60.8632 208.56 60.8632 210.012C60.8632 211.452 59.8432 212.448 58.3312 212.448ZM72.7413 207.024V208.248C72.0573 207.336 71.2053 206.88 70.1733 206.88C68.4213 206.88 67.1973 208.164 67.1973 210.012C67.1973 211.86 68.4213 213.144 70.1733 213.144C71.2053 213.144 72.0573 212.688 72.7413 211.764V212.424C72.7413 213.96 71.8773 214.728 70.1733 214.728C69.3573 214.728 68.6853 214.548 67.9893 214.128L67.7133 214.764C68.4333 215.208 69.2493 215.424 70.2333 215.424C72.3693 215.424 73.5093 214.416 73.5093 212.52V207.024H72.7413ZM72.7413 211.092C72.0933 211.968 71.2413 212.448 70.2933 212.448C68.9013 212.448 67.9893 211.464 67.9893 210.012C67.9893 208.548 68.9013 207.576 70.2933 207.576C71.2413 207.576 72.0933 208.044 72.7413 208.932V211.092ZM82.1123 210.24V210.012C82.1123 208.14 80.7923 206.88 78.8243 206.88C76.8563 206.88 75.5243 208.14 75.5243 210.012C75.5243 211.92 76.9043 213.144 79.1003 213.144C80.1683 213.144 81.0563 212.868 81.7883 212.292L81.4763 211.668C80.7923 212.208 80.0603 212.448 79.1483 212.448C77.4803 212.448 76.4123 211.62 76.3163 210.24H82.1123ZM78.8483 207.576C80.2043 207.576 81.1763 208.368 81.3563 209.592H76.3283C76.5083 208.368 77.4803 207.576 78.8483 207.576ZM88.3322 212.124C87.9482 212.34 87.5282 212.448 87.0602 212.448C86.2442 212.448 85.8602 212.1 85.8602 211.308V207.66H88.3922V207.024H85.8602V204.84H85.0922V207.024H83.3402V207.66H85.0922V211.38C85.0922 212.556 85.7402 213.144 87.0002 213.144C87.5882 213.144 88.0922 213.024 88.5602 212.772L88.3322 212.124ZM97.605 206.88C96.573 206.88 95.721 207.336 95.049 208.248V207.024H94.281V215.28H95.049V211.764C95.721 212.688 96.573 213.144 97.605 213.144C99.369 213.144 100.581 211.86 100.581 210.012C100.581 208.164 99.369 206.88 97.605 206.88ZM97.497 212.448C96.549 212.448 95.685 211.968 95.049 211.092V208.932C95.685 208.044 96.549 207.576 97.497 207.576C98.877 207.576 99.801 208.548 99.801 210.012C99.801 211.464 98.877 212.448 97.497 212.448ZM108.824 210.24V210.012C108.824 208.14 107.504 206.88 105.536 206.88C103.568 206.88 102.236 208.14 102.236 210.012C102.236 211.92 103.616 213.144 105.812 213.144C106.88 213.144 107.768 212.868 108.5 212.292L108.188 211.668C107.504 212.208 106.772 212.448 105.86 212.448C104.192 212.448 103.124 211.62 103.028 210.24H108.824ZM105.56 207.576C106.916 207.576 107.888 208.368 108.068 209.592H103.04C103.22 208.368 104.192 207.576 105.56 207.576ZM114.324 206.88C113.136 206.88 112.26 207.384 111.54 208.356V207.024H110.772V213H111.54V209.016C112.284 208.08 113.148 207.636 114.216 207.636C114.384 207.636 114.612 207.648 114.768 207.684L114.816 206.916C114.684 206.892 114.504 206.88 114.324 206.88ZM119.113 213.144C120.961 213.144 122.017 212.484 122.017 211.32C122.017 210.216 121.285 209.772 119.257 209.628C117.517 209.508 117.025 209.28 117.025 208.632C117.025 207.972 117.745 207.552 118.945 207.552C119.881 207.552 120.721 207.792 121.309 208.224L121.633 207.612C120.937 207.12 120.025 206.88 118.993 206.88C117.313 206.88 116.245 207.564 116.245 208.668C116.245 209.772 116.965 210.216 119.017 210.36C120.745 210.48 121.237 210.696 121.237 211.356C121.237 212.052 120.457 212.46 119.125 212.46C117.997 212.46 117.085 212.16 116.329 211.632L115.969 212.244C116.761 212.808 117.829 213.144 119.113 213.144ZM126.874 213.144C128.854 213.144 130.198 211.872 130.198 210.012C130.198 208.14 128.854 206.88 126.874 206.88C124.882 206.88 123.55 208.14 123.55 210.012C123.55 211.872 124.882 213.144 126.874 213.144ZM126.874 212.448C125.35 212.448 124.33 211.452 124.33 210.012C124.33 208.56 125.35 207.576 126.874 207.576C128.386 207.576 129.406 208.56 129.406 210.012C129.406 211.452 128.386 212.448 126.874 212.448ZM135.719 206.88C134.639 206.88 133.727 207.336 132.983 208.248V207.024H132.215V213H132.983V208.908C133.667 208.056 134.519 207.576 135.527 207.576C136.667 207.576 137.279 208.188 137.279 209.328V213H138.047V209.208C138.047 207.732 137.183 206.88 135.719 206.88ZM142.982 206.88C141.902 206.88 141.038 207.12 140.294 207.612L140.618 208.224C141.254 207.78 142.022 207.576 142.922 207.576C144.47 207.576 145.154 208.2 145.154 209.628V210.18C144.362 209.712 143.33 209.436 142.346 209.436C140.786 209.436 139.886 210.12 139.886 211.284C139.886 212.436 140.762 213.144 142.178 213.144C143.354 213.144 144.41 212.664 145.154 211.764V213H145.922V209.544C145.922 207.708 144.998 206.88 142.982 206.88ZM145.154 211.116C144.494 211.956 143.426 212.46 142.298 212.46C141.266 212.46 140.666 212.028 140.666 211.272C140.666 210.504 141.29 210.096 142.49 210.096C143.45 210.096 144.422 210.348 145.154 210.804V211.116ZM148.201 213H148.969V204.48H148.201V213ZM151.768 205.752C152.116 205.752 152.344 205.524 152.344 205.2C152.344 204.876 152.116 204.648 151.768 204.648C151.42 204.648 151.192 204.876 151.192 205.2C151.192 205.524 151.42 205.752 151.768 205.752ZM151.384 213H152.152V207.024H151.384V213ZM159.823 207.024H154.243V207.66H158.707L154.063 212.448V213H159.823V212.352H155.179L159.823 207.564V207.024ZM167.926 210.24V210.012C167.926 208.14 166.606 206.88 164.638 206.88C162.67 206.88 161.338 208.14 161.338 210.012C161.338 211.92 162.718 213.144 164.914 213.144C165.982 213.144 166.87 212.868 167.602 212.292L167.29 211.668C166.606 212.208 165.874 212.448 164.962 212.448C163.294 212.448 162.226 211.62 162.13 210.24H167.926ZM164.662 207.576C166.018 207.576 166.99 208.368 167.17 209.592H162.142C162.322 208.368 163.294 207.576 164.662 207.576ZM175.081 204.48V208.248C174.397 207.336 173.545 206.88 172.513 206.88C170.761 206.88 169.537 208.164 169.537 210.012C169.537 211.86 170.761 213.144 172.513 213.144C173.545 213.144 174.397 212.688 175.081 211.764V213H175.849V204.48H175.081ZM175.081 211.092C174.433 211.968 173.581 212.448 172.633 212.448C171.241 212.448 170.329 211.464 170.329 210.012C170.329 208.548 171.241 207.576 172.633 207.576C173.581 207.576 174.433 208.044 175.081 208.932V211.092ZM185.65 206.88C184.57 206.88 183.658 207.336 182.914 208.248V204.48H182.146V213H182.914V208.908C183.598 208.056 184.45 207.576 185.458 207.576C186.598 207.576 187.21 208.188 187.21 209.328V213H187.978V209.208C187.978 207.732 187.114 206.88 185.65 206.88ZM196.49 210.24V210.012C196.49 208.14 195.17 206.88 193.202 206.88C191.234 206.88 189.902 208.14 189.902 210.012C189.902 211.92 191.282 213.144 193.478 213.144C194.546 213.144 195.434 212.868 196.166 212.292L195.854 211.668C195.17 212.208 194.438 212.448 193.526 212.448C191.858 212.448 190.79 211.62 190.694 210.24H196.49ZM193.226 207.576C194.582 207.576 195.554 208.368 195.734 209.592H190.706C190.886 208.368 191.858 207.576 193.226 207.576ZM198.437 213H199.205V204.48H198.437V213ZM204.944 206.88C203.912 206.88 203.06 207.336 202.388 208.248V207.024H201.62V215.28H202.388V211.764C203.06 212.688 203.912 213.144 204.944 213.144C206.708 213.144 207.92 211.86 207.92 210.012C207.92 208.164 206.708 206.88 204.944 206.88ZM204.836 212.448C203.888 212.448 203.024 211.968 202.388 211.092V208.932C203.024 208.044 203.888 207.576 204.836 207.576C206.216 207.576 207.14 208.548 207.14 210.012C207.14 211.464 206.216 212.448 204.836 212.448ZM210.242 213.144C210.59 213.144 210.842 212.904 210.842 212.556C210.842 212.208 210.59 211.968 210.242 211.968C209.894 211.968 209.642 212.208 209.642 212.556C209.642 212.904 209.894 213.144 210.242 213.144Z" fill="black"/>
<path d="M56.232 69.84H48.468V71.088H51.624V78H53.076V71.088H56.232V69.84ZM65.4128 71.964L63.9368 76.284L62.3528 71.964H61.1048L59.5328 76.284L58.0568 71.964H56.5808L58.7648 78H60.1568L61.7048 73.68L63.2648 78H64.6448L66.8288 71.964H65.4128ZM71.2403 78.144C73.2923 78.144 74.6603 76.884 74.6603 74.988C74.6603 73.092 73.2923 71.82 71.2403 71.82C69.1883 71.82 67.8203 73.092 67.8203 74.988C67.8203 76.884 69.1883 78.144 71.2403 78.144ZM71.2403 76.944C70.0283 76.944 69.2363 76.164 69.2363 74.988C69.2363 73.8 70.0283 73.02 71.2403 73.02C72.4523 73.02 73.2443 73.8 73.2443 74.988C73.2443 76.164 72.4523 76.944 71.2403 76.944ZM82.593 73.308H79.917V70.632H78.693V73.308H76.017V74.532H78.693V77.208H79.917V74.532H82.593V73.308ZM89.8253 76.752V69.84H88.3733V78H95.3693V76.752H89.8253ZM97.7799 70.896C98.2839 70.896 98.6319 70.56 98.6319 70.08C98.6319 69.612 98.2839 69.276 97.7799 69.276C97.2759 69.276 96.9279 69.612 96.9279 70.08C96.9279 70.56 97.2759 70.896 97.7799 70.896ZM97.0839 78H98.4759V71.964H97.0839V78ZM105.453 71.964L103.497 76.476L101.529 71.964H100.017L102.753 78H104.181L106.905 71.964H105.453ZM114.449 75.408C114.461 75.264 114.461 75.12 114.461 74.988C114.461 73.068 113.153 71.82 111.149 71.82C109.109 71.82 107.741 73.092 107.741 74.988C107.741 76.944 109.133 78.144 111.437 78.144C112.505 78.144 113.405 77.892 114.161 77.376L113.693 76.284C113.009 76.752 112.337 76.956 111.533 76.956C110.189 76.956 109.361 76.404 109.181 75.408H114.449ZM111.161 72.984C112.169 72.984 112.877 73.512 113.093 74.376H109.217C109.445 73.512 110.153 72.984 111.161 72.984Z" fill="#889DE2"/>
<defs>
<filter id="filter0_dddd" x="0" y="0" width="370" height="334" filterUnits="userSpaceOnUse" color-interpolation-filters="sRGB">
<feFlood flood-opacity="0" result="BackgroundImageFix"/>
<feColorMatrix in="SourceAlpha" type="matrix" values="0 0 0 0 0 0 0 0 0 0 0 0 0 0 0 0 0 0 127 0"/>
<feOffset dx="-10" dy="-10"/>
<feGaussianBlur stdDeviation="10"/>
<feColorMatrix type="matrix" values="0 0 0 0 1 0 0 0 0 1 0 0 0 0 1 0 0 0 1 0"/>
<feBlend mode="normal" in2="BackgroundImageFix" result="effect1_dropShadow"/>
<feColorMatrix in="SourceAlpha" type="matrix" values="0 0 0 0 0 0 0 0 0 0 0 0 0 0 0 0 0 0 127 0"/>
<feOffset dx="10" dy="10"/>
<feGaussianBlur stdDeviation="10"/>
<feColorMatrix type="matrix" values="0 0 0 0 0.666667 0 0 0 0 0.666667 0 0 0 0 0.8 0 0 0 0.5 0"/>
<feBlend mode="normal" in2="effect1_dropShadow" result="effect2_dropShadow"/>
<feColorMatrix in="SourceAlpha" type="matrix" values="0 0 0 0 0 0 0 0 0 0 0 0 0 0 0 0 0 0 127 0"/>
<feOffset dx="5" dy="5"/>
<feGaussianBlur stdDeviation="5"/>
<feColorMatrix type="matrix" values="0 0 0 0 0.666667 0 0 0 0 0.666667 0 0 0 0 0.8 0 0 0 0.25 0"/>
<feBlend mode="normal" in2="effect2_dropShadow" result="effect3_dropShadow"/>
<feColorMatrix in="SourceAlpha" type="matrix" values="0 0 0 0 0 0 0 0 0 0 0 0 0 0 0 0 0 0 127 0"/>
<feOffset dx="-5" dy="-5"/>
<feGaussianBlur stdDeviation="5"/>
<feColorMatrix type="matrix" values="0 0 0 0 1 0 0 0 0 1 0 0 0 0 1 0 0 0 0.5 0"/>
<feBlend mode="normal" in2="effect3_dropShadow" result="effect4_dropShadow"/>
<feBlend mode="normal" in="SourceGraphic" in2="effect4_dropShadow" result="shape"/>
</filter>
</defs>
</svg>
