<svg width="370" height="334" viewBox="0 0 370 334" fill="none" xmlns="http://www.w3.org/2000/svg">
<g filter="url(#filter0_dddd)">
<rect x="30" y="30" width="310" height="274" rx="39" fill="#F8F8F8"/>
</g>
<path d="M56.9512 92.2627H69.2383V94.7061H59.7373V98.3008H67.8057V100.595H59.7373V106H56.9512V92.2627ZM70.9785 100.814C70.9785 100.07 71.1279 99.373 71.4268 98.7227C71.7314 98.0723 72.1621 97.5039 72.7188 97.0176C73.2812 96.5312 73.958 96.1475 74.749 95.8662C75.5459 95.585 76.4395 95.4443 77.4297 95.4443C78.4199 95.4443 79.3105 95.585 80.1016 95.8662C80.8984 96.1475 81.5752 96.5312 82.1318 97.0176C82.6943 97.5039 83.125 98.0723 83.4238 98.7227C83.7285 99.373 83.8809 100.07 83.8809 100.814C83.8809 101.559 83.7285 102.256 83.4238 102.906C83.125 103.557 82.6943 104.125 82.1318 104.611C81.5752 105.098 80.8984 105.481 80.1016 105.763C79.3105 106.044 78.4199 106.185 77.4297 106.185C76.4395 106.185 75.5459 106.044 74.749 105.763C73.958 105.481 73.2812 105.098 72.7188 104.611C72.1621 104.125 71.7314 103.557 71.4268 102.906C71.1279 102.256 70.9785 101.559 70.9785 100.814ZM73.7119 100.814C73.7119 101.23 73.7939 101.626 73.958 102.001C74.1279 102.37 74.3711 102.698 74.6875 102.985C75.0098 103.267 75.3994 103.492 75.8564 103.662C76.3193 103.826 76.8438 103.908 77.4297 103.908C78.0156 103.908 78.5371 103.826 78.9941 103.662C79.457 103.492 79.8467 103.267 80.1631 102.985C80.4854 102.698 80.7285 102.37 80.8926 102.001C81.0625 101.626 81.1475 101.23 81.1475 100.814C81.1475 100.398 81.0625 100.003 80.8926 99.6279C80.7285 99.2529 80.4854 98.9248 80.1631 98.6436C79.8467 98.3564 79.457 98.1309 78.9941 97.9668C78.5371 97.7969 78.0156 97.7119 77.4297 97.7119C76.8438 97.7119 76.3193 97.7969 75.8564 97.9668C75.3994 98.1309 75.0098 98.3564 74.6875 98.6436C74.3711 98.9248 74.1279 99.2529 73.958 99.6279C73.7939 100.003 73.7119 100.398 73.7119 100.814ZM86.5791 91.4189H89.1807V106H86.5791V91.4189ZM92.5908 91.4189H95.1924V106H92.5908V91.4189ZM97.9082 100.814C97.9082 100.07 98.0576 99.373 98.3564 98.7227C98.6611 98.0723 99.0918 97.5039 99.6484 97.0176C100.211 96.5312 100.888 96.1475 101.679 95.8662C102.476 95.585 103.369 95.4443 104.359 95.4443C105.35 95.4443 106.24 95.585 107.031 95.8662C107.828 96.1475 108.505 96.5312 109.062 97.0176C109.624 97.5039 110.055 98.0723 110.354 98.7227C110.658 99.373 110.811 100.07 110.811 100.814C110.811 101.559 110.658 102.256 110.354 102.906C110.055 103.557 109.624 104.125 109.062 104.611C108.505 105.098 107.828 105.481 107.031 105.763C106.24 106.044 105.35 106.185 104.359 106.185C103.369 106.185 102.476 106.044 101.679 105.763C100.888 105.481 100.211 105.098 99.6484 104.611C99.0918 104.125 98.6611 103.557 98.3564 102.906C98.0576 102.256 97.9082 101.559 97.9082 100.814ZM100.642 100.814C100.642 101.23 100.724 101.626 100.888 102.001C101.058 102.37 101.301 102.698 101.617 102.985C101.939 103.267 102.329 103.492 102.786 103.662C103.249 103.826 103.773 103.908 104.359 103.908C104.945 103.908 105.467 103.826 105.924 103.662C106.387 103.492 106.776 103.267 107.093 102.985C107.415 102.698 107.658 102.37 107.822 102.001C107.992 101.626 108.077 101.23 108.077 100.814C108.077 100.398 107.992 100.003 107.822 99.6279C107.658 99.2529 107.415 98.9248 107.093 98.6436C106.776 98.3564 106.387 98.1309 105.924 97.9668C105.467 97.7969 104.945 97.7119 104.359 97.7119C103.773 97.7119 103.249 97.7969 102.786 97.9668C102.329 98.1309 101.939 98.3564 101.617 98.6436C101.301 98.9248 101.058 99.2529 100.888 99.6279C100.724 100.003 100.642 100.398 100.642 100.814ZM112.006 95.6201H115.021L117.719 101.86L118.51 103.609L119.477 101.342L116.91 95.6201H119.441L120.698 98.6963L121.955 95.6201H124.486L121.911 101.342L122.887 103.609L123.678 101.86L126.376 95.6201H129.391L124.478 106H121.647L120.698 103.996L119.749 106H116.919L112.006 95.6201ZM135.736 92.2627H138.777L142.504 101.131L143.365 103.275L144.042 101.131L145.413 97.8965L142.943 92.2627H145.809L146.819 94.9434L147.76 92.2627H150.625L148.155 97.8965L149.553 101.201L150.396 103.275L151.047 101.166L154.791 92.2627H157.832L151.768 106H149.008L147.786 103.275L146.793 100.63L145.8 103.275L144.561 106H141.801L135.736 92.2627ZM159.634 91.4277H162.235V96.4199C162.78 96.1211 163.387 95.8838 164.055 95.708C164.729 95.5322 165.435 95.4443 166.173 95.4443C167.028 95.4443 167.796 95.5703 168.476 95.8223C169.161 96.0742 169.741 96.4375 170.216 96.9121C170.69 97.3809 171.054 97.9521 171.306 98.626C171.563 99.2998 171.692 100.059 171.692 100.902V106H169.1V101.008C169.1 100.516 169.021 100.067 168.862 99.6631C168.704 99.2529 168.473 98.9014 168.168 98.6084C167.863 98.3154 167.491 98.0898 167.052 97.9316C166.618 97.7676 166.126 97.6855 165.575 97.6855C164.913 97.6855 164.298 97.791 163.729 98.002C163.161 98.2129 162.663 98.4795 162.235 98.8018V106H159.634V91.4277ZM174.118 102.73C174.118 102.232 174.227 101.778 174.443 101.368C174.66 100.958 174.985 100.606 175.419 100.313C175.853 100.015 176.392 99.7861 177.036 99.6279C177.687 99.4639 178.442 99.3818 179.304 99.3818C179.942 99.3818 180.613 99.4287 181.316 99.5225C182.025 99.6162 182.755 99.7598 183.505 99.9531C183.476 99.625 183.376 99.3232 183.206 99.0479C183.036 98.7666 182.799 98.5264 182.494 98.3271C182.195 98.1221 181.832 97.9639 181.404 97.8525C180.982 97.7412 180.502 97.6855 179.963 97.6855C179.67 97.6855 179.348 97.7031 178.996 97.7383C178.645 97.7734 178.281 97.8262 177.906 97.8965C177.531 97.9668 177.159 98.0547 176.79 98.1602C176.427 98.2656 176.087 98.3916 175.771 98.5381L174.979 96.4023C175.372 96.2617 175.791 96.1328 176.236 96.0156C176.688 95.8984 177.147 95.7988 177.616 95.7168C178.085 95.6289 178.554 95.5615 179.022 95.5146C179.491 95.4678 179.945 95.4443 180.385 95.4443C182.324 95.4443 183.766 95.9395 184.709 96.9297C185.652 97.9199 186.124 99.4375 186.124 101.482V106H183.522V105.024C183.253 105.183 182.957 105.332 182.635 105.473C182.318 105.613 181.973 105.736 181.598 105.842C181.223 105.947 180.818 106.029 180.385 106.088C179.957 106.152 179.503 106.185 179.022 106.185C178.214 106.185 177.502 106.097 176.887 105.921C176.277 105.745 175.768 105.502 175.357 105.191C174.947 104.881 174.637 104.518 174.426 104.102C174.221 103.68 174.118 103.223 174.118 102.73ZM176.86 102.643C176.86 102.812 176.904 102.977 176.992 103.135C177.08 103.287 177.221 103.425 177.414 103.548C177.607 103.665 177.854 103.762 178.152 103.838C178.457 103.908 178.823 103.943 179.251 103.943C179.708 103.943 180.15 103.902 180.578 103.82C181.006 103.738 181.404 103.63 181.773 103.495C182.143 103.36 182.477 103.205 182.775 103.029C183.074 102.854 183.323 102.672 183.522 102.484V102.027C183.124 101.916 182.729 101.822 182.336 101.746C181.949 101.67 181.577 101.611 181.22 101.57C180.868 101.523 180.534 101.491 180.218 101.474C179.907 101.456 179.635 101.447 179.4 101.447C178.914 101.447 178.51 101.479 178.188 101.544C177.865 101.608 177.604 101.696 177.405 101.808C177.206 101.913 177.065 102.039 176.983 102.186C176.901 102.332 176.86 102.484 176.86 102.643ZM191.134 97.5801H188.629V95.6289H191.134V92.4033H193.735V95.6289H196.24V97.5801H193.735V106H191.134V97.5801ZM204.502 92.2627H207.306V106H204.502V92.2627ZM210.54 95.6289H213.142V96.5078C213.833 96.1152 214.492 95.8398 215.119 95.6816C215.752 95.5234 216.37 95.4443 216.974 95.4443C217.765 95.4443 218.497 95.5615 219.171 95.7959C219.845 96.0244 220.428 96.3672 220.92 96.8242C221.412 97.2812 221.796 97.8525 222.071 98.5381C222.353 99.2178 222.493 100.006 222.493 100.902V106H219.9V101.324C219.9 100.756 219.818 100.249 219.654 99.8037C219.496 99.3525 219.265 98.9746 218.96 98.6699C218.661 98.3594 218.295 98.125 217.861 97.9668C217.434 97.8027 216.953 97.7207 216.42 97.7207C216.139 97.7207 215.849 97.75 215.55 97.8086C215.257 97.8672 214.967 97.9521 214.68 98.0635C214.398 98.1689 214.126 98.3037 213.862 98.4678C213.599 98.626 213.358 98.8076 213.142 99.0127V106H210.54V95.6289ZM226.105 102.818C226.809 103.24 227.582 103.551 228.426 103.75C229.27 103.949 230.134 104.049 231.019 104.049C231.616 104.049 232.114 104.008 232.513 103.926C232.911 103.844 233.23 103.738 233.471 103.609C233.711 103.48 233.881 103.334 233.98 103.17C234.08 103.006 234.13 102.839 234.13 102.669C234.13 102.423 234.021 102.212 233.805 102.036C233.594 101.86 233.242 101.772 232.75 101.772C232.521 101.772 232.275 101.787 232.012 101.816C231.748 101.846 231.47 101.878 231.177 101.913C230.89 101.942 230.588 101.972 230.271 102.001C229.961 102.03 229.645 102.045 229.322 102.045C228.619 102.045 228.019 101.969 227.521 101.816C227.028 101.664 226.627 101.456 226.316 101.192C226.006 100.929 225.78 100.618 225.64 100.261C225.499 99.8975 225.429 99.5078 225.429 99.0918C225.429 98.5645 225.552 98.0781 225.798 97.6328C226.044 97.1875 226.396 96.8037 226.853 96.4814C227.31 96.1533 227.86 95.8984 228.505 95.7168C229.155 95.5352 229.879 95.4443 230.676 95.4443C231.092 95.4443 231.525 95.4707 231.977 95.5234C232.434 95.5703 232.882 95.6348 233.321 95.7168C233.761 95.7988 234.183 95.8955 234.587 96.0068C234.991 96.1123 235.349 96.2266 235.659 96.3496L234.842 98.3711C234.18 98.125 233.518 97.9316 232.855 97.791C232.199 97.6445 231.522 97.5713 230.825 97.5713C230.339 97.5713 229.926 97.6094 229.586 97.6855C229.252 97.7559 228.979 97.8525 228.769 97.9756C228.558 98.0928 228.402 98.2305 228.303 98.3887C228.209 98.541 228.162 98.7021 228.162 98.8721C228.162 98.9951 228.186 99.1064 228.232 99.2061C228.285 99.3057 228.367 99.3936 228.479 99.4697C228.596 99.54 228.745 99.5957 228.927 99.6367C229.114 99.6719 229.343 99.6895 229.612 99.6895C229.858 99.6895 230.119 99.6748 230.395 99.6455C230.67 99.6162 230.957 99.5869 231.256 99.5576C231.555 99.5225 231.862 99.4902 232.179 99.4609C232.501 99.4316 232.829 99.417 233.163 99.417C233.784 99.417 234.326 99.4902 234.789 99.6367C235.258 99.7832 235.645 99.9883 235.949 100.252C236.254 100.516 236.482 100.826 236.635 101.184C236.787 101.541 236.863 101.931 236.863 102.353C236.863 102.897 236.737 103.404 236.485 103.873C236.233 104.342 235.858 104.749 235.36 105.095C234.862 105.435 234.241 105.701 233.497 105.895C232.759 106.088 231.903 106.185 230.931 106.185C230.333 106.185 229.756 106.146 229.199 106.07C228.643 106 228.112 105.903 227.608 105.78C227.104 105.651 226.63 105.502 226.185 105.332C225.745 105.162 225.344 104.98 224.98 104.787L226.105 102.818ZM241.741 110.236H239.14V95.6289H241.741V96.6045C241.97 96.4463 242.239 96.2969 242.55 96.1562C242.86 96.0156 243.194 95.8926 243.552 95.7871C243.909 95.6816 244.278 95.5996 244.659 95.541C245.04 95.4766 245.421 95.4443 245.802 95.4443C246.681 95.4443 247.486 95.5732 248.219 95.8311C248.957 96.0889 249.59 96.4521 250.117 96.9209C250.645 97.3896 251.055 97.9521 251.348 98.6084C251.646 99.2588 251.796 99.9795 251.796 100.771C251.796 101.597 251.641 102.344 251.33 103.012C251.02 103.674 250.589 104.242 250.038 104.717C249.493 105.186 248.843 105.549 248.087 105.807C247.337 106.059 246.522 106.185 245.644 106.185C245.269 106.185 244.896 106.161 244.527 106.114C244.164 106.067 243.812 106.003 243.473 105.921C243.139 105.839 242.822 105.742 242.523 105.631C242.23 105.514 241.97 105.388 241.741 105.253V110.236ZM241.741 102.739C242.005 102.95 242.283 103.129 242.576 103.275C242.869 103.422 243.168 103.542 243.473 103.636C243.777 103.729 244.085 103.8 244.396 103.847C244.706 103.888 245.008 103.908 245.301 103.908C245.898 103.908 246.429 103.829 246.892 103.671C247.36 103.507 247.753 103.284 248.069 103.003C248.392 102.722 248.638 102.391 248.808 102.01C248.978 101.629 249.062 101.216 249.062 100.771C249.062 100.354 248.978 99.9619 248.808 99.5928C248.644 99.2236 248.403 98.9014 248.087 98.626C247.776 98.3447 247.398 98.125 246.953 97.9668C246.514 97.8027 246.019 97.7207 245.468 97.7207C245.116 97.7207 244.765 97.7559 244.413 97.8262C244.062 97.8906 243.722 97.9844 243.394 98.1074C243.071 98.2305 242.767 98.3799 242.479 98.5557C242.198 98.7314 241.952 98.9277 241.741 99.1445V102.739ZM255.628 94.2139C255.37 94.2139 255.136 94.1787 254.925 94.1084C254.72 94.0322 254.544 93.9326 254.397 93.8096C254.251 93.6807 254.137 93.5342 254.055 93.3701C253.979 93.2002 253.94 93.0215 253.94 92.834C253.94 92.6406 253.979 92.4619 254.055 92.2979C254.137 92.1279 254.251 91.9814 254.397 91.8584C254.544 91.7354 254.72 91.6387 254.925 91.5684C255.136 91.4922 255.37 91.4541 255.628 91.4541C255.892 91.4541 256.126 91.4922 256.331 91.5684C256.542 91.6387 256.721 91.7354 256.867 91.8584C257.014 91.9814 257.125 92.1279 257.201 92.2979C257.283 92.4619 257.324 92.6406 257.324 92.834C257.324 93.0215 257.283 93.2002 257.201 93.3701C257.125 93.5342 257.014 93.6807 256.867 93.8096C256.721 93.9326 256.542 94.0322 256.331 94.1084C256.126 94.1787 255.892 94.2139 255.628 94.2139ZM254.327 95.6289H256.929V106H254.327V95.6289ZM260.269 95.6289H262.87V97.123C263.444 96.6953 264.051 96.3262 264.689 96.0156C265.328 95.7051 265.964 95.4678 266.597 95.3037L267.361 97.6855C266.359 97.7852 265.478 98.0107 264.716 98.3623C263.96 98.708 263.345 99.1973 262.87 99.8301V106H260.269V95.6289ZM268.812 100.779C268.812 100.076 268.955 99.4053 269.242 98.7666C269.529 98.1221 269.942 97.5537 270.481 97.0615C271.021 96.5693 271.68 96.1768 272.459 95.8838C273.244 95.5908 274.135 95.4443 275.131 95.4443C276.121 95.4443 277.012 95.5938 277.803 95.8926C278.6 96.1855 279.273 96.5898 279.824 97.1055C280.381 97.6211 280.806 98.2275 281.099 98.9248C281.397 99.6221 281.547 100.369 281.547 101.166C281.547 101.266 281.544 101.374 281.538 101.491C281.538 101.603 281.532 101.705 281.521 101.799H271.712C271.823 102.109 272.002 102.394 272.248 102.651C272.5 102.909 272.813 103.132 273.188 103.319C273.563 103.507 273.997 103.653 274.489 103.759C274.981 103.858 275.526 103.908 276.124 103.908C276.722 103.908 277.316 103.847 277.908 103.724C278.5 103.595 279.065 103.434 279.604 103.24L280.483 105.227C280.144 105.385 279.798 105.525 279.446 105.648C279.101 105.766 278.737 105.865 278.356 105.947C277.981 106.023 277.586 106.082 277.17 106.123C276.76 106.164 276.326 106.185 275.869 106.185C274.703 106.185 273.681 106.044 272.802 105.763C271.923 105.481 271.188 105.098 270.596 104.611C270.004 104.125 269.559 103.554 269.26 102.897C268.961 102.241 268.812 101.535 268.812 100.779ZM278.787 99.7686C278.693 99.4814 278.547 99.2148 278.348 98.9688C278.154 98.7168 277.911 98.5 277.618 98.3184C277.325 98.1309 276.985 97.9844 276.599 97.8789C276.212 97.7734 275.787 97.7207 275.324 97.7207C274.832 97.7207 274.384 97.7764 273.979 97.8877C273.575 97.999 273.221 98.1484 272.916 98.3359C272.611 98.5234 272.356 98.7402 272.151 98.9863C271.952 99.2324 271.806 99.4932 271.712 99.7686H278.787ZM284.764 102.818C285.467 103.24 286.24 103.551 287.084 103.75C287.928 103.949 288.792 104.049 289.677 104.049C290.274 104.049 290.772 104.008 291.171 103.926C291.569 103.844 291.889 103.738 292.129 103.609C292.369 103.48 292.539 103.334 292.639 103.17C292.738 103.006 292.788 102.839 292.788 102.669C292.788 102.423 292.68 102.212 292.463 102.036C292.252 101.86 291.9 101.772 291.408 101.772C291.18 101.772 290.934 101.787 290.67 101.816C290.406 101.846 290.128 101.878 289.835 101.913C289.548 101.942 289.246 101.972 288.93 102.001C288.619 102.03 288.303 102.045 287.98 102.045C287.277 102.045 286.677 101.969 286.179 101.816C285.687 101.664 285.285 101.456 284.975 101.192C284.664 100.929 284.438 100.618 284.298 100.261C284.157 99.8975 284.087 99.5078 284.087 99.0918C284.087 98.5645 284.21 98.0781 284.456 97.6328C284.702 97.1875 285.054 96.8037 285.511 96.4814C285.968 96.1533 286.519 95.8984 287.163 95.7168C287.813 95.5352 288.537 95.4443 289.334 95.4443C289.75 95.4443 290.184 95.4707 290.635 95.5234C291.092 95.5703 291.54 95.6348 291.979 95.7168C292.419 95.7988 292.841 95.8955 293.245 96.0068C293.649 96.1123 294.007 96.2266 294.317 96.3496L293.5 98.3711C292.838 98.125 292.176 97.9316 291.514 97.791C290.857 97.6445 290.181 97.5713 289.483 97.5713C288.997 97.5713 288.584 97.6094 288.244 97.6855C287.91 97.7559 287.638 97.8525 287.427 97.9756C287.216 98.0928 287.061 98.2305 286.961 98.3887C286.867 98.541 286.82 98.7021 286.82 98.8721C286.82 98.9951 286.844 99.1064 286.891 99.2061C286.943 99.3057 287.025 99.3936 287.137 99.4697C287.254 99.54 287.403 99.5957 287.585 99.6367C287.772 99.6719 288.001 99.6895 288.271 99.6895C288.517 99.6895 288.777 99.6748 289.053 99.6455C289.328 99.6162 289.615 99.5869 289.914 99.5576C290.213 99.5225 290.521 99.4902 290.837 99.4609C291.159 99.4316 291.487 99.417 291.821 99.417C292.442 99.417 292.984 99.4902 293.447 99.6367C293.916 99.7832 294.303 99.9883 294.607 100.252C294.912 100.516 295.141 100.826 295.293 101.184C295.445 101.541 295.521 101.931 295.521 102.353C295.521 102.897 295.396 103.404 295.144 103.873C294.892 104.342 294.517 104.749 294.019 105.095C293.521 105.435 292.899 105.701 292.155 105.895C291.417 106.088 290.562 106.185 289.589 106.185C288.991 106.185 288.414 106.146 287.857 106.07C287.301 106 286.771 105.903 286.267 105.78C285.763 105.651 285.288 105.502 284.843 105.332C284.403 105.162 284.002 104.98 283.639 104.787L284.764 102.818ZM61.1611 125.599L55.1582 115.263H58.3135L62.541 123.076L66.7158 115.263H69.8711L63.9473 125.581V129H61.1611V125.599ZM71.0312 123.814C71.0312 123.07 71.1807 122.373 71.4795 121.723C71.7842 121.072 72.2148 120.504 72.7715 120.018C73.334 119.531 74.0107 119.147 74.8018 118.866C75.5986 118.585 76.4922 118.444 77.4824 118.444C78.4727 118.444 79.3633 118.585 80.1543 118.866C80.9512 119.147 81.6279 119.531 82.1846 120.018C82.7471 120.504 83.1777 121.072 83.4766 121.723C83.7812 122.373 83.9336 123.07 83.9336 123.814C83.9336 124.559 83.7812 125.256 83.4766 125.906C83.1777 126.557 82.7471 127.125 82.1846 127.611C81.6279 128.098 80.9512 128.481 80.1543 128.763C79.3633 129.044 78.4727 129.185 77.4824 129.185C76.4922 129.185 75.5986 129.044 74.8018 128.763C74.0107 128.481 73.334 128.098 72.7715 127.611C72.2148 127.125 71.7842 126.557 71.4795 125.906C71.1807 125.256 71.0312 124.559 71.0312 123.814ZM73.7646 123.814C73.7646 124.23 73.8467 124.626 74.0107 125.001C74.1807 125.37 74.4238 125.698 74.7402 125.985C75.0625 126.267 75.4521 126.492 75.9092 126.662C76.3721 126.826 76.8965 126.908 77.4824 126.908C78.0684 126.908 78.5898 126.826 79.0469 126.662C79.5098 126.492 79.8994 126.267 80.2158 125.985C80.5381 125.698 80.7812 125.37 80.9453 125.001C81.1152 124.626 81.2002 124.23 81.2002 123.814C81.2002 123.398 81.1152 123.003 80.9453 122.628C80.7812 122.253 80.5381 121.925 80.2158 121.644C79.8994 121.356 79.5098 121.131 79.0469 120.967C78.5898 120.797 78.0684 120.712 77.4824 120.712C76.8965 120.712 76.3721 120.797 75.9092 120.967C75.4521 121.131 75.0625 121.356 74.7402 121.644C74.4238 121.925 74.1807 122.253 74.0107 122.628C73.8467 123.003 73.7646 123.398 73.7646 123.814ZM86.5615 118.62H89.1543V123.683C89.1543 124.163 89.207 124.603 89.3125 125.001C89.418 125.394 89.5967 125.73 89.8486 126.012C90.1064 126.293 90.4463 126.513 90.8682 126.671C91.2959 126.823 91.8262 126.899 92.459 126.899C92.7578 126.899 93.0596 126.867 93.3643 126.803C93.6748 126.738 93.9707 126.65 94.252 126.539C94.5332 126.422 94.7939 126.284 95.0342 126.126C95.2803 125.968 95.4912 125.795 95.667 125.607V118.62H98.2686V129H95.667V128.112C95.0283 128.493 94.3867 128.766 93.7422 128.93C93.0977 129.094 92.4854 129.176 91.9053 129.176C90.9561 129.176 90.1416 129.062 89.4619 128.833C88.7881 128.604 88.2344 128.273 87.8008 127.84C87.373 127.4 87.0596 126.864 86.8604 126.231C86.6611 125.593 86.5615 124.866 86.5615 124.052V118.62Z" fill="#889DE2"/>
<path d="M63.232 69.84H55.468V71.088H58.624V78H60.076V71.088H63.232V69.84ZM72.4128 71.964L70.9368 76.284L69.3528 71.964H68.1048L66.5328 76.284L65.0568 71.964H63.5808L65.7648 78H67.1568L68.7048 73.68L70.2648 78H71.6448L73.8288 71.964H72.4128ZM78.2403 78.144C80.2923 78.144 81.6603 76.884 81.6603 74.988C81.6603 73.092 80.2923 71.82 78.2403 71.82C76.1883 71.82 74.8203 73.092 74.8203 74.988C74.8203 76.884 76.1883 78.144 78.2403 78.144ZM78.2403 76.944C77.0283 76.944 76.2363 76.164 76.2363 74.988C76.2363 73.8 77.0283 73.02 78.2403 73.02C79.4523 73.02 80.2443 73.8 80.2443 74.988C80.2443 76.164 79.4523 76.944 78.2403 76.944ZM89.593 73.308H86.917V70.632H85.693V73.308H83.017V74.532H85.693V77.208H86.917V74.532H89.593V73.308ZM96.8253 76.752V69.84H95.3733V78H102.369V76.752H96.8253ZM104.78 70.896C105.284 70.896 105.632 70.56 105.632 70.08C105.632 69.612 105.284 69.276 104.78 69.276C104.276 69.276 103.928 69.612 103.928 70.08C103.928 70.56 104.276 70.896 104.78 70.896ZM104.084 78H105.476V71.964H104.084V78ZM112.453 71.964L110.497 76.476L108.529 71.964H107.017L109.753 78H111.181L113.905 71.964H112.453ZM121.449 75.408C121.461 75.264 121.461 75.12 121.461 74.988C121.461 73.068 120.153 71.82 118.149 71.82C116.109 71.82 114.741 73.092 114.741 74.988C114.741 76.944 116.133 78.144 118.437 78.144C119.505 78.144 120.405 77.892 121.161 77.376L120.693 76.284C120.009 76.752 119.337 76.956 118.533 76.956C117.189 76.956 116.361 76.404 116.181 75.408H121.449ZM118.161 72.984C119.169 72.984 119.877 73.512 120.093 74.376H116.217C116.445 73.512 117.153 72.984 118.161 72.984Z" fill="#889DE2"/>
<path d="M63.208 160.548V159.84H56.2V168H57.004V164.256H62.428V163.548H57.004V160.548H63.208ZM65.447 160.752C65.795 160.752 66.023 160.524 66.023 160.2C66.023 159.876 65.795 159.648 65.447 159.648C65.099 159.648 64.871 159.876 64.871 160.2C64.871 160.524 65.099 160.752 65.447 160.752ZM65.063 168H65.831V162.024H65.063V168ZM71.7498 161.88C70.6698 161.88 69.7578 162.336 69.0138 163.248V162.024H68.2458V168H69.0138V163.908C69.6978 163.056 70.5498 162.576 71.5578 162.576C72.6978 162.576 73.3098 163.188 73.3098 164.328V168H74.0778V164.208C74.0778 162.732 73.2138 161.88 71.7498 161.88ZM81.5577 159.48V163.248C80.8737 162.336 80.0217 161.88 78.9897 161.88C77.2377 161.88 76.0137 163.164 76.0137 165.012C76.0137 166.86 77.2377 168.144 78.9897 168.144C80.0217 168.144 80.8737 167.688 81.5577 166.764V168H82.3257V159.48H81.5577ZM81.5577 166.092C80.9097 166.968 80.0577 167.448 79.1097 167.448C77.7177 167.448 76.8057 166.464 76.8057 165.012C76.8057 163.548 77.7177 162.576 79.1097 162.576C80.0577 162.576 80.9097 163.044 81.5577 163.932V166.092ZM89.0064 160.752C89.3544 160.752 89.5824 160.524 89.5824 160.2C89.5824 159.876 89.3544 159.648 89.0064 159.648C88.6584 159.648 88.4304 159.876 88.4304 160.2C88.4304 160.524 88.6584 160.752 89.0064 160.752ZM88.6224 168H89.3904V162.024H88.6224V168ZM95.3092 161.88C94.2292 161.88 93.3172 162.336 92.5732 163.248V162.024H91.8052V168H92.5732V163.908C93.2572 163.056 94.1092 162.576 95.1172 162.576C96.2572 162.576 96.8692 163.188 96.8692 164.328V168H97.6372V164.208C97.6372 162.732 96.7732 161.88 95.3092 161.88ZM102.561 168.144C104.409 168.144 105.465 167.484 105.465 166.32C105.465 165.216 104.733 164.772 102.705 164.628C100.965 164.508 100.473 164.28 100.473 163.632C100.473 162.972 101.193 162.552 102.393 162.552C103.329 162.552 104.169 162.792 104.757 163.224L105.081 162.612C104.385 162.12 103.473 161.88 102.441 161.88C100.761 161.88 99.6931 162.564 99.6931 163.668C99.6931 164.772 100.413 165.216 102.465 165.36C104.193 165.48 104.685 165.696 104.685 166.356C104.685 167.052 103.905 167.46 102.573 167.46C101.445 167.46 100.533 167.16 99.7771 166.632L99.4171 167.244C100.209 167.808 101.277 168.144 102.561 168.144ZM110.706 161.88C109.674 161.88 108.822 162.336 108.15 163.248V162.024H107.382V170.28H108.15V166.764C108.822 167.688 109.674 168.144 110.706 168.144C112.47 168.144 113.682 166.86 113.682 165.012C113.682 163.164 112.47 161.88 110.706 161.88ZM110.598 167.448C109.65 167.448 108.786 166.968 108.15 166.092V163.932C108.786 163.044 109.65 162.576 110.598 162.576C111.978 162.576 112.902 163.548 112.902 165.012C112.902 166.464 111.978 167.448 110.598 167.448ZM116.105 160.752C116.453 160.752 116.681 160.524 116.681 160.2C116.681 159.876 116.453 159.648 116.105 159.648C115.757 159.648 115.529 159.876 115.529 160.2C115.529 160.524 115.757 160.752 116.105 160.752ZM115.721 168H116.489V162.024H115.721V168ZM122.456 161.88C121.268 161.88 120.392 162.384 119.672 163.356V162.024H118.904V168H119.672V164.016C120.416 163.08 121.28 162.636 122.348 162.636C122.516 162.636 122.744 162.648 122.9 162.684L122.948 161.916C122.816 161.892 122.636 161.88 122.456 161.88ZM127.293 161.88C126.213 161.88 125.349 162.12 124.605 162.612L124.929 163.224C125.565 162.78 126.333 162.576 127.233 162.576C128.781 162.576 129.465 163.2 129.465 164.628V165.18C128.673 164.712 127.641 164.436 126.657 164.436C125.097 164.436 124.197 165.12 124.197 166.284C124.197 167.436 125.073 168.144 126.489 168.144C127.665 168.144 128.721 167.664 129.465 166.764V168H130.233V164.544C130.233 162.708 129.309 161.88 127.293 161.88ZM129.465 166.116C128.805 166.956 127.737 167.46 126.609 167.46C125.577 167.46 124.977 167.028 124.977 166.272C124.977 165.504 125.601 165.096 126.801 165.096C127.761 165.096 128.733 165.348 129.465 165.804V166.116ZM136.784 167.124C136.4 167.34 135.98 167.448 135.512 167.448C134.696 167.448 134.312 167.1 134.312 166.308V162.66H136.844V162.024H134.312V159.84H133.544V162.024H131.792V162.66H133.544V166.38C133.544 167.556 134.192 168.144 135.452 168.144C136.04 168.144 136.544 168.024 137.012 167.772L136.784 167.124ZM139.219 160.752C139.567 160.752 139.795 160.524 139.795 160.2C139.795 159.876 139.567 159.648 139.219 159.648C138.871 159.648 138.643 159.876 138.643 160.2C138.643 160.524 138.871 160.752 139.219 160.752ZM138.835 168H139.603V162.024H138.835V168ZM144.958 168.144C146.938 168.144 148.282 166.872 148.282 165.012C148.282 163.14 146.938 161.88 144.958 161.88C142.966 161.88 141.634 163.14 141.634 165.012C141.634 166.872 142.966 168.144 144.958 168.144ZM144.958 167.448C143.434 167.448 142.414 166.452 142.414 165.012C142.414 163.56 143.434 162.576 144.958 162.576C146.47 162.576 147.49 163.56 147.49 165.012C147.49 166.452 146.47 167.448 144.958 167.448ZM153.802 161.88C152.722 161.88 151.81 162.336 151.066 163.248V162.024H150.298V168H151.066V163.908C151.75 163.056 152.602 162.576 153.61 162.576C154.75 162.576 155.362 163.188 155.362 164.328V168H156.13V164.208C156.13 162.732 155.266 161.88 153.802 161.88ZM162.72 160.752C163.068 160.752 163.296 160.524 163.296 160.2C163.296 159.876 163.068 159.648 162.72 159.648C162.372 159.648 162.144 159.876 162.144 160.2C162.144 160.524 162.372 160.752 162.72 160.752ZM162.336 168H163.104V162.024H162.336V168ZM169.023 161.88C167.943 161.88 167.031 162.336 166.287 163.248V162.024H165.519V168H166.287V163.908C166.971 163.056 167.823 162.576 168.831 162.576C169.971 162.576 170.583 163.188 170.583 164.328V168H171.351V164.208C171.351 162.732 170.487 161.88 169.023 161.88ZM181.84 167.124C181.456 167.34 181.036 167.448 180.568 167.448C179.752 167.448 179.368 167.1 179.368 166.308V162.66H181.9V162.024H179.368V159.84H178.6V162.024H176.848V162.66H178.6V166.38C178.6 167.556 179.248 168.144 180.508 168.144C181.096 168.144 181.6 168.024 182.068 167.772L181.84 167.124ZM187.395 161.88C186.315 161.88 185.403 162.336 184.659 163.248V159.48H183.891V168H184.659V163.908C185.343 163.056 186.195 162.576 187.203 162.576C188.343 162.576 188.955 163.188 188.955 164.328V168H189.723V164.208C189.723 162.732 188.859 161.88 187.395 161.88ZM198.235 165.24V165.012C198.235 163.14 196.915 161.88 194.947 161.88C192.979 161.88 191.647 163.14 191.647 165.012C191.647 166.92 193.027 168.144 195.223 168.144C196.291 168.144 197.179 167.868 197.911 167.292L197.599 166.668C196.915 167.208 196.183 167.448 195.271 167.448C193.603 167.448 192.535 166.62 192.439 165.24H198.235ZM194.971 162.576C196.327 162.576 197.299 163.368 197.479 164.592H192.451C192.631 163.368 193.603 162.576 194.971 162.576ZM208.364 167.124C207.98 167.34 207.56 167.448 207.092 167.448C206.276 167.448 205.892 167.1 205.892 166.308V162.66H208.424V162.024H205.892V159.84H205.124V162.024H203.372V162.66H205.124V166.38C205.124 167.556 205.772 168.144 207.032 168.144C207.62 168.144 208.124 168.024 208.592 167.772L208.364 167.124ZM213.919 161.88C212.839 161.88 211.927 162.336 211.183 163.248V159.48H210.415V168H211.183V163.908C211.867 163.056 212.719 162.576 213.727 162.576C214.867 162.576 215.479 163.188 215.479 164.328V168H216.247V164.208C216.247 162.732 215.383 161.88 213.919 161.88ZM218.939 160.752C219.287 160.752 219.515 160.524 219.515 160.2C219.515 159.876 219.287 159.648 218.939 159.648C218.591 159.648 218.363 159.876 218.363 160.2C218.363 160.524 218.591 160.752 218.939 160.752ZM218.555 168H219.323V162.024H218.555V168ZM225.242 161.88C224.162 161.88 223.25 162.336 222.506 163.248V162.024H221.738V168H222.506V163.908C223.19 163.056 224.042 162.576 225.05 162.576C226.19 162.576 226.802 163.188 226.802 164.328V168H227.57V164.208C227.57 162.732 226.706 161.88 225.242 161.88ZM235.05 162.024V163.248C234.366 162.336 233.514 161.88 232.482 161.88C230.73 161.88 229.506 163.164 229.506 165.012C229.506 166.86 230.73 168.144 232.482 168.144C233.514 168.144 234.366 167.688 235.05 166.764V167.424C235.05 168.96 234.186 169.728 232.482 169.728C231.666 169.728 230.994 169.548 230.298 169.128L230.022 169.764C230.742 170.208 231.558 170.424 232.542 170.424C234.678 170.424 235.818 169.416 235.818 167.52V162.024H235.05ZM235.05 166.092C234.402 166.968 233.55 167.448 232.602 167.448C231.21 167.448 230.298 166.464 230.298 165.012C230.298 163.548 231.21 162.576 232.602 162.576C233.55 162.576 234.402 163.044 235.05 163.932V166.092ZM240.833 168.144C242.681 168.144 243.737 167.484 243.737 166.32C243.737 165.216 243.005 164.772 240.977 164.628C239.237 164.508 238.745 164.28 238.745 163.632C238.745 162.972 239.465 162.552 240.665 162.552C241.601 162.552 242.441 162.792 243.029 163.224L243.353 162.612C242.657 162.12 241.745 161.88 240.713 161.88C239.033 161.88 237.965 162.564 237.965 163.668C237.965 164.772 238.685 165.216 240.737 165.36C242.465 165.48 242.957 165.696 242.957 166.356C242.957 167.052 242.177 167.46 240.845 167.46C239.717 167.46 238.805 167.16 238.049 166.632L237.689 167.244C238.481 167.808 239.549 168.144 240.833 168.144ZM254.627 162.024L252.311 166.968L249.743 162.024H248.879L251.879 167.772L251.471 168.636C251.099 169.428 250.751 169.728 250.079 169.728C249.719 169.728 249.383 169.656 249.143 169.524L248.927 170.172C249.227 170.328 249.623 170.424 250.127 170.424C251.111 170.424 251.663 170.016 252.179 168.924L255.443 162.024H254.627ZM259.776 168.144C261.756 168.144 263.1 166.872 263.1 165.012C263.1 163.14 261.756 161.88 259.776 161.88C257.784 161.88 256.452 163.14 256.452 165.012C256.452 166.872 257.784 168.144 259.776 168.144ZM259.776 167.448C258.252 167.448 257.232 166.452 257.232 165.012C257.232 163.56 258.252 162.576 259.776 162.576C261.288 162.576 262.308 163.56 262.308 165.012C262.308 166.452 261.288 167.448 259.776 167.448ZM270.072 162.024V166.104C269.388 166.956 268.536 167.448 267.528 167.448C266.388 167.448 265.776 166.824 265.776 165.684V162.024H265.008V165.816C265.008 167.292 265.872 168.144 267.336 168.144C268.416 168.144 269.328 167.676 270.072 166.764V168H270.84V162.024H270.072ZM277.154 168H277.922V159.48H277.154V168ZM283.276 168.144C285.256 168.144 286.6 166.872 286.6 165.012C286.6 163.14 285.256 161.88 283.276 161.88C281.284 161.88 279.952 163.14 279.952 165.012C279.952 166.872 281.284 168.144 283.276 168.144ZM283.276 167.448C281.752 167.448 280.732 166.452 280.732 165.012C280.732 163.56 281.752 162.576 283.276 162.576C284.788 162.576 285.808 163.56 285.808 165.012C285.808 166.452 284.788 167.448 283.276 167.448ZM293.377 162.024L290.917 167.124L288.445 162.024H287.593L290.509 168H291.289L294.193 162.024H293.377ZM301.789 165.24V165.012C301.789 163.14 300.469 161.88 298.501 161.88C296.533 161.88 295.201 163.14 295.201 165.012C295.201 166.92 296.581 168.144 298.777 168.144C299.845 168.144 300.733 167.868 301.465 167.292L301.153 166.668C300.469 167.208 299.737 167.448 298.825 167.448C297.157 167.448 296.089 166.62 295.993 165.24H301.789ZM298.525 162.576C299.881 162.576 300.853 163.368 301.033 164.592H296.005C296.185 163.368 297.157 162.576 298.525 162.576ZM60.34 182.124C59.956 182.34 59.536 182.448 59.068 182.448C58.252 182.448 57.868 182.1 57.868 181.308V177.66H60.4V177.024H57.868V174.84H57.1V177.024H55.348V177.66H57.1V181.38C57.1 182.556 57.748 183.144 59.008 183.144C59.596 183.144 60.1 183.024 60.568 182.772L60.34 182.124ZM65.3312 183.144C67.3112 183.144 68.6552 181.872 68.6552 180.012C68.6552 178.14 67.3112 176.88 65.3312 176.88C63.3392 176.88 62.0072 178.14 62.0072 180.012C62.0072 181.872 63.3392 183.144 65.3312 183.144ZM65.3312 182.448C63.8072 182.448 62.7872 181.452 62.7872 180.012C62.7872 178.56 63.8072 177.576 65.3312 177.576C66.8432 177.576 67.8632 178.56 67.8632 180.012C67.8632 181.452 66.8432 182.448 65.3312 182.448ZM79.7413 174.48V178.248C79.0573 177.336 78.2053 176.88 77.1733 176.88C75.4213 176.88 74.1973 178.164 74.1973 180.012C74.1973 181.86 75.4213 183.144 77.1733 183.144C78.2053 183.144 79.0573 182.688 79.7413 181.764V183H80.5093V174.48H79.7413ZM79.7413 181.092C79.0933 181.968 78.2413 182.448 77.2933 182.448C75.9013 182.448 74.9893 181.464 74.9893 180.012C74.9893 178.548 75.9013 177.576 77.2933 177.576C78.2413 177.576 79.0933 178.044 79.7413 178.932V181.092ZM85.8483 183.144C87.8283 183.144 89.1723 181.872 89.1723 180.012C89.1723 178.14 87.8283 176.88 85.8483 176.88C83.8563 176.88 82.5243 178.14 82.5243 180.012C82.5243 181.872 83.8563 183.144 85.8483 183.144ZM85.8483 182.448C84.3243 182.448 83.3043 181.452 83.3043 180.012C83.3043 178.56 84.3243 177.576 85.8483 177.576C87.3603 177.576 88.3803 178.56 88.3803 180.012C88.3803 181.452 87.3603 182.448 85.8483 182.448ZM98.4105 176.88C97.3785 176.88 96.5265 177.336 95.8545 178.248V174.48H95.0865V183H95.8545V181.764C96.5265 182.688 97.3785 183.144 98.4105 183.144C100.174 183.144 101.386 181.86 101.386 180.012C101.386 178.164 100.174 176.88 98.4105 176.88ZM98.3025 182.448C97.3545 182.448 96.4905 181.968 95.8545 181.092V178.932C96.4905 178.044 97.3545 177.576 98.3025 177.576C99.6825 177.576 100.606 178.548 100.606 180.012C100.606 181.464 99.6825 182.448 98.3025 182.448ZM108.15 177.024L105.834 181.968L103.266 177.024H102.402L105.402 182.772L104.994 183.636C104.622 184.428 104.274 184.728 103.602 184.728C103.242 184.728 102.906 184.656 102.666 184.524L102.45 185.172C102.75 185.328 103.146 185.424 103.65 185.424C104.634 185.424 105.186 185.016 105.702 183.924L108.966 177.024H108.15ZM116.444 176.292C116.444 175.44 116.84 175.032 117.68 175.032C118.112 175.032 118.508 175.14 118.916 175.356L119.144 174.708C118.676 174.456 118.172 174.336 117.62 174.336C116.348 174.336 115.676 174.972 115.676 176.22V177.024H113.924V177.66H115.676V183H116.444V177.66H118.976V177.024H116.444V176.292ZM123.555 183.144C125.535 183.144 126.879 181.872 126.879 180.012C126.879 178.14 125.535 176.88 123.555 176.88C121.563 176.88 120.231 178.14 120.231 180.012C120.231 181.872 121.563 183.144 123.555 183.144ZM123.555 182.448C122.031 182.448 121.011 181.452 121.011 180.012C121.011 178.56 122.031 177.576 123.555 177.576C125.067 177.576 126.087 178.56 126.087 180.012C126.087 181.452 125.067 182.448 123.555 182.448ZM128.895 183H129.663V174.48H128.895V183ZM132.078 183H132.846V174.48H132.078V183ZM138.201 183.144C140.181 183.144 141.525 181.872 141.525 180.012C141.525 178.14 140.181 176.88 138.201 176.88C136.209 176.88 134.877 178.14 134.877 180.012C134.877 181.872 136.209 183.144 138.201 183.144ZM138.201 182.448C136.677 182.448 135.657 181.452 135.657 180.012C135.657 178.56 136.677 177.576 138.201 177.576C139.713 177.576 140.733 178.56 140.733 180.012C140.733 181.452 139.713 182.448 138.201 182.448ZM151.778 177.024L149.906 181.992L147.998 177.024H147.278L145.382 181.992L143.51 177.024H142.694L144.974 183H145.742L147.626 178.032L149.51 183H150.278L152.57 177.024H151.778ZM154.713 175.752C155.061 175.752 155.289 175.524 155.289 175.2C155.289 174.876 155.061 174.648 154.713 174.648C154.365 174.648 154.137 174.876 154.137 175.2C154.137 175.524 154.365 175.752 154.713 175.752ZM154.329 183H155.097V177.024H154.329V183ZM161.016 176.88C159.936 176.88 159.024 177.336 158.28 178.248V177.024H157.512V183H158.28V178.908C158.964 178.056 159.816 177.576 160.824 177.576C161.964 177.576 162.576 178.188 162.576 179.328V183H163.344V179.208C163.344 177.732 162.48 176.88 161.016 176.88ZM170.824 177.024V178.248C170.14 177.336 169.288 176.88 168.256 176.88C166.504 176.88 165.28 178.164 165.28 180.012C165.28 181.86 166.504 183.144 168.256 183.144C169.288 183.144 170.14 182.688 170.824 181.764V182.424C170.824 183.96 169.96 184.728 168.256 184.728C167.44 184.728 166.768 184.548 166.072 184.128L165.796 184.764C166.516 185.208 167.332 185.424 168.316 185.424C170.452 185.424 171.592 184.416 171.592 182.52V177.024H170.824ZM170.824 181.092C170.176 181.968 169.324 182.448 168.376 182.448C166.984 182.448 166.072 181.464 166.072 180.012C166.072 178.548 166.984 177.576 168.376 177.576C169.324 177.576 170.176 178.044 170.824 178.932V181.092ZM182.845 177.024V181.104C182.161 181.956 181.309 182.448 180.301 182.448C179.161 182.448 178.549 181.824 178.549 180.684V177.024H177.781V180.816C177.781 182.292 178.645 183.144 180.109 183.144C181.189 183.144 182.101 182.676 182.845 181.764V183H183.613V177.024H182.845ZM188.645 183.144C190.493 183.144 191.549 182.484 191.549 181.32C191.549 180.216 190.817 179.772 188.789 179.628C187.049 179.508 186.557 179.28 186.557 178.632C186.557 177.972 187.277 177.552 188.477 177.552C189.413 177.552 190.253 177.792 190.841 178.224L191.165 177.612C190.469 177.12 189.557 176.88 188.525 176.88C186.845 176.88 185.777 177.564 185.777 178.668C185.777 179.772 186.497 180.216 188.549 180.36C190.277 180.48 190.769 180.696 190.769 181.356C190.769 182.052 189.989 182.46 188.657 182.46C187.529 182.46 186.617 182.16 185.861 181.632L185.501 182.244C186.293 182.808 187.361 183.144 188.645 183.144ZM199.669 180.24V180.012C199.669 178.14 198.349 176.88 196.381 176.88C194.413 176.88 193.081 178.14 193.081 180.012C193.081 181.92 194.461 183.144 196.657 183.144C197.725 183.144 198.613 182.868 199.345 182.292L199.033 181.668C198.349 182.208 197.617 182.448 196.705 182.448C195.037 182.448 193.969 181.62 193.873 180.24H199.669ZM196.405 177.576C197.761 177.576 198.733 178.368 198.913 179.592H193.885C194.065 178.368 195.037 177.576 196.405 177.576ZM205.169 176.88C203.981 176.88 203.105 177.384 202.385 178.356V177.024H201.617V183H202.385V179.016C203.129 178.08 203.993 177.636 205.061 177.636C205.229 177.636 205.457 177.648 205.613 177.684L205.661 176.916C205.529 176.892 205.349 176.88 205.169 176.88ZM209.959 183.144C211.807 183.144 212.863 182.484 212.863 181.32C212.863 180.216 212.131 179.772 210.103 179.628C208.363 179.508 207.871 179.28 207.871 178.632C207.871 177.972 208.591 177.552 209.791 177.552C210.727 177.552 211.567 177.792 212.155 178.224L212.479 177.612C211.783 177.12 210.871 176.88 209.839 176.88C208.159 176.88 207.091 177.564 207.091 178.668C207.091 179.772 207.811 180.216 209.863 180.36C211.591 180.48 212.083 180.696 212.083 181.356C212.083 182.052 211.303 182.46 209.971 182.46C208.843 182.46 207.931 182.16 207.175 181.632L206.815 182.244C207.607 182.808 208.675 183.144 209.959 183.144ZM221.305 176.88C220.225 176.88 219.361 177.12 218.617 177.612L218.941 178.224C219.577 177.78 220.345 177.576 221.245 177.576C222.793 177.576 223.477 178.2 223.477 179.628V180.18C222.685 179.712 221.653 179.436 220.669 179.436C219.109 179.436 218.209 180.12 218.209 181.284C218.209 182.436 219.085 183.144 220.501 183.144C221.677 183.144 222.733 182.664 223.477 181.764V183H224.245V179.544C224.245 177.708 223.321 176.88 221.305 176.88ZM223.477 181.116C222.817 181.956 221.749 182.46 220.621 182.46C219.589 182.46 218.989 182.028 218.989 181.272C218.989 180.504 219.613 180.096 220.813 180.096C221.773 180.096 222.745 180.348 223.477 180.804V181.116ZM230.028 176.88C228.948 176.88 228.036 177.336 227.292 178.248V177.024H226.524V183H227.292V178.908C227.976 178.056 228.828 177.576 229.836 177.576C230.976 177.576 231.588 178.188 231.588 179.328V183H232.356V179.208C232.356 177.732 231.492 176.88 230.028 176.88ZM239.836 174.48V178.248C239.152 177.336 238.3 176.88 237.268 176.88C235.516 176.88 234.292 178.164 234.292 180.012C234.292 181.86 235.516 183.144 237.268 183.144C238.3 183.144 239.152 182.688 239.836 181.764V183H240.604V174.48H239.836ZM239.836 181.092C239.188 181.968 238.336 182.448 237.388 182.448C235.996 182.448 235.084 181.464 235.084 180.012C235.084 178.548 235.996 177.576 237.388 177.576C238.336 177.576 239.188 178.044 239.836 178.932V181.092ZM251.185 182.124C250.801 182.34 250.381 182.448 249.913 182.448C249.097 182.448 248.713 182.1 248.713 181.308V177.66H251.245V177.024H248.713V174.84H247.945V177.024H246.193V177.66H247.945V181.38C247.945 182.556 248.593 183.144 249.853 183.144C250.441 183.144 250.945 183.024 251.413 182.772L251.185 182.124ZM255.864 176.88C254.784 176.88 253.92 177.12 253.176 177.612L253.5 178.224C254.136 177.78 254.904 177.576 255.804 177.576C257.352 177.576 258.036 178.2 258.036 179.628V180.18C257.244 179.712 256.212 179.436 255.228 179.436C253.668 179.436 252.768 180.12 252.768 181.284C252.768 182.436 253.644 183.144 255.06 183.144C256.236 183.144 257.292 182.664 258.036 181.764V183H258.804V179.544C258.804 177.708 257.88 176.88 255.864 176.88ZM258.036 181.116C257.376 181.956 256.308 182.46 255.18 182.46C254.148 182.46 253.548 182.028 253.548 181.272C253.548 180.504 254.172 180.096 255.372 180.096C256.332 180.096 257.304 180.348 258.036 180.804V181.116ZM266.255 177.024V178.248C265.571 177.336 264.719 176.88 263.687 176.88C261.935 176.88 260.711 178.164 260.711 180.012C260.711 181.86 261.935 183.144 263.687 183.144C264.719 183.144 265.571 182.688 266.255 181.764V182.424C266.255 183.96 265.391 184.728 263.687 184.728C262.871 184.728 262.199 184.548 261.503 184.128L261.227 184.764C261.947 185.208 262.763 185.424 263.747 185.424C265.883 185.424 267.023 184.416 267.023 182.52V177.024H266.255ZM266.255 181.092C265.607 181.968 264.755 182.448 263.807 182.448C262.415 182.448 261.503 181.464 261.503 180.012C261.503 178.548 262.415 177.576 263.807 177.576C264.755 177.576 265.607 178.044 266.255 178.932V181.092ZM272.038 183.144C273.886 183.144 274.942 182.484 274.942 181.32C274.942 180.216 274.21 179.772 272.182 179.628C270.442 179.508 269.95 179.28 269.95 178.632C269.95 177.972 270.67 177.552 271.87 177.552C272.806 177.552 273.646 177.792 274.234 178.224L274.558 177.612C273.862 177.12 272.95 176.88 271.918 176.88C270.238 176.88 269.17 177.564 269.17 178.668C269.17 179.772 269.89 180.216 271.942 180.36C273.67 180.48 274.162 180.696 274.162 181.356C274.162 182.052 273.382 182.46 272.05 182.46C270.922 182.46 270.01 182.16 269.254 181.632L268.894 182.244C269.686 182.808 270.754 183.144 272.038 183.144Z" fill="black"/>
<defs>
<filter id="filter0_dddd" x="0" y="0" width="370" height="334" filterUnits="userSpaceOnUse" color-interpolation-filters="sRGB">
<feFlood flood-opacity="0" result="BackgroundImageFix"/>
<feColorMatrix in="SourceAlpha" type="matrix" values="0 0 0 0 0 0 0 0 0 0 0 0 0 0 0 0 0 0 127 0"/>
<feOffset dx="-10" dy="-10"/>
<feGaussianBlur stdDeviation="10"/>
<feColorMatrix type="matrix" values="0 0 0 0 1 0 0 0 0 1 0 0 0 0 1 0 0 0 1 0"/>
<feBlend mode="normal" in2="BackgroundImageFix" result="effect1_dropShadow"/>
<feColorMatrix in="SourceAlpha" type="matrix" values="0 0 0 0 0 0 0 0 0 0 0 0 0 0 0 0 0 0 127 0"/>
<feOffset dx="10" dy="10"/>
<feGaussianBlur stdDeviation="10"/>
<feColorMatrix type="matrix" values="0 0 0 0 0.666667 0 0 0 0 0.666667 0 0 0 0 0.8 0 0 0 0.5 0"/>
<feBlend mode="normal" in2="effect1_dropShadow" result="effect2_dropShadow"/>
<feColorMatrix in="SourceAlpha" type="matrix" values="0 0 0 0 0 0 0 0 0 0 0 0 0 0 0 0 0 0 127 0"/>
<feOffset dx="5" dy="5"/>
<feGaussianBlur stdDeviation="5"/>
<feColorMatrix type="matrix" values="0 0 0 0 0.666667 0 0 0 0 0.666667 0 0 0 0 0.8 0 0 0 0.25 0"/>
<feBlend mode="normal" in2="effect2_dropShadow" result="effect3_dropShadow"/>
<feColorMatrix in="SourceAlpha" type="matrix" values="0 0 0 0 0 0 0 0 0 0 0 0 0 0 0 0 0 0 127 0"/>
<feOffset dx="-5" dy="-5"/>
<feGaussianBlur stdDeviation="5"/>
<feColorMatrix type="matrix" values="0 0 0 0 1 0 0 0 0 1 0 0 0 0 1 0 0 0 0.5 0"/>
<feBlend mode="normal" in2="effect3_dropShadow" result="effect4_dropShadow"/>
<feBlend mode="normal" in="SourceGraphic" in2="effect4_dropShadow" result="shape"/>
</filter>
</defs>
</svg>
